
<svg xmlns="http://www.w3.org/2000/svg" version="1.1" xmlns:xlink="http://www.w3.org/1999/xlink" preserveAspectRatio="none" x="0px" y="0px" width="2280px" height="1140px" viewBox="0 0 2280 1140">
<defs/>

<g id="Layer_1">
<g>
<g>
<g>
<path fill="#000000" stroke="none" d="
M 1431.8 981.15
Q 1430.95 983 1430.95 985.25 1430.95 987.55 1431.8 989.4 1432.6 991.25 1434 992.6 1435.4 993.95 1437.35 994.6 1439.25 995.35 1441.4 995.35 1443.65 995.35 1445.75 994.45 1447.8 993.6 1449.55 991.55
L 1446.05 988.95
Q 1445.15 990 1443.95 990.75 1442.75 991.55 1440.95 991.55 1438.85 991.55 1437.45 990.35 1436 989.15 1435.75 986.95
L 1450.4 986.95 1450.4 985.6
Q 1450.4 983.15 1449.75 981.2 1449.05 979.2 1447.85 977.95 1446.75 976.6 1445.05 975.85 1443.4 975.2 1441.4 975.2 1439.25 975.2 1437.35 975.95 1435.4 976.6 1434 977.95 1432.6 979.25 1431.8 981.15
M 1435.75 983.35
Q 1436.05 981.25 1437.35 980 1438.55 978.8 1440.75 978.8 1443 978.8 1444.25 980 1445.6 981.25 1445.6 983.35
L 1435.75 983.35
M 1415.05 975.2
Q 1413 975.2 1411.25 975.95 1409.55 976.75 1408.35 978.15 1407.15 979.45 1406.45 981.35 1405.75 983.15 1405.75 985.25 1405.75 987.4 1406.4 989.2 1407.05 991.05 1408.25 992.4 1409.55 993.8 1411.25 994.6 1413 995.35 1415.2 995.35 1417.25 995.35 1419.05 994.55 1420.8 993.75 1421.8 992
L 1421.95 992 1421.95 994.85 1426.45 994.85 1426.45 964.6 1421.65 964.6 1421.65 978.15 1421.55 978.15 1420.65 977.15 1419.25 976.2
Q 1418.45 975.75 1417.45 975.45 1416.4 975.2 1415.05 975.2
M 1410.55 985.25
Q 1410.55 984.15 1410.95 983.15 1411.35 982.05 1412.05 981.25 1412.8 980.45 1413.85 980 1414.85 979.55 1416.2 979.55 1417.55 979.55 1418.55 980 1419.6 980.45 1420.35 981.25 1421.05 982.05 1421.45 983.15 1421.8 984.15 1421.8 985.25 1421.8 986.4 1421.45 987.4 1421.05 988.45 1420.35 989.25 1419.6 990.05 1418.55 990.55 1417.55 991 1416.2 991 1414.85 991 1413.85 990.55 1412.8 990.05 1412.05 989.25 1411.35 988.45 1410.95 987.4 1410.55 986.4 1410.55 985.25
M 1391.8 975.2
Q 1389.65 975.2 1387.75 975.95 1385.8 976.6 1384.4 977.95 1383 979.25 1382.2 981.15 1381.35 983 1381.35 985.25 1381.35 987.55 1382.2 989.4 1383 991.25 1384.4 992.6 1385.8 993.95 1387.75 994.6 1389.65 995.35 1391.8 995.35 1393.95 995.35 1395.85 994.6 1397.8 993.95 1399.2 992.6 1400.6 991.25 1401.4 989.4 1402.25 987.55 1402.25 985.25 1402.25 983 1401.4 981.15 1400.6 979.25 1399.2 977.95 1397.8 976.6 1395.85 975.95 1393.95 975.2 1391.8 975.2
M 1386.55 987.4
Q 1386.15 986.4 1386.15 985.25 1386.15 984.15 1386.55 983.15 1386.95 982.05 1387.65 981.25 1388.4 980.45 1389.45 980 1390.45 979.55 1391.8 979.55 1393.15 979.55 1394.15 980 1395.2 980.45 1395.95 981.25 1396.65 982.05 1397.05 983.15 1397.4 984.15 1397.4 985.25 1397.4 986.4 1397.05 987.4 1396.65 988.45 1395.95 989.25 1395.2 990.05 1394.15 990.55 1393.15 991 1391.8 991 1390.45 991 1389.45 990.55 1388.4 990.05 1387.65 989.25 1386.95 988.45 1386.55 987.4
M 1354.95 974.65
Q 1353.85 977.4 1353.85 980.8 1353.85 984.15 1354.95 986.85 1356.05 989.6 1358.05 991.55 1360 993.45 1362.8 994.55 1365.55 995.6 1368.8 995.6 1371.95 995.6 1374.65 994.4 1377.45 993.2 1379.4 990.55
L 1375.2 987.6
Q 1373.8 989.4 1372.2 990.2 1370.55 991 1368.85 991 1366.65 991 1364.85 990.2 1363.05 989.4 1361.8 988 1360.55 986.6 1359.8 984.75 1359.15 982.8 1359.15 980.55 1359.15 978.4 1359.8 976.55 1360.55 974.75 1361.8 973.35 1363.05 971.95 1364.85 971.2 1366.65 970.4 1368.85 970.4 1370.35 970.4 1371.8 970.95 1373.25 971.55 1374.8 973.2
L 1378.75 970.35
Q 1376.6 967.85 1374.15 966.85 1371.65 965.8 1368.8 965.8 1365.55 965.8 1362.8 966.85 1360 967.95 1358.05 969.95 1356.05 971.85 1354.95 974.65
M 1383.55 796.85
Q 1382.15 795.55 1380.4 795 1378.65 794.4 1376.75 794.4 1375.15 794.4 1373.6 794.85 1372 795.25 1370.8 796.15 1369.6 797.05 1368.8 798.4 1368.05 799.75 1368.05 801.55 1368.05 803.6 1368.95 804.85 1369.75 806.15 1371 806.85 1372.2 807.6 1373.65 808.05
L 1376.4 809
Q 1377.6 809.45 1378.45 810.2 1379.25 810.85 1379.25 812.2 1379.25 813 1378.85 813.6 1378.55 814.2 1377.95 814.6 1377.35 815 1376.6 815.2 1375.85 815.4 1375.15 815.4 1373.75 815.4 1372.45 814.75 1371.2 814.05 1370.45 812.95
L 1367.25 816
Q 1368.8 817.75 1370.8 818.45 1372.85 819.2 1375.05 819.2 1376.75 819.2 1378.35 818.75 1379.95 818.25 1381.05 817.35 1382.25 816.4 1382.95 815 1383.65 813.6 1383.65 811.65 1383.65 809.6 1382.85 808.25 1382 807 1380.8 806.25 1379.55 805.45 1378.05 805.05
L 1375.35 804.15
Q 1374.15 803.75 1373.25 803.05 1372.45 802.45 1372.45 801.25 1372.45 800.45 1372.8 799.85 1373.15 799.25 1373.65 798.95 1374.2 798.55 1374.95 798.4
L 1376.35 798.2
Q 1377.55 798.2 1378.65 798.65 1379.8 799.15 1380.45 800.05
L 1383.55 796.85
M 1410.85 793.4
L 1406.85 793.4 1406.85 818.6 1410.85 818.6 1410.85 793.4
M 1402.35 815.8
L 1399.45 813.65
Q 1398.65 814.55 1397.65 815.2 1396.65 815.8 1395.15 815.8 1393.45 815.8 1392.25 814.8 1391.05 813.8 1390.85 812
L 1403.05 812 1403.05 810.95
Q 1403.05 808.8 1402.55 807.2 1402 805.55 1401 804.45 1400 803.35 1398.6 802.8 1397.2 802.2 1395.6 802.2 1393.75 802.2 1392.2 802.8 1390.55 803.4 1389.4 804.55 1388.2 805.6 1387.55 807.15 1386.85 808.75 1386.85 810.6 1386.85 812.45 1387.55 814.05 1388.2 815.6 1389.4 816.65 1390.55 817.8 1392.2 818.4 1393.75 819 1395.6 819 1397.45 819 1399.2 818.25 1400.95 817.55 1402.35 815.8
M 1397.95 806.2
Q 1399.05 807.25 1399.05 809
L 1390.85 809
Q 1391.05 807.25 1392.15 806.2 1393.2 805.2 1395 805.2 1396.95 805.2 1397.95 806.2
M 1423.4 802.2
Q 1421.55 802.2 1420 802.8 1418.35 803.4 1417.2 804.55 1416 805.6 1415.35 807.15 1414.65 808.75 1414.65 810.6 1414.65 812.45 1415.35 814.05 1416 815.6 1417.2 816.65 1418.35 817.8 1420 818.4 1421.55 819 1423.4 819 1425.25 819 1427 818.25 1428.75 817.55 1430.15 815.8
L 1427.25 813.65
Q 1426.45 814.55 1425.45 815.2 1424.45 815.8 1422.95 815.8 1421.25 815.8 1420.05 814.8 1418.85 813.8 1418.65 812
L 1430.85 812 1430.85 810.95
Q 1430.85 808.8 1430.35 807.2 1429.8 805.55 1428.8 804.45 1427.8 803.35 1426.4 802.8 1425 802.2 1423.4 802.2
M 1425.75 806.2
Q 1426.85 807.25 1426.85 809
L 1418.65 809
Q 1418.85 807.25 1419.95 806.2 1421 805.2 1422.8 805.2 1424.75 805.2 1425.75 806.2
M 1445.6 802.8
Q 1444.05 802.2 1442.55 802.2 1440.65 802.2 1439.15 802.8 1437.45 803.4 1436.35 804.55 1435.15 805.6 1434.45 807.15 1433.8 808.75 1433.8 810.6 1433.8 812.45 1434.45 814.05 1435.15 815.6 1436.35 816.65 1437.45 817.8 1439.15 818.4 1440.65 819 1442.55 819
L 1445.35 818.55 1446.85 817.8
Q 1447.65 817.35 1448.25 816.75
L 1445.6 813.85
Q 1445 814.6 1444.2 815 1443.45 815.4 1442.55 815.4 1441.4 815.4 1440.55 815 1439.65 814.6 1439.05 813.95 1438.45 813.25 1438.15 812.4 1437.8 811.55 1437.8 810.6 1437.8 809.65 1438.15 808.8 1438.45 807.95 1439.05 807.25 1439.65 806.6 1440.55 806.2 1441.4 805.8 1442.55 805.8 1443.35 805.8 1444.05 806.2 1444.85 806.65 1445.55 807.4
L 1448.35 804.65
Q 1447.15 803.35 1445.6 802.8
M 1618.05 975.45
L 1617.2 975.25 1616.35 975.2
Q 1614.45 975.2 1612.95 976.05 1611.45 977.05 1610.65 978.75
L 1610.6 978.75 1610.6 975.65 1605.8 975.65 1605.8 994.85 1610.6 994.85 1610.6 984.6 1610.75 983.4
Q 1610.95 982.6 1611.45 981.8 1612 981 1613.05 980.4 1614.05 979.75 1615.75 979.75
L 1618.05 980.15 1618.05 975.45
M 1595.85 975.65
Q 1594.45 975.2 1592.45 975.2 1590.15 975.2 1588 975.95 1585.85 976.6 1584.25 978.25
L 1586.8 980.8
Q 1587.75 979.85 1589.05 979.35 1590.4 978.8 1591.95 978.8 1593.85 978.8 1595.05 979.65 1596.35 980.6 1596.35 982.4
L 1596.35 982.95 1589.85 983.25
Q 1588.55 983.45 1587.25 983.95 1586.05 984.35 1585.05 985.05 1584.15 985.8 1583.6 986.95 1583.05 988 1583.05 989.6 1583.05 991 1583.6 992.15 1584.25 993.2 1585.2 993.95 1586.2 994.6 1587.45 995 1588.75 995.35 1590.05 995.35 1591.95 995.35 1593.55 994.6 1595.15 993.85 1596.2 992.2
L 1596.35 992.2 1596.35 994.85 1600.65 994.85 1600.6 982.25 1600.35 980.4
Q 1600.15 979.4 1599.6 978.45 1599.15 977.55 1598.2 976.8 1597.25 976.05 1595.85 975.65
M 1587.8 989.2
Q 1587.8 988.2 1588.6 987.6 1589.35 987.05 1590.45 986.75 1591.55 986.4 1592.8 986.35
L 1596.05 986.25 1596.05 987.35
Q 1596.05 989.4 1594.85 990.6 1593.65 991.75 1591.2 991.75
L 1590 991.6 1588.95 991.15 1588.15 990.4
Q 1587.8 989.95 1587.8 989.2
M 1575.35 975.65
L 1575.35 970.15 1570.55 970.15 1570.55 975.65 1566.55 975.65 1566.55 979.75 1570.55 979.75 1570.55 988.55
Q 1570.55 990.25 1570.8 991.55 1571 992.8 1571.75 993.65 1572.45 994.55 1573.65 994.95 1574.85 995.35 1576.8 995.35
L 1578.75 995.2
Q 1579.85 995.05 1580.6 994.75
L 1580.6 990.65
Q 1580.15 991 1579.4 991.15
L 1578 991.25
Q 1576.4 991.25 1575.85 990.4 1575.35 989.6 1575.35 988.15
L 1575.35 979.75 1580.6 979.75 1580.6 975.65 1575.35 975.65
M 1555.35 975.2
Q 1553.2 975.2 1551.25 975.95 1549.35 976.6 1547.95 977.95 1546.55 979.25 1545.75 981.15 1544.85 983 1544.85 985.25 1544.85 987.55 1545.75 989.4 1546.55 991.25 1547.95 992.6 1549.35 993.95 1551.25 994.6 1553.2 995.35 1555.35 995.35 1557.6 995.35 1559.65 994.45 1561.75 993.6 1563.45 991.55
L 1560 988.95
Q 1559.05 990 1557.85 990.75 1556.65 991.55 1554.85 991.55 1552.8 991.55 1551.4 990.35 1549.95 989.15 1549.65 986.95
L 1564.35 986.95 1564.35 985.6
Q 1564.35 983.15 1563.65 981.2 1563 979.2 1561.8 977.95 1560.65 976.6 1559 975.85 1557.35 975.2 1555.35 975.2
M 1549.65 983.35
Q 1550 981.25 1551.25 980 1552.45 978.8 1554.65 978.8 1556.95 978.8 1558.2 980 1559.55 981.25 1559.55 983.35
L 1549.65 983.35
M 1536.75 975.8
Q 1535.35 975.2 1533.45 975.2 1531.05 975.2 1529.65 976.25 1528.25 977.35 1527.55 978.75
L 1527.45 978.75 1527.45 975.65 1522.95 975.65 1522.95 994.85 1527.75 994.85 1527.75 984.4
Q 1527.75 983.4 1527.95 982.55 1528.2 981.65 1528.75 981 1529.25 980.35 1530.15 979.95 1530.95 979.55 1532.15 979.55 1533.35 979.55 1534.05 980.05 1534.8 980.65 1535.15 981.55 1535.45 982.4 1535.55 983.35
L 1535.65 994.85 1540.45 994.85 1540.45 982.75
Q 1540.45 981.25 1540.05 979.95 1539.75 978.55 1538.85 977.55 1538 976.45 1536.75 975.8
M 1515.35 976.8
Q 1514.4 976.05 1513 975.65 1511.6 975.2 1509.6 975.2 1507.25 975.2 1505.15 975.95 1503 976.6 1501.4 978.25
L 1503.95 980.8
Q 1504.85 979.85 1506.2 979.35 1507.55 978.8 1509.05 978.8 1511 978.8 1512.2 979.65 1513.45 980.6 1513.45 982.4
L 1513.45 982.95 1507 983.25
Q 1505.65 983.45 1504.4 983.95 1503.2 984.35 1502.2 985.05 1501.25 985.8 1500.75 986.95 1500.2 988 1500.2 989.6 1500.2 991 1500.75 992.15 1501.4 993.2 1502.35 993.95 1503.35 994.6 1504.6 995 1505.85 995.35 1507.2 995.35 1509.05 995.35 1510.65 994.6 1512.25 993.85 1513.35 992.2
L 1513.45 992.2 1513.45 994.85 1517.8 994.85 1517.8 983.8 1517.45 980.4
Q 1517.25 979.4 1516.75 978.45 1516.25 977.55 1515.35 976.8
M 1504.95 989.2
Q 1504.95 988.2 1505.75 987.6 1506.45 987.05 1507.6 986.75 1508.65 986.4 1509.95 986.35
L 1513.2 986.25 1513.2 987.35
Q 1513.2 989.4 1512 990.6 1510.8 991.75 1508.35 991.75
L 1507.15 991.6 1506.05 991.15 1505.25 990.4
Q 1504.95 989.95 1504.95 989.2
M 1476.6 966.55
L 1467.05 966.55 1467.05 994.85 1472.15 994.85 1472.15 983.15 1475.75 983.15
Q 1478 983.15 1480 982.85 1482.05 982.55 1483.65 981.6 1485.2 980.75 1486.15 979.05 1487.05 977.4 1487.05 974.75 1487.05 972.4 1486.2 970.8 1485.35 969.2 1483.85 968.25 1482.45 967.35 1480.55 966.95 1478.65 966.55 1476.6 966.55
M 1472.15 970.85
L 1477.8 971
Q 1478.85 971.05 1479.8 971.55 1480.65 971.95 1481.2 972.75 1481.75 973.45 1481.75 974.8 1481.75 976.25 1481.15 977.05 1480.55 977.85 1479.55 978.25 1478.6 978.65 1477.4 978.75
L 1472.15 978.8 1472.15 970.85
M 1495.95 964.6
L 1491.15 964.6 1491.15 994.85 1495.95 994.85 1495.95 964.6
M 1460.45 818.45
L 1460.45 815.15
Q 1460.15 815.35 1459.55 815.45
L 1458.35 815.6
Q 1457 815.6 1456.55 814.95 1456.05 814.2 1456.05 813
L 1456.05 806 1460.45 806 1460.45 802.6 1456.05 802.6 1456.05 797.95 1452.05 797.95 1452.05 802.6 1448.8 802.6 1448.8 806 1452.05 806 1452.05 813.35
Q 1452.05 814.75 1452.35 815.8 1452.55 816.85 1453.15 817.6 1453.75 818.35 1454.75 818.65 1455.75 819 1457.35 819
L 1458.95 818.85
Q 1459.85 818.75 1460.45 818.45
M 1757.6 975.65
L 1753.05 975.65 1753.05 994.85 1757.85 994.85 1757.85 984.4
Q 1757.85 983.4 1758.05 982.55 1758.35 981.65 1758.85 981 1759.4 980.35 1760.25 979.95 1761.05 979.55 1762.25 979.55 1763.45 979.55 1764.2 980.05 1764.95 980.65 1765.25 981.55 1765.6 982.4 1765.65 983.35
L 1765.8 994.85 1770.6 994.85 1770.6 982.75
Q 1770.6 981.25 1770.2 979.95 1769.85 978.55 1769 977.55 1768.15 976.45 1766.85 975.8 1765.45 975.2 1763.6 975.2 1761.2 975.2 1759.8 976.25 1758.4 977.35 1757.65 978.75
L 1757.6 978.75 1757.6 975.65
M 1738.15 975.2
Q 1736 975.2 1734.05 975.95 1732.15 976.6 1730.75 977.95 1729.35 979.25 1728.55 981.15 1727.65 983 1727.65 985.25 1727.65 987.55 1728.55 989.4 1729.35 991.25 1730.75 992.6 1732.15 993.95 1734.05 994.6 1736 995.35 1738.15 995.35 1740.25 995.35 1742.2 994.6 1744.15 993.95 1745.55 992.6 1746.95 991.25 1747.75 989.4 1748.6 987.55 1748.6 985.25 1748.6 983 1747.75 981.15 1746.95 979.25 1745.55 977.95 1744.15 976.6 1742.2 975.95 1740.25 975.2 1738.15 975.2
M 1738.15 979.55
Q 1739.45 979.55 1740.45 980 1741.55 980.45 1742.25 981.25 1743 982.05 1743.4 983.15 1743.75 984.15 1743.75 985.25 1743.75 986.4 1743.4 987.4 1743 988.45 1742.25 989.25 1741.55 990.05 1740.45 990.55 1739.45 991 1738.15 991 1736.8 991 1735.8 990.55 1734.75 990.05 1734 989.25 1733.25 988.45 1732.85 987.4 1732.45 986.4 1732.45 985.25 1732.45 984.15 1732.85 983.15 1733.25 982.05 1734 981.25 1734.75 980.45 1735.8 980 1736.8 979.55 1738.15 979.55
M 1720.45 966.85
Q 1718 965.8 1715.15 965.8 1711.85 965.8 1709.15 966.85 1706.35 967.95 1704.4 969.95 1702.4 971.85 1701.25 974.65 1700.2 977.4 1700.2 980.8 1700.2 984.15 1701.25 986.85 1702.4 989.6 1704.4 991.55 1706.35 993.45 1709.15 994.55 1711.85 995.6 1715.15 995.6 1718.25 995.6 1721 994.4 1723.8 993.2 1725.75 990.55
L 1721.55 987.6
Q 1720.15 989.4 1718.55 990.2 1716.85 991 1715.2 991 1713 991 1711.2 990.2 1709.4 989.4 1708.15 988 1706.85 986.6 1706.15 984.75 1705.45 982.8 1705.45 980.55 1705.45 978.4 1706.15 976.55 1706.85 974.75 1708.15 973.35 1709.4 971.95 1711.2 971.2 1713 970.4 1715.2 970.4 1716.65 970.4 1718.15 970.95 1719.6 971.55 1721.15 973.2
L 1725.05 970.35
Q 1722.95 967.85 1720.45 966.85
M 1659 975.65
L 1654.45 975.65 1654.45 994.85 1659.25 994.85 1659.25 984.4
Q 1659.25 983.4 1659.45 982.55 1659.75 981.65 1660.25 981 1660.8 980.35 1661.65 979.95 1662.45 979.55 1663.65 979.55 1665.4 979.55 1666.2 980.6 1666.95 981.6 1666.95 983.4
L 1666.95 994.85 1671.75 994.85 1671.75 984.45 1671.95 982.65
Q 1672.2 981.75 1672.65 981.05 1673.15 980.35 1673.95 979.95 1674.75 979.55 1675.85 979.55 1676.95 979.55 1677.6 979.85 1678.35 980.2 1678.65 980.85 1679.15 981.45 1679.25 982.25
L 1679.4 984 1679.4 994.85 1684.2 994.85 1684.2 983.4
Q 1684.2 981.75 1683.85 980.2 1683.45 978.75 1682.65 977.6 1681.85 976.45 1680.55 975.8 1679.2 975.2 1677.25 975.2 1675.15 975.2 1673.6 976.05 1672 976.85 1671 978.75 1669.45 975.2 1665 975.2 1662.6 975.2 1661.15 976.25 1659.75 977.35 1659.15 978.65
L 1659 978.65 1659 975.65
M 1626.2 975.65
L 1621.4 975.65 1621.4 994.85 1626.2 994.85 1626.2 975.65
M 1626 971.2
Q 1626.85 970.4 1626.85 969.15 1626.85 967.95 1626 967.05 1625.05 966.25 1623.75 966.25 1622.45 966.25 1621.6 967.15 1620.75 968 1620.75 969.15 1620.75 970.35 1621.6 971.2 1622.45 972.05 1623.75 972.05 1625.05 972.05 1626 971.2
M 1636.55 975.65
L 1631.75 975.65 1631.75 987.8
Q 1631.75 989.25 1632.05 990.6 1632.45 992 1633.25 993.05 1634.15 994.15 1635.45 994.75 1636.8 995.35 1638.75 995.35 1641.15 995.35 1642.55 994.25 1643.95 993.2 1644.6 991.8
L 1644.65 991.8 1644.65 994.85 1649.25 994.85 1649.25 975.65 1644.45 975.65 1644.45 986.15
Q 1644.45 987.15 1644.2 988 1643.95 988.85 1643.4 989.55 1642.85 990.2 1642.05 990.6 1641.25 991 1640.05 991 1638.75 991 1638.05 990.45 1637.35 989.85 1637 989 1636.65 988.15 1636.6 987.2
L 1636.55 975.65
M 1879.25 975.65
L 1874.45 975.65 1874.45 994.85 1879.25 994.85 1879.25 984.6 1879.4 983.4
Q 1879.6 982.6 1880.15 981.8 1880.65 981 1881.75 980.4 1882.75 979.75 1884.4 979.75
L 1886.75 980.15 1886.75 975.45 1885.85 975.25 1885 975.2
Q 1883.15 975.2 1881.6 976.05 1880.15 977.05 1879.35 978.75
L 1879.25 978.75 1879.25 975.65
M 1846 964.6
L 1841.2 964.6 1841.2 994.85 1846 994.85 1846 964.6
M 1850.55 985.25
Q 1850.55 987.55 1851.4 989.4 1852.2 991.25 1853.6 992.6 1855 993.95 1856.95 994.6 1858.85 995.35 1861 995.35 1863.25 995.35 1865.35 994.45 1867.4 993.6 1869.15 991.55
L 1865.65 988.95
Q 1864.75 990 1863.55 990.75 1862.35 991.55 1860.55 991.55 1858.45 991.55 1857.05 990.35 1855.6 989.15 1855.35 986.95
L 1870 986.95 1870 985.6
Q 1870 983.15 1869.35 981.2 1868.65 979.2 1867.45 977.95 1866.35 976.6 1864.65 975.85 1863 975.2 1861 975.2 1858.85 975.2 1856.95 975.95 1855 976.6 1853.6 977.95 1852.2 979.25 1851.4 981.15 1850.55 983 1850.55 985.25
M 1856.95 980
Q 1858.15 978.8 1860.35 978.8 1862.6 978.8 1863.85 980 1865.2 981.25 1865.2 983.35
L 1855.35 983.35
Q 1855.65 981.25 1856.95 980
M 1835.6 964.6
L 1830.8 964.6 1830.8 994.85 1835.6 994.85 1835.6 964.6
M 1819.85 975.95
Q 1817.95 975.2 1815.8 975.2 1813.65 975.2 1811.75 975.95 1809.8 976.6 1808.4 977.95 1807 979.25 1806.2 981.15 1805.35 983 1805.35 985.25 1805.35 987.55 1806.2 989.4 1807 991.25 1808.4 992.6 1809.8 993.95 1811.75 994.6 1813.65 995.35 1815.8 995.35 1817.95 995.35 1819.85 994.6 1821.8 993.95 1823.2 992.6 1824.6 991.25 1825.4 989.4 1826.25 987.55 1826.25 985.25 1826.25 983 1825.4 981.15 1824.6 979.25 1823.2 977.95 1821.8 976.6 1819.85 975.95
M 1810.55 983.15
Q 1810.95 982.05 1811.65 981.25 1812.4 980.45 1813.45 980 1814.45 979.55 1815.8 979.55 1817.15 979.55 1818.15 980 1819.2 980.45 1819.95 981.25 1820.65 982.05 1821.05 983.15 1821.4 984.15 1821.4 985.25 1821.4 986.4 1821.05 987.4 1820.65 988.45 1819.95 989.25 1819.2 990.05 1818.15 990.55 1817.15 991 1815.8 991 1814.45 991 1813.45 990.55 1812.4 990.05 1811.65 989.25 1810.95 988.45 1810.55 987.4 1810.15 986.4 1810.15 985.25 1810.15 984.15 1810.55 983.15
M 1782.55 975.65
L 1782.55 970.15 1777.75 970.15 1777.75 975.65 1773.75 975.65 1773.75 979.75 1777.75 979.75 1777.75 988.55
Q 1777.75 990.25 1778 991.55 1778.2 992.8 1778.95 993.65 1779.65 994.55 1780.85 994.95 1782.05 995.35 1784 995.35
L 1785.95 995.2
Q 1787.05 995.05 1787.8 994.75
L 1787.8 990.65
Q 1787.35 991 1786.6 991.15
L 1785.2 991.25
Q 1783.6 991.25 1783.05 990.4 1782.55 989.6 1782.55 988.15
L 1782.55 979.75 1787.8 979.75 1787.8 975.65 1782.55 975.65
M 1802.05 975.2
Q 1800.2 975.2 1798.65 976.05 1797.2 977.05 1796.4 978.75
L 1796.35 978.75 1796.35 975.65 1791.55 975.65 1791.55 994.85 1796.35 994.85 1796.35 984.6 1796.45 983.4
Q 1796.65 982.6 1797.2 981.8 1797.75 981 1798.8 980.4 1799.8 979.75 1801.45 979.75
L 1803.8 980.15 1803.8 975.45 1802.95 975.25 1802.05 975.2 Z"/>

<path fill="#333333" stroke="none" d="
M 1541.85 652.95
Q 1535.2 652.95 1535.2 659.6
L 1535.2 861
Q 1535.2 867.65 1541.85 867.65
L 1870.2 867.65
Q 1876.85 867.65 1876.85 861
L 1876.85 659.6
Q 1876.85 652.95 1870.2 652.95
L 1541.85 652.95
M 1601.35 730.35
Q 1601.35 714.6 1612.45 703.45 1623.6 692.35 1639.35 692.35 1655.05 692.35 1666.2 703.45 1677.35 714.6 1677.35 730.35 1677.35 740.55 1672.65 748.8 1670.1 753.3 1666.2 757.2 1655.05 768.35 1639.35 768.35 1623.6 768.35 1612.45 757.2 1608.55 753.3 1606.05 748.8 1601.35 740.55 1601.35 730.35
M 1773.95 768.35
Q 1758.2 768.35 1747.05 757.2 1743.15 753.3 1740.65 748.8 1735.95 740.55 1735.95 730.35 1735.95 714.6 1747.05 703.45 1758.2 692.35 1773.95 692.35 1789.65 692.35 1800.8 703.45 1811.95 714.6 1811.95 730.35 1811.95 740.55 1807.25 748.8 1804.7 753.3 1800.8 757.2 1789.65 768.35 1773.95 768.35
M 1760.6 791.85
L 1764.6 791.85 1764.6 817.05 1760.6 817.05 1760.6 791.85
M 1806.35 812.25
L 1809.65 801.05 1813.65 801.05 1808.25 817.05 1804.35 817.05 1800.45 806.15 1797.05 817.05 1792.95 817.05 1787.35 801.05 1791.65 801.05 1795.15 812.25 1795.2 812.25 1798.45 801.05 1802.8 801.05 1806.25 812.25 1806.35 812.25
M 1785.8 809.05
Q 1785.8 810.95 1785.15 812.55 1784.4 814.05 1783.25 815.15 1782.15 816.25 1780.55 816.85 1778.85 817.45 1777.15 817.45 1775.25 817.45 1773.75 816.85 1772.05 816.25 1770.95 815.15 1769.75 814.05 1769.05 812.55 1768.4 810.95 1768.4 809.05 1768.4 807.2 1769.05 805.6 1769.75 804.05 1770.95 803 1772.05 801.85 1773.75 801.25 1775.25 800.65 1777.15 800.65 1778.85 800.65 1780.55 801.25 1782.15 801.85 1783.25 803 1784.4 804.05 1785.15 805.6 1785.8 807.2 1785.8 809.05
M 1756.4 807.25
L 1746 807.25 1746 817.05 1741.8 817.05 1741.8 793.45 1757 793.45 1757 797.25 1746 797.25 1746 803.45 1756.4 803.45 1756.4 807.25
M 1692.8 800.65
Q 1694.35 800.65 1695.45 801.2 1696.6 801.75 1697.25 802.6 1698 803.45 1698.35 804.6 1698.6 805.75 1698.6 806.95
L 1698.6 817.05 1694.6 817.05 1694.55 807.45
Q 1694.45 806.65 1694.2 805.95 1693.95 805.25 1693.35 804.75 1692.75 804.25 1691.65 804.25 1690.65 804.25 1690 804.6 1689.35 804.95 1688.85 805.45 1688.4 806.05 1688.2 806.8 1688 807.55 1688 808.35
L 1688 817.05 1684 817.05 1684 801.05 1687.8 801.05 1687.8 803.65 1687.85 803.65
Q 1688.45 802.45 1689.6 801.55 1690.75 800.65 1692.8 800.65
M 1675 801.25
Q 1676.6 801.85 1677.75 803 1678.85 804.05 1679.6 805.6 1680.25 807.2 1680.25 809.05 1680.25 810.95 1679.6 812.55 1678.85 814.05 1677.75 815.15 1676.6 816.25 1675 816.85 1673.35 817.45 1671.6 817.45 1669.75 817.45 1668.2 816.85 1666.55 816.25 1665.4 815.15 1664.2 814.05 1663.55 812.55 1662.85 810.95 1662.85 809.05 1662.85 807.2 1663.55 805.6 1664.2 804.05 1665.4 803 1666.55 801.85 1668.2 801.25 1669.75 800.65 1671.6 800.65 1673.35 800.65 1675 801.25
M 1658.85 797.35
Q 1658.15 798.05 1657 798.05 1655.95 798.05 1655.2 797.35 1654.55 796.6 1654.55 795.6 1654.55 794.65 1655.2 793.95 1655.95 793.25 1657 793.25 1658.15 793.25 1658.85 793.95 1659.65 794.6 1659.65 795.6 1659.65 796.65 1658.85 797.35
M 1655.05 801.05
L 1659.05 801.05 1659.05 817.05 1655.05 817.05 1655.05 801.05
M 1643.4 796.4
L 1647.4 796.4 1647.4 801.05 1651.8 801.05 1651.8 804.45 1647.4 804.45 1647.4 811.45
Q 1647.4 812.65 1647.85 813.4 1648.35 814.05 1649.65 814.05
L 1650.85 813.95
Q 1651.45 813.8 1651.8 813.6
L 1651.8 816.95
Q 1651.2 817.2 1650.25 817.35
L 1648.65 817.45
Q 1647.05 817.45 1646.05 817.15 1645.05 816.8 1644.45 816.05 1643.85 815.35 1643.65 814.25 1643.4 813.2 1643.4 811.8
L 1643.4 804.45 1640.15 804.45 1640.15 801.05 1643.4 801.05 1643.4 796.4
M 1633.85 800.65
Q 1635.4 800.65 1636.95 801.25 1638.45 801.8 1639.65 803.15
L 1636.85 805.85
Q 1636.2 805.15 1635.4 804.65 1634.65 804.25 1633.85 804.25 1632.75 804.25 1631.85 804.65 1631 805.05 1630.4 805.75 1629.8 806.4 1629.45 807.25 1629.15 808.15 1629.15 809.05 1629.15 810 1629.45 810.85 1629.8 811.75 1630.4 812.4 1631 813.05 1631.85 813.45 1632.75 813.85 1633.85 813.85 1634.8 813.85 1635.55 813.45 1636.35 813.05 1636.95 812.35
L 1639.6 815.2
Q 1639 815.8 1638.2 816.25
L 1636.65 817 1633.85 817.45
Q 1632 817.45 1630.45 816.85 1628.8 816.25 1627.65 815.15 1626.45 814.05 1625.8 812.55 1625.15 810.95 1625.15 809.05 1625.15 807.2 1625.8 805.6 1626.45 804.05 1627.65 803 1628.8 801.85 1630.45 801.25 1632 800.65 1633.85 800.65
M 1621.95 795.6
Q 1621.95 796.65 1621.15 797.35 1620.4 798.05 1619.25 798.05 1618.2 798.05 1617.45 797.35 1616.8 796.6 1616.8 795.6 1616.8 794.65 1617.45 793.95 1618.2 793.25 1619.25 793.25 1620.4 793.25 1621.15 793.95 1621.95 794.6 1621.95 795.6
M 1621.35 801.05
L 1621.35 817.05 1617.35 817.05 1617.35 801.05 1621.35 801.05
M 1610.35 801.4
Q 1611.55 800.65 1613.15 800.65
L 1614.6 800.95 1614.6 804.75 1612.6 804.45
Q 1611.2 804.45 1610.4 805 1609.55 805.45 1609.05 806.15 1608.6 806.8 1608.45 807.45
L 1608.35 808.55 1608.35 817.05 1604.35 817.05 1604.35 801.05 1608.35 801.05 1608.35 803.6 1608.4 803.6
Q 1609.05 802.2 1610.35 801.4
M 1600.8 793.45
L 1600.8 797.25 1589.8 797.25 1589.8 803.45 1600.2 803.45 1600.2 807.25 1589.8 807.25 1589.8 817.05 1585.6 817.05 1585.6 793.45 1600.8 793.45
M 1668.15 805.75
Q 1667.55 806.4 1667.2 807.25 1666.85 808.15 1666.85 809.05 1666.85 810 1667.2 810.85 1667.55 811.75 1668.15 812.4 1668.75 813.05 1669.6 813.45 1670.45 813.85 1671.6 813.85 1672.65 813.85 1673.55 813.45 1674.4 813.05 1675 812.4 1675.6 811.75 1675.95 810.85 1676.25 810 1676.25 809.05 1676.25 808.15 1675.95 807.25 1675.6 806.4 1675 805.75 1674.4 805.05 1673.55 804.65 1672.65 804.25 1671.6 804.25 1670.45 804.25 1669.6 804.65 1668.75 805.05 1668.15 805.75
M 1780.55 805.75
Q 1779.95 805.05 1779.05 804.65 1778.2 804.25 1777.15 804.25 1776 804.25 1775.15 804.65 1774.25 805.05 1773.65 805.75 1773.05 806.4 1772.75 807.25 1772.4 808.15 1772.4 809.05 1772.4 810 1772.75 810.85 1773.05 811.75 1773.65 812.4 1774.25 813.05 1775.15 813.45 1776 813.85 1777.15 813.85 1778.2 813.85 1779.05 813.45 1779.95 813.05 1780.55 812.4 1781.15 811.75 1781.45 810.85 1781.8 810 1781.8 809.05 1781.8 808.15 1781.45 807.25 1781.15 806.4 1780.55 805.75 Z"/>
</g>
</g>

<g>
<path stroke="#FF0000" stroke-width="1" stroke-linejoin="round" stroke-linecap="round" fill="none" d="
M 1181.85 406.4
Q 1181.85 422.15 1170.75 433.25 1159.6 444.4 1143.85 444.4 1128.15 444.4 1117 433.25 1105.85 422.15 1105.85 406.4 1105.85 390.65 1117 379.55 1128.15 368.4 1143.85 368.4 1159.6 368.4 1170.75 379.55 1181.85 390.65 1181.85 406.4 Z
M 811.75 409.6
Q 811.75 425.35 800.6 436.45 789.45 447.6 773.75 447.6 758 447.6 746.85 436.45 735.75 425.35 735.75 409.6 735.75 393.85 746.85 382.75 758 371.6 773.75 371.6 789.45 371.6 800.6 382.75 811.75 393.85 811.75 409.6 Z
M 912 570
Q 912 585.75 900.85 596.85 889.75 608 874 608 858.25 608 847.15 596.85 836 585.75 836 570 836 554.25 847.15 543.15 858.25 532 874 532 889.75 532 900.85 543.15 912 554.25 912 570 Z
M 1026 570
Q 1026 585.75 1014.85 596.85 1003.75 608 988 608 972.25 608 961.15 596.85 950 585.75 950 570 950 554.25 961.15 543.15 972.25 532 988 532 1003.75 532 1014.85 543.15 1026 554.25 1026 570 Z
M 711.35 567.95
Q 711.35 582.05 701.35 592.15 691.25 602.15 677.15 602.15 663 602.15 652.95 592.15 642.95 582.05 642.95 567.95 642.95 553.8 652.95 543.75 663 533.75 677.15 533.75 691.25 533.75 701.35 543.75 711.35 553.8 711.35 567.95 Z
M 813.95 567.95
Q 813.95 582.05 803.95 592.15 793.85 602.15 779.75 602.15 765.6 602.15 755.55 592.15 745.55 582.05 745.55 567.95 745.55 553.8 755.55 543.75 765.6 533.75 779.75 533.75 793.85 533.75 803.95 543.75 813.95 553.8 813.95 567.95 Z
M 904.6 654.75
Q 904.6 669.75 894 680.25 883.45 690.85 868.45 690.85 853.55 690.85 843 680.25 832.4 669.75 832.4 654.75 832.4 639.8 843 629.25 853.55 618.65 868.45 618.65 883.45 618.65 894 629.25 904.6 639.8 904.6 654.75 Z
M 1012.85 654.75
Q 1012.85 669.75 1002.35 680.25 991.75 690.85 976.8 690.85 961.85 690.85 951.25 680.25 940.65 669.75 940.65 654.75 940.65 639.8 951.25 629.25 961.85 618.65 976.8 618.65 991.75 618.65 1002.35 629.25 1012.85 639.8 1012.85 654.75 Z
M 883.95 760.55
Q 883.95 776.25 872.8 787.4 861.65 798.55 845.95 798.55 830.2 798.55 819.05 787.4 807.95 776.25 807.95 760.55 807.95 744.8 819.05 733.65 830.2 722.55 845.95 722.55 861.65 722.55 872.8 733.65 883.95 744.8 883.95 760.55 Z
M 840.35 760.05
Q 840.35 762.05 838.85 763.45 837.45 764.95 835.45 764.95 833.45 764.95 832 763.45 830.6 762.05 830.6 760.05 830.6 758.05 832 756.6 833.45 755.2 835.45 755.2 837.45 755.2 838.85 756.6 840.35 758.05 840.35 760.05 Z
M 859.55 759.75
Q 859.55 761.75 858.05 763.15 856.65 764.6 854.65 764.6 852.65 764.6 851.2 763.15 849.8 761.75 849.8 759.75 849.8 757.75 851.2 756.25 852.65 754.85 854.65 754.85 856.65 754.85 858.05 756.25 859.55 757.75 859.55 759.75 Z
M 997.95 760.55
Q 997.95 776.25 986.8 787.4 975.65 798.55 959.95 798.55 944.2 798.55 933.05 787.4 921.95 776.25 921.95 760.55 921.95 744.8 933.05 733.65 944.2 722.55 959.95 722.55 975.65 722.55 986.8 733.65 997.95 744.8 997.95 760.55 Z
M 974.15 759.6
Q 974.15 761.6 972.65 763 971.25 764.45 969.25 764.45 967.25 764.45 965.8 763 964.4 761.6 964.4 759.6 964.4 757.6 965.8 756.15 967.25 754.75 969.25 754.75 971.25 754.75 972.65 756.15 974.15 757.6 974.15 759.6 Z
M 954.95 759.95
Q 954.95 761.95 953.45 763.35 952.05 764.8 950.05 764.8 948.05 764.8 946.6 763.35 945.2 761.95 945.2 759.95 945.2 757.95 946.6 756.45 948.05 755.05 950.05 755.05 952.05 755.05 953.45 756.45 954.95 757.95 954.95 759.95 Z
M 1438.35 731.75
Q 1438.35 741.5 1432.4 748.8 1431.4 750.05 1430.2 751.2 1422.15 759.25 1410.75 759.25 1399.35 759.25 1391.2 751.2 1390.05 750.05 1389.05 748.8 1383.15 741.5 1383.15 731.75 1383.15 720.25 1391.2 712.2 1399.35 704.15 1410.75 704.15 1422.15 704.15 1430.2 712.2 1438.35 720.25 1438.35 731.75 Z
M 1677.35 730.35
Q 1677.35 740.55 1672.65 748.8 1670.1 753.3 1666.2 757.2 1655.05 768.35 1639.35 768.35 1623.6 768.35 1612.45 757.2 1608.55 753.3 1606.05 748.8 1601.35 740.55 1601.35 730.35 1601.35 714.6 1612.45 703.45 1623.6 692.35 1639.35 692.35 1655.05 692.35 1666.2 703.45 1677.35 714.6 1677.35 730.35 Z
M 1811.95 730.35
Q 1811.95 740.55 1807.25 748.8 1804.7 753.3 1800.8 757.2 1789.65 768.35 1773.95 768.35 1758.2 768.35 1747.05 757.2 1743.15 753.3 1740.65 748.8 1735.95 740.55 1735.95 730.35 1735.95 714.6 1747.05 703.45 1758.2 692.35 1773.95 692.35 1789.65 692.35 1800.8 703.45 1811.95 714.6 1811.95 730.35 Z
M 999.75 851.75
Q 999.75 867.45 988.6 878.6 977.45 889.75 961.75 889.75 946 889.75 934.85 878.6 923.75 867.45 923.75 851.75 923.75 836 934.85 824.85 946 813.75 961.75 813.75 977.45 813.75 988.6 824.85 999.75 836 999.75 851.75 Z
M 975.95 850.8
Q 975.95 852.8 974.45 854.2 973.05 855.65 971.05 855.65 969.05 855.65 967.6 854.2 966.2 852.8 966.2 850.8 966.2 848.8 967.6 847.35 969.05 845.95 971.05 845.95 973.05 845.95 974.45 847.35 975.95 848.8 975.95 850.8 Z
M 976.25 944.65
Q 976.25 946.65 974.8 948.05 973.4 949.55 971.4 949.55 969.4 949.55 967.95 948.05 966.55 946.65 966.55 944.65 966.55 942.65 967.95 941.2 969.4 939.8 971.4 939.8 973.4 939.8 974.8 941.2 976.25 942.65 976.25 944.65 Z
M 1000.05 945.6
Q 1000.05 961.35 988.95 972.45 977.8 983.6 962.05 983.6 946.35 983.6 935.2 972.45 924.05 961.35 924.05 945.6 924.05 929.85 935.2 918.75 946.35 907.6 962.05 907.6 977.8 907.6 988.95 918.75 1000.05 929.85 1000.05 945.6 Z
M 976.8 1035.35
Q 976.8 1037.35 975.35 1038.75 973.95 1040.2 971.95 1040.2 969.95 1040.2 968.45 1038.75 967.05 1037.35 967.05 1035.35 967.05 1033.35 968.45 1031.85 969.95 1030.45 971.95 1030.45 973.95 1030.45 975.35 1031.85 976.8 1033.35 976.8 1035.35 Z
M 1000.6 1036.25
Q 1000.6 1052 989.45 1063.15 978.35 1074.25 962.6 1074.25 946.85 1074.25 935.75 1063.15 924.6 1052 924.6 1036.25 924.6 1020.55 935.75 1009.4 946.85 998.25 962.6 998.25 978.35 998.25 989.45 1009.4 1000.6 1020.55 1000.6 1036.25 Z
M 956.75 851.15
Q 956.75 853.15 955.25 854.55 953.85 856 951.85 856 949.85 856 948.4 854.55 947 853.15 947 851.15 947 849.15 948.4 847.65 949.85 846.25 951.85 846.25 953.85 846.25 955.25 847.65 956.75 849.15 956.75 851.15 Z
M 885.75 851.75
Q 885.75 867.45 874.6 878.6 863.45 889.75 847.75 889.75 832 889.75 820.85 878.6 809.75 867.45 809.75 851.75 809.75 836 820.85 824.85 832 813.75 847.75 813.75 863.45 813.75 874.6 824.85 885.75 836 885.75 851.75 Z
M 842.15 851.25
Q 842.15 853.25 840.65 854.65 839.25 856.15 837.25 856.15 835.25 856.15 833.8 854.65 832.4 853.25 832.4 851.25 832.4 849.25 833.8 847.8 835.25 846.4 837.25 846.4 839.25 846.4 840.65 847.8 842.15 849.25 842.15 851.25 Z
M 861.35 850.95
Q 861.35 852.95 859.85 854.35 858.45 855.8 856.45 855.8 854.45 855.8 853 854.35 851.6 852.95 851.6 850.95 851.6 848.95 853 847.45 854.45 846.05 856.45 846.05 858.45 846.05 859.85 847.45 861.35 848.95 861.35 850.95 Z
M 886.05 945.6
Q 886.05 961.35 874.95 972.45 863.8 983.6 848.05 983.6 832.35 983.6 821.2 972.45 810.05 961.35 810.05 945.6 810.05 929.85 821.2 918.75 832.35 907.6 848.05 907.6 863.8 907.6 874.95 918.75 886.05 929.85 886.05 945.6 Z
M 842.45 945.15
Q 842.45 947.15 841 948.55 839.6 950 837.6 950 835.6 950 834.15 948.55 832.75 947.15 832.75 945.15 832.75 943.15 834.15 941.65 835.6 940.25 837.6 940.25 839.6 940.25 841 941.65 842.45 943.15 842.45 945.15 Z
M 861.65 944.8
Q 861.65 946.8 860.2 948.2 858.8 949.65 856.8 949.65 854.8 949.65 853.35 948.2 851.95 946.8 851.95 944.8 851.95 942.8 853.35 941.35 854.8 939.95 856.8 939.95 858.8 939.95 860.2 941.35 861.65 942.8 861.65 944.8 Z
M 957.05 945
Q 957.05 947 955.6 948.4 954.2 949.85 952.2 949.85 950.2 949.85 948.75 948.4 947.35 947 947.35 945 947.35 943 948.75 941.55 950.2 940.15 952.2 940.15 954.2 940.15 955.6 941.55 957.05 943 957.05 945 Z
M 957.6 1035.65
Q 957.6 1037.65 956.15 1039.05 954.75 1040.55 952.75 1040.55 950.75 1040.55 949.25 1039.05 947.85 1037.65 947.85 1035.65 947.85 1033.65 949.25 1032.2 950.75 1030.8 952.75 1030.8 954.75 1030.8 956.15 1032.2 957.6 1033.65 957.6 1035.65 Z
M 862.2 1035.45
Q 862.2 1037.45 860.75 1038.85 859.35 1040.35 857.35 1040.35 855.35 1040.35 853.85 1038.85 852.45 1037.45 852.45 1035.45 852.45 1033.45 853.85 1032 855.35 1030.6 857.35 1030.6 859.35 1030.6 860.75 1032 862.2 1033.45 862.2 1035.45 Z
M 886.6 1036.25
Q 886.6 1052 875.45 1063.15 864.35 1074.25 848.6 1074.25 832.85 1074.25 821.75 1063.15 810.6 1052 810.6 1036.25 810.6 1020.55 821.75 1009.4 832.85 998.25 848.6 998.25 864.35 998.25 875.45 1009.4 886.6 1020.55 886.6 1036.25 Z
M 843 1035.8
Q 843 1037.8 841.55 1039.2 840.15 1040.65 838.15 1040.65 836.15 1040.65 834.65 1039.2 833.25 1037.8 833.25 1035.8 833.25 1033.8 834.65 1032.35 836.15 1030.95 838.15 1030.95 840.15 1030.95 841.55 1032.35 843 1033.8 843 1035.8 Z"/>
</g>

<g>
<path stroke="#000000" stroke-width="1" stroke-linejoin="round" stroke-linecap="round" fill="none" d="
M 1541.85 652.95
L 1870.2 652.95
Q 1876.85 652.95 1876.85 659.6
L 1876.85 861
Q 1876.85 867.65 1870.2 867.65
L 1541.85 867.65
Q 1535.2 867.65 1535.2 861
L 1535.2 659.6
Q 1535.2 652.95 1541.85 652.95 Z"/>
</g>

<g>
<path stroke="#000000" stroke-width="3" stroke-linejoin="round" stroke-linecap="round" fill="none" d="
M 1303.2 606
L 1942.55 606
Q 1949.2 606 1949.2 612.95
L 1949.2 1051.4
Q 1949.2 1057.4 1944.15 1058.2 1943.4 1058.35 1942.55 1058.35
L 1303.2 1058.35
Q 1296.55 1058.35 1296.55 1051.4
L 1296.55 612.95
Q 1296.55 606 1303.2 606 Z"/>
</g>
</g>
</g>

<g id="Layer_3">
<g>
<g>
<g>
<path fill="#0000FF" stroke="none" d="
M 1046.35 848.15
Q 1046.2 844.85 1046.35 850.25 1046.4 852.75 1046.55 855.15 1046.4 850.85 1046.35 848.15
M 72.35 341.25
Q 72.2 338 72.35 343.4 72.4 345.85 72.55 348.25 72.4 344 72.35 341.25
M 393.65 345
L 393.6 344.05
Q 393.56875 342.7625 393.65 347.15 393.75 349.6 393.85 352 393.75 347.75 393.65 345 Z"/>
</g>
</g>

<g>
<path stroke="#FF0000" stroke-width="1" stroke-linejoin="round" stroke-linecap="round" fill="none" d="
M 1271.75 1094.65
Q 1271.45 1094.65 1268.05 1095.05 1264.65 1095.45 1259.95 1095.85 1248.55 1096.95 1237.55 1097.05 1236.35 1097.05 1235.2 1097.1 1177.95 1097.35 1132.8 1073.15 1107.5 1059.6 1085.95 1038.35 1078.05 1030.6 1070.75 1021.95 1058.55 1003.95 1049.05 985.6 1046 979.75 1043.2 973.85 1037.05 960.8 1032.2 947.6 1031.55 945.8 1030.9 944 1024.7 926.45 1020.8 908.55 1015.7 885.05 1014.6 861 1014.4 855.75 1014.35 852.35 1013.55 818.4 1013.95 805.4 1013.95 805.15 1013.95 804.85 1014.65 776.8 1020.8 749.45 1022.7 741.1 1025.05 732.8 1032 708.7 1043.2 685.2 1046.35 678.55 1049.85 672 1058.95 654.9 1070.35 638.05 1073.35 634.45 1076.45 631.05 1101.8 603.05 1132.8 586.55 1152.45 576.05 1174.4 570.2 1202.9 562.6 1235.2 562.8 1252.65 562.9 1271.25 565.25
M 1046.35 848.15
Q 1045.75 819.95 1046 809.55 1046.05 807.4 1046.15 805.4 1047.6 768.35 1059.85 732.8 1070.25 702.6 1088.45 673.55 1089.05 672.75 1089.7 672 1108.95 647.6 1132.8 633.2 1134.6 632.1 1136.45 631.05 1154.2 621 1174.4 616.3 1202.45 609.8 1235.2 613.7 1237.45 613.95 1239.75 614.25
L 1240.05 1045.55
Q 1239.85 1045.55 1239.75 1045.6 1237.45 1045.9 1235.2 1046.2 1233.2 1046.4 1231.2 1046.6 1190.6 1050.55 1157.45 1038.35 1144.55 1033.6 1132.8 1026.45 1108.4 1011.6 1088.8 986.25 1088.6 985.95 1088.4 985.6 1076.7 966.85 1068.25 947.6 1067.45 945.8 1066.7 944 1048.45 900.85 1046.55 855.15 1046.4 852.75 1046.35 850.25 1046.2 844.85 1046.35 848.15 1046.4 850.85 1046.55 855.15
M 362 349.2
Q 361.2 315.25 361.6 302.25 361.6 302 361.6 301.75 363.8 214.85 418 134.95 421 131.35 424.15 127.95 497.65 46.65 618.95 62.15
L 619.4 591.55
Q 619.15 591.55 615.75 591.95 612.35 592.35 607.6 592.75 596.2 593.8 585.2 593.95 494.35 595.15 433.6 535.2 425.75 527.45 418.4 518.8 393.75 482.25 379.85 444.45 364.25 402.05 362.25 357.85 362.05 352.6 362 349.2 Z
M 393.625 344.075
Q 393.0548828125 316.63046875 393.35 306.4 393.4 304.25 393.45 302.25 396.2 233.75 435.8 170.4 457 143.05 483.8 127.95 527.85 102.95 587.05 111.15
L 587.4 542.4
Q 587.2 542.4 587.05 542.45 582.75 543.05 578.55 543.45 537.95 547.4 504.8 535.2 465.2 520.65 436.15 483.15 424.2 464.05 415.6 444.45 395.85 399.6 393.85 352 393.75 349.6 393.65 347.15 393.56875 342.7625 393.625 344.075
L 393.65 345
Q 393.75 347.75 393.85 352
M 72.35 341.25
Q 71.75 313.05 72 302.65 72.05 300.55 72.15 298.55 74.85 230 114.45 166.65 135.65 139.35 162.45 124.2 206.55 99.2 265.75 107.4
L 266.05 538.65
Q 265.85 538.65 265.75 538.75 261.4 539.35 257.2 539.75 216.6 543.65 183.45 531.45 143.85 516.95 114.8 479.4 102.85 460.35 94.25 440.75 74.55 395.85 72.55 348.25 72.4 345.85 72.35 343.4 72.2 338 72.35 341.25 72.4 344 72.55 348.25
M 40.65 345.45
Q 39.85 311.55 40.25 298.55 40.25 298.25 40.25 298 42.45 211.15 96.65 131.2 99.65 127.6 102.8 124.2 176.35 42.95 297.6 58.4
L 298.05 587.8
Q 297.8 587.8 294.4 588.2 291 588.6 286.25 589 274.85 590.05 263.85 590.2 173 591.4 112.25 531.45 104.4 523.75 97.05 515.05 72.4 478.55 58.55 440.75 42.95 398.35 40.95 354.15 40.75 348.85 40.65 345.45 Z"/>
</g>
</g>
</g>

<g id="Layer_2"/>

<g id="Layer_1">
<g>
<g>
<g>
<path fill="#0000FF" stroke="none" d="
M 1577.75 274.45
L 1577.75 278.6 1585.85 278.6 1585.85 312.35
Q 1585.85 329.65 1602.35 329.65
L 1602.6 329.65
Q 1604 329.65 1604.8 329.55
L 1607.2 329.25
Q 1608.75 329 1610.35 328.55
L 1611.35 328.15 1611.35 321.55 1611.2 321.6
Q 1609.35 322.05 1607.95 322.25
L 1607.65 322.35
Q 1605.85 322.6 1603.55 322.6
L 1601.8 322.45
Q 1598.85 322.05 1596.85 319.85 1596.25 319.15 1595.65 318 1595.05 316.85 1594.75 315 1594.45 313.65 1594.45 312
L 1594.45 278.6 1610.95 278.6 1610.95 271.95 1594.45 271.95 1594.45 258.8 1589.45 258.8 1585.85 270.95 1577.75 274.45
M 1563.2 278.8
Q 1558.95 274 1552.75 272.05 1548.55 270.85 1544.25 270.95 1541.05 270.95 1538.25 271.4 1530.25 272.75 1525 278.65 1518.05 286.4 1518.05 300.25 1518.05 303.6 1518.6 307.2 1519.45 311.95 1521.25 315.85
L 1521.95 317.05
Q 1524.85 322.75 1530.4 326.15 1533.25 327.8 1535.85 328.55 1539.85 329.8 1543.95 329.65 1547 329.65 1549.75 329.2 1557.75 328 1563.2 321.85 1567.8 316.8 1569.4 308.85 1570.2 304.6 1570.2 300.25 1570.2 294.75 1569 290.15 1567.45 283.8 1563.2 278.8
M 1556.95 283.8
Q 1558.65 286.15 1559.45 288.55 1561.25 293.35 1561.25 300.25 1561.25 306.8 1559.8 311.25 1558.75 314.4 1556.95 316.8 1554.05 320.6 1549.4 321.85 1546.4 322.55 1544.15 322.45 1542.55 322.55 1540.55 322.2 1534.85 321.4 1531.35 316.8 1529.75 314.75 1528.8 312.2 1527.95 309.6 1527.4 306.45 1527 303.4 1527 300.25 1527 293.8 1528.55 289.05 1529.4 286.2 1531.25 283.75 1534.25 279.95 1538.95 278.8 1541.45 278.2 1544 278.2 1546.15 278.2 1548.15 278.6 1553.45 279.55 1556.95 283.8
M 1456.35 248.15
L 1456.35 328.65 1462.45 328.65 1464.25 321.35 1464.95 321.35
Q 1467.85 325.55 1472.6 327.65 1474.8 328.6 1476.15 328.85 1479.35 329.65 1482.75 329.65 1484.6 329.65 1485.55 329.55 1489.8 329.25 1493.6 327.25 1497.35 325.25 1500 321.95 1501.95 319.6 1503.15 316.85 1504.8 313.4 1505.6 308.75 1506.25 304.75 1506.25 300.25 1506.25 298.4 1506 294.95 1505.6 290.85 1504.45 287.2 1503.2 282.65 1500.05 278.65 1496.2 273.75 1490.05 272 1486.45 271 1482.75 271 1471 271 1464.95 279.45
L 1464.45 279.45 1464.95 248.15 1456.35 248.15
M 1468.8 283.25
Q 1470.15 281.45 1472.15 280.35 1475.8 278.2 1481.45 278.2 1483.45 278.2 1485.45 278.6 1490.45 279.55 1493.45 283.65 1497.35 289 1497.35 300.15 1497.35 303.55 1497 305.95 1496.75 308.6 1495.95 311.45 1495 314.35 1493.45 316.75 1491 320.55 1486.55 321.85 1483.8 322.55 1481.65 322.45 1477.85 322.45 1475.2 321.6 1471.25 320.4 1468.85 317.35
L 1467.8 315.65
Q 1464.95 310.4 1464.95 300.25
L 1464.95 297.45
Q 1465.25 291.15 1466.65 287.35 1467.4 285.05 1468.8 283.25
M 1631.85 278.6
L 1648.35 278.6 1648.35 271.95 1631.85 271.95 1631.85 258.8 1626.85 258.8 1623.25 270.95 1615.15 274.45 1615.15 278.6 1623.25 278.6 1623.25 312.35
Q 1623.25 329.65 1639.75 329.65
L 1640 329.65
Q 1641.4 329.65 1642.2 329.55
L 1644.6 329.25
Q 1646.15 329 1647.75 328.55
L 1648.75 328.15 1648.75 321.55 1648.6 321.6
Q 1646.75 322.05 1645.4 322.25
L 1645.15 322.35
Q 1643.25 322.6 1641 322.6
L 1639.2 322.45
Q 1636.25 322.05 1634.25 319.85 1633.65 319.15 1633.05 318 1632.45 316.85 1632.15 315 1631.85 313.65 1631.85 312
L 1631.85 278.6
M 1707.85 290.15
Q 1706.4 283.95 1702 278.8 1697.75 274 1691.55 272.05 1687.35 270.85 1683.05 270.95 1679.85 270.95 1677.05 271.4 1669.2 272.75 1663.85 278.65 1656.95 286.25 1656.95 300.25 1656.85 303.65 1657.45 307.2 1658.2 311.95 1660.15 315.85
L 1660.75 317.05
Q 1663.85 322.85 1669.2 326.15 1672.15 327.8 1674.75 328.55 1678.75 329.75 1682.75 329.65 1685.8 329.65 1688.55 329.2 1696.65 327.95 1702 321.85 1706.75 316.8 1708.2 308.85 1709 304.6 1709 300.25 1709 294.85 1707.85 290.15
M 1670.05 283.75
Q 1673.05 279.95 1677.75 278.8 1680.25 278.2 1682.8 278.2 1684.95 278.2 1686.95 278.6 1692.25 279.55 1695.75 283.8 1697.4 286.05 1698.35 288.55 1700.15 293.35 1700.15 300.25 1700.15 306.55 1698.6 311.25 1697.75 314.2 1695.75 316.8 1692.85 320.6 1688.2 321.85 1685.2 322.55 1682.95 322.45 1681.45 322.55 1679.35 322.2 1673.65 321.4 1670.15 316.8 1668.65 314.85 1667.65 312.2 1666.75 309.8 1666.2 306.45 1665.8 303.4 1665.8 300.25 1665.8 293.8 1667.35 289.05 1668.2 286.2 1670.05 283.75
M 1732.45 279.75
L 1731.05 271.95 1724.05 271.95 1724.05 328.65 1732.65 328.65 1732.65 298.95
Q 1732.65 287.95 1736.4 283.05 1739 279.65 1743.8 278.65 1745.85 278.2 1748.2 278.2
L 1749.8 278.25
Q 1751.4 278.35 1753.15 278.95 1755.65 279.65 1757.25 281.6 1759.35 283.95 1759.95 288.05 1760.2 290.45 1760.2 291.75
L 1760.2 328.65 1768.75 328.65 1768.75 296.95
Q 1768.85 287.35 1772.6 282.8 1775.35 279.55 1779.95 278.65 1782 278.2 1784.45 278.2 1787.25 278.2 1789.25 278.85 1791.8 279.75 1793.45 281.6 1795.45 284 1796.05 288.05 1796.35 289.65 1796.35 291.75
L 1796.35 328.65 1804.95 328.65 1804.95 291.65
Q 1804.95 289.2 1804.6 286.2 1803.6 279.45 1800.15 275.85 1796.85 272.4 1791.15 271.4 1788.15 270.85 1785.75 270.95 1783.75 270.95 1782.75 271.05 1778.75 271.45 1774.8 273.45
L 1774.2 273.8
Q 1769.85 276.2 1767.4 280.55
L 1767 280.55
Q 1765.55 276.95 1762.55 274.6 1759.85 272.55 1755.95 271.6 1752.6 270.85 1749.6 270.95
L 1747.8 271
Q 1743.35 271.35 1739.75 273.25 1735.25 275.55 1732.85 279.75
L 1732.45 279.75
M 424.65 731.35
Q 424.35 732.7 424.35 734.45 424.35 739.35 426.75 742.15 428.5 744.05 430.75 744.5 431.95 744.85 433.55 744.85
L 434.45 744.85
Q 436.9 744.75 438.7 743.75
L 438.7 741.1
Q 435.9 742.15 433.5 742.15
L 432.25 742.05
Q 430.3 741.7 429.05 740.15 428.45 739.3 428.15 738.55 427.75 737.35 427.7 736.55 427.5 735.45 427.55 734.45 427.55 728.55 430.95 727.05 432.35 726.5 433.7 726.5
L 433.95 726.55
Q 434.85 726.55 435.85 726.75
L 438.1 727.5 439.05 724.85 438.95 724.85
Q 438.05 724.35 436.7 724.1 435.45 723.85 433.75 723.85 432.3 723.85 431.15 724.1 428.55 724.65 426.85 726.55 426.15 727.3 425.65 728.3 424.9 729.7 424.65 731.35
M 450.95 732.85
L 459.25 724.15 455.55 724.15 446.55 734.1 446.45 734.1 446.55 715.65 443.55 715.65 443.55 744.5 446.55 744.5 446.55 736.9 448.9 734.9 456.05 744.5 459.75 744.5 450.95 732.85
M 403.65 735.9
Q 402.75 737.3 402.85 738.85 402.85 741.7 404.55 743.3
L 405.3 743.85
Q 406.15 744.45 407.35 744.65 408.35 744.85 409.3 744.85 410.55 744.85 411.65 744.65 412.25 744.55 413.1 744.15 413.9 743.85 415.1 742.75
L 416.1 741.55 416.25 741.55 416.85 744.5 419.15 744.5 419.05 729.15
Q 418.95 728.15 418.65 727.35 418.25 726.15 417.35 725.45 416.25 724.35 413.95 723.95
L 412.05 723.85
Q 410.45 723.85 408.45 724.3
L 407.9 724.45
Q 406.25 724.95 405.15 725.55
L 406.1 727.95 407.3 727.35
Q 409.85 726.35 411.85 726.35
L 413.85 726.7
Q 414.5 726.9 415.1 727.5
L 415.75 728.55
Q 416.15 729.55 416.15 731.05
L 416.15 732.3 412.7 732.45
Q 408.3 732.55 405.9 733.85 404.45 734.5 403.65 735.9
M 409.9 742.3
L 409.45 742.3
Q 408.9 742.3 408.35 742.1 407.5 741.85 407.1 741.45
L 406.9 741.25
Q 406.3 740.55 406.15 739.9
L 406.1 738.9 406.15 738.15
Q 406.35 736.55 407.7 735.75 409.35 734.75 412.95 734.65
L 416.1 734.5 416.1 736.35
Q 416.1 737.1 415.85 738.15 415.55 739.7 414.45 740.75
L 413.95 741.15
Q 413.05 741.9 411.75 742.1 410.9 742.3 409.9 742.3
M 384.25 715.65
L 381.15 715.65 381.15 744.5 383.35 744.5 383.95 741.85 384.25 741.85
Q 385.3 743.45 386.95 744.1
L 388.25 744.55
Q 389.3 744.85 390.55 744.85 391.25 744.85 391.65 744.75 394.85 744.55 396.75 742.1 397.55 741.1 397.9 740.25 399.05 737.75 399.05 734.3 399.05 731.55 398.35 729.65 397.9 727.95 396.75 726.55 395.5 724.9 393.25 724.15 391.75 723.85 390.55 723.85
L 389.3 723.9
Q 385.95 724.25 384.25 726.9
L 384.05 726.9
Q 384.25 725.05 384.25 722.65
L 384.25 715.65
M 384.3 736.45
L 384.25 733.3
Q 384.35 731.1 384.85 729.7 385.15 728.75 385.65 728.25 386.1 727.55 386.75 727.15 388.1 726.45 390.15 726.45 391.1 726.45 391.55 726.55 393.35 726.9 394.45 728.35 395.45 729.7 395.7 732.25
L 395.85 734.3
Q 395.85 738.15 394.45 740.25 392.95 742.3 390.25 742.3
L 389.55 742.25
Q 388.95 742.25 387.9 741.95 386.55 741.55 385.65 740.45
L 385.25 739.85
Q 384.5 738.45 384.3 736.45
M 419.5 925.3
Q 418.05 924.9 416.5 924.9
L 414.3 925.1
Q 411.55 925.5 409.55 927.7 408.95 928.3 408.55 929.1 407.1 931.55 407.1 935.35 407.1 936.7 407.3 937.9 407.5 939.5 408.25 940.95
L 408.45 941.45
Q 409.55 943.5 411.5 944.65 412.3 945.15 413.5 945.5 414.85 945.95 416.35 945.95 417.35 945.95 418.45 945.75 421.25 945.35 423.25 943.15
L 424.3 941.75
Q 425.15 940.15 425.45 938.5 425.75 936.85 425.75 935.35 425.75 930.65 423.25 927.7 421.75 926.05 419.5 925.3
M 410.45 937.65
Q 410.3 936.9 410.3 935.35 410.3 934.05 410.45 933.35 410.55 932.25 410.85 931.45 411.1 930.45 411.85 929.5 412.9 928.1 414.55 927.7 415.5 927.5 416.35 927.5 419.5 927.5 420.95 929.5 422.05 930.85 422.45 933.25
L 422.45 937.3
Q 422.15 939.85 420.95 941.35 419.5 943.35 416.45 943.35
L 415.1 943.25
Q 413.1 943.05 411.85 941.3 411.35 940.75 410.95 939.7 410.7 938.95 410.45 937.65
M 447.95 930.55
Q 447.85 929.5 447.55 928.7 447.15 927.55 446.25 926.65 445.65 926.05 444.75 925.7 443.15 924.9 440.7 924.9
L 439.9 924.9
Q 438.3 925.1 436.9 925.7 435.15 926.65 434.3 928.05
L 434.15 928.05 433.65 925.3 431.15 925.3 431.15 945.55 434.25 945.55 434.25 934.25
Q 434.35 931.9 434.85 930.75 435.15 929.85 435.7 929.25 436.7 928.05 438.65 927.65
L 440.35 927.5
Q 441.5 927.5 442.5 927.85 443.35 928.15 443.9 928.7 444.7 929.65 444.9 931.1
L 445.05 932.45 445.05 945.55 448.1 945.55 448.1 932.3 447.95 930.55
M 457.7 920.55
L 455.9 920.55 454.65 924.9 451.7 926.15 451.7 927.65 454.65 927.65 454.65 939.7
Q 454.65 940.95 454.9 941.95 455.85 945.95 460.5 945.95
L 460.65 945.95 462.3 945.75 462.45 945.75 463.75 945.35 463.75 943.05 463.7 943.05 462.95 943.25 462.55 943.3 462.45 943.3 460.95 943.45 460.35 943.35
Q 459.3 943.15 458.55 942.45
L 458.15 941.75
Q 458.1 941.65 457.75 940.7
L 457.7 927.65 463.65 927.65 463.65 925.3 457.7 925.3 457.7 920.55
M 404.45 925.1
L 403.25 924.95
Q 402.85 924.9 402.05 924.9 399.95 924.9 398.5 925.95 397.55 926.65 396.95 927.35 396.25 928.25 395.75 929.05
L 395.65 929.05 395.3 925.3 392.75 925.3 392.75 945.55 395.85 945.55 395.9 933.65
Q 396.1 931.35 397.55 929.7
L 397.85 929.35
Q 399.35 927.7 401.75 927.7
L 403.05 927.75 404.05 927.95 404.45 925.1
M 383.9 925.3
L 383.9 923.5
Q 383.9 921.35 384.7 920.25 385.3 919.5 386.3 919.15
L 388.05 919.1
Q 389.7 919.45 390.3 919.65
L 391.1 917.15 388.75 916.65
Q 388.3 916.55 387.35 916.55 382.15 916.55 381.1 921.25 380.75 922.7 380.75 924.05
L 380.75 925.15 377.15 926.3 377.15 927.65 380.75 927.65 380.75 945.55 383.9 945.55 383.9 927.65 389.05 927.65 389.05 925.3 383.9 925.3 Z"/>
</g>
</g>

<g>
<path stroke="#0000FF" stroke-width="2" stroke-linejoin="miter" stroke-linecap="round" stroke-miterlimit="11" fill="none" d="
M 1804.95 328.65
L 1796.35 328.65 1796.35 291.75
Q 1796.35 289.65 1796.05 288.05 1795.45 284 1793.45 281.6 1791.8 279.75 1789.25 278.85 1787.25 278.2 1784.45 278.2 1782 278.2 1779.95 278.65 1775.35 279.55 1772.6 282.8 1768.85 287.35 1768.75 296.95
L 1768.75 328.65 1760.2 328.65 1760.2 291.75
Q 1760.2 290.45 1759.95 288.05 1759.35 283.95 1757.25 281.6 1755.65 279.65 1753.15 278.95 1751.4 278.35 1749.8 278.25
L 1748.2 278.2
Q 1745.85 278.2 1743.8 278.65 1739 279.65 1736.4 283.05 1732.65 287.95 1732.65 298.95
L 1732.65 328.65 1724.05 328.65 1724.05 271.95 1731.05 271.95 1732.45 279.75 1732.85 279.75
Q 1735.25 275.55 1739.75 273.25 1743.35 271.35 1747.8 271
L 1749.6 270.95
Q 1752.6 270.85 1755.95 271.6 1759.85 272.55 1762.55 274.6 1765.55 276.95 1767 280.55
L 1767.4 280.55
Q 1769.85 276.2 1774.2 273.8
L 1774.8 273.45
Q 1778.75 271.45 1782.75 271.05 1783.75 270.95 1785.75 270.95 1788.15 270.85 1791.15 271.4 1796.85 272.4 1800.15 275.85 1803.6 279.45 1804.6 286.2 1804.95 289.2 1804.95 291.65
L 1804.95 328.65 Z
M 1708.2 308.85
Q 1709 304.6 1709 300.25 1709 294.85 1707.85 290.15 1706.4 283.95 1702 278.8 1697.75 274 1691.55 272.05 1687.35 270.85 1683.05 270.95 1679.85 270.95 1677.05 271.4 1669.2 272.75 1663.85 278.65 1656.95 286.25 1656.95 300.25 1656.85 303.65 1657.45 307.2 1658.2 311.95 1660.15 315.85
L 1660.75 317.05
Q 1663.85 322.85 1669.2 326.15 1672.15 327.8 1674.75 328.55 1678.75 329.75 1682.75 329.65 1685.8 329.65 1688.55 329.2 1696.65 327.95 1702 321.85 1706.75 316.8 1708.2 308.85 Z
M 1648.75 321.55
L 1648.75 328.15 1647.75 328.55
Q 1646.15 329 1644.6 329.25
L 1642.2 329.55
Q 1641.4 329.65 1640 329.65
L 1639.75 329.65
Q 1623.25 329.65 1623.25 312.35
L 1623.25 278.6 1615.15 278.6 1615.15 274.45 1623.25 270.95 1626.85 258.8 1631.85 258.8 1631.85 271.95 1648.35 271.95 1648.35 278.6 1631.85 278.6 1631.85 312
Q 1631.85 313.65 1632.15 315 1632.45 316.85 1633.05 318 1633.65 319.15 1634.25 319.85 1636.25 322.05 1639.2 322.45
L 1641 322.6
Q 1643.25 322.6 1645.15 322.35
L 1645.4 322.25
Q 1646.75 322.05 1648.6 321.6
L 1648.75 321.55 Z
M 1665.8 300.25
Q 1665.8 303.4 1666.2 306.45 1666.75 309.8 1667.65 312.2 1668.65 314.85 1670.15 316.8 1673.65 321.4 1679.35 322.2 1681.45 322.55 1682.95 322.45 1685.2 322.55 1688.2 321.85 1692.85 320.6 1695.75 316.8 1697.75 314.2 1698.6 311.25 1700.15 306.55 1700.15 300.25 1700.15 293.35 1698.35 288.55 1697.4 286.05 1695.75 283.8 1692.25 279.55 1686.95 278.6 1684.95 278.2 1682.8 278.2 1680.25 278.2 1677.75 278.8 1673.05 279.95 1670.05 283.75 1668.2 286.2 1667.35 289.05 1665.8 293.8 1665.8 300.25 Z
M 1464.95 321.35
L 1464.25 321.35 1462.45 328.65 1456.35 328.65 1456.35 248.15 1464.95 248.15 1464.45 279.45 1464.95 279.45
Q 1471 271 1482.75 271 1486.45 271 1490.05 272 1496.2 273.75 1500.05 278.65 1503.2 282.65 1504.45 287.2 1505.6 290.85 1506 294.95 1506.25 298.4 1506.25 300.25 1506.25 304.75 1505.6 308.75 1504.8 313.4 1503.15 316.85 1501.95 319.6 1500 321.95 1497.35 325.25 1493.6 327.25 1489.8 329.25 1485.55 329.55 1484.6 329.65 1482.75 329.65 1479.35 329.65 1476.15 328.85 1474.8 328.6 1472.6 327.65 1467.85 325.55 1464.95 321.35 Z
M 1569.4 308.85
Q 1570.2 304.6 1570.2 300.25 1570.2 294.75 1569 290.15 1567.45 283.8 1563.2 278.8 1558.95 274 1552.75 272.05 1548.55 270.85 1544.25 270.95 1541.05 270.95 1538.25 271.4 1530.25 272.75 1525 278.65 1518.05 286.4 1518.05 300.25 1518.05 303.6 1518.6 307.2 1519.45 311.95 1521.25 315.85
L 1521.95 317.05
Q 1524.85 322.75 1530.4 326.15 1533.25 327.8 1535.85 328.55 1539.85 329.8 1543.95 329.65 1547 329.65 1549.75 329.2 1557.75 328 1563.2 321.85 1567.8 316.8 1569.4 308.85 Z
M 1527 300.25
Q 1527 303.4 1527.4 306.45 1527.95 309.6 1528.8 312.2 1529.75 314.75 1531.35 316.8 1534.85 321.4 1540.55 322.2 1542.55 322.55 1544.15 322.45 1546.4 322.55 1549.4 321.85 1554.05 320.6 1556.95 316.8 1558.75 314.4 1559.8 311.25 1561.25 306.8 1561.25 300.25 1561.25 293.35 1559.45 288.55 1558.65 286.15 1556.95 283.8 1553.45 279.55 1548.15 278.6 1546.15 278.2 1544 278.2 1541.45 278.2 1538.95 278.8 1534.25 279.95 1531.25 283.75 1529.4 286.2 1528.55 289.05 1527 293.8 1527 300.25 Z
M 1611.35 321.55
L 1611.35 328.15 1610.35 328.55
Q 1608.75 329 1607.2 329.25
L 1604.8 329.55
Q 1604 329.65 1602.6 329.65
L 1602.35 329.65
Q 1585.85 329.65 1585.85 312.35
L 1585.85 278.6 1577.75 278.6 1577.75 274.45 1585.85 270.95 1589.45 258.8 1594.45 258.8 1594.45 271.95 1610.95 271.95 1610.95 278.6 1594.45 278.6 1594.45 312
Q 1594.45 313.65 1594.75 315 1595.05 316.85 1595.65 318 1596.25 319.15 1596.85 319.85 1598.85 322.05 1601.8 322.45
L 1603.55 322.6
Q 1605.85 322.6 1607.65 322.35
L 1607.95 322.25
Q 1609.35 322.05 1611.2 321.6
L 1611.35 321.55 Z
M 1472.15 280.35
Q 1470.15 281.45 1468.8 283.25 1467.4 285.05 1466.65 287.35 1465.25 291.15 1464.95 297.45
L 1464.95 300.25
Q 1464.95 310.4 1467.8 315.65
L 1468.85 317.35
Q 1471.25 320.4 1475.2 321.6 1477.85 322.45 1481.65 322.45 1483.8 322.55 1486.55 321.85 1491 320.55 1493.45 316.75 1495 314.35 1495.95 311.45 1496.75 308.6 1497 305.95 1497.35 303.55 1497.35 300.15 1497.35 289 1493.45 283.65 1490.45 279.55 1485.45 278.6 1483.45 278.2 1481.45 278.2 1475.8 278.2 1472.15 280.35 Z
M 384.25 741.85
L 383.95 741.85 383.35 744.5 381.15 744.5 381.15 715.65 384.25 715.65 384.25 722.65
Q 384.25 725.05 384.05 726.9
L 384.25 726.9
Q 385.95 724.25 389.3 723.9
L 390.55 723.85
Q 391.75 723.85 393.25 724.15 395.5 724.9 396.75 726.55 397.9 727.95 398.35 729.65 399.05 731.55 399.05 734.3 399.05 737.75 397.9 740.25 397.55 741.1 396.75 742.1 394.85 744.55 391.65 744.75 391.25 744.85 390.55 744.85 389.3 744.85 388.25 744.55
L 386.95 744.1
Q 385.3 743.45 384.25 741.85 Z
M 386.75 727.15
Q 386.1 727.55 385.65 728.25 385.15 728.75 384.85 729.7 384.35 731.1 384.25 733.3
L 384.3 736.45
Q 384.5 738.45 385.25 739.85
L 385.65 740.45
Q 386.55 741.55 387.9 741.95 388.95 742.25 389.55 742.25
L 390.25 742.3
Q 392.95 742.3 394.45 740.25 395.85 738.15 395.85 734.3
L 395.7 732.25
Q 395.45 729.7 394.45 728.35 393.35 726.9 391.55 726.55 391.1 726.45 390.15 726.45 388.1 726.45 386.75 727.15 Z
M 419.15 744.5
L 416.85 744.5 416.25 741.55 416.1 741.55 415.1 742.75
Q 413.9 743.85 413.1 744.15 412.25 744.55 411.65 744.65 410.55 744.85 409.3 744.85 408.35 744.85 407.35 744.65 406.15 744.45 405.3 743.85
L 404.55 743.3
Q 402.85 741.7 402.85 738.85 402.75 737.3 403.65 735.9 404.45 734.5 405.9 733.85 408.3 732.55 412.7 732.45
L 416.15 732.3 416.15 731.05
Q 416.15 729.55 415.75 728.55
L 415.1 727.5
Q 414.5 726.9 413.85 726.7
L 411.85 726.35
Q 409.85 726.35 407.3 727.35
L 406.1 727.95 405.15 725.55
Q 406.25 724.95 407.9 724.45
L 408.45 724.3
Q 410.45 723.85 412.05 723.85
L 413.95 723.95
Q 416.25 724.35 417.35 725.45 418.25 726.15 418.65 727.35 418.95 728.15 419.05 729.15
L 419.15 744.5 Z
M 446.45 734.1
L 446.55 734.1 455.55 724.15 459.25 724.15 450.95 732.85 459.75 744.5 456.05 744.5 448.9 734.9 446.55 736.9 446.55 744.5 443.55 744.5 443.55 715.65 446.55 715.65 446.45 734.1 Z
M 416.1 736.35
L 416.1 734.5 412.95 734.65
Q 409.35 734.75 407.7 735.75 406.35 736.55 406.15 738.15
L 406.1 738.9 406.15 739.9
Q 406.3 740.55 406.9 741.25
L 407.1 741.45
Q 407.5 741.85 408.35 742.1 408.9 742.3 409.45 742.3
L 409.9 742.3
Q 410.9 742.3 411.75 742.1 413.05 741.9 413.95 741.15
L 414.45 740.75
Q 415.55 739.7 415.85 738.15 416.1 737.1 416.1 736.35 Z
M 439.05 724.85
L 438.1 727.5 435.85 726.75
Q 434.85 726.55 433.95 726.55
L 433.7 726.5
Q 432.35 726.5 430.95 727.05 427.55 728.55 427.55 734.45 427.5 735.45 427.7 736.55 427.75 737.35 428.15 738.55 428.45 739.3 429.05 740.15 430.3 741.7 432.25 742.05
L 433.5 742.15
Q 435.9 742.15 438.7 741.1
L 438.7 743.75
Q 436.9 744.75 434.45 744.85
L 433.55 744.85
Q 431.95 744.85 430.75 744.5 428.5 744.05 426.75 742.15 424.35 739.35 424.35 734.45 424.35 732.7 424.65 731.35 424.9 729.7 425.65 728.3 426.15 727.3 426.85 726.55 428.55 724.65 431.15 724.1 432.3 723.85 433.75 723.85 435.45 723.85 436.7 724.1 438.05 724.35 438.95 724.85
L 439.05 724.85 Z
M 389.05 925.3
L 389.05 927.65 383.9 927.65 383.9 945.55 380.75 945.55 380.75 927.65 377.15 927.65 377.15 926.3 380.75 925.15 380.75 924.05
Q 380.75 922.7 381.1 921.25 382.15 916.55 387.35 916.55 388.3 916.55 388.75 916.65
L 391.1 917.15 390.3 919.65
Q 389.7 919.45 388.05 919.1
L 386.3 919.15
Q 385.3 919.5 384.7 920.25 383.9 921.35 383.9 923.5
L 383.9 925.3 389.05 925.3 Z
M 404.45 925.1
L 404.05 927.95 403.05 927.75 401.75 927.7
Q 399.35 927.7 397.85 929.35
L 397.55 929.7
Q 396.1 931.35 395.9 933.65
L 395.85 945.55 392.75 945.55 392.75 925.3 395.3 925.3 395.65 929.05 395.75 929.05
Q 396.25 928.25 396.95 927.35 397.55 926.65 398.5 925.95 399.95 924.9 402.05 924.9 402.85 924.9 403.25 924.95
L 404.45 925.1 Z
M 463.75 943.05
L 463.75 945.35 462.45 945.75 462.3 945.75 460.65 945.95 460.5 945.95
Q 455.85 945.95 454.9 941.95 454.65 940.95 454.65 939.7
L 454.65 927.65 451.7 927.65 451.7 926.15 454.65 924.9 455.9 920.55 457.7 920.55 457.7 925.3 463.65 925.3 463.65 927.65 457.7 927.65 457.75 940.7
Q 458.1 941.65 458.15 941.75
L 458.55 942.45
Q 459.3 943.15 460.35 943.35
L 460.95 943.45 462.45 943.3 462.55 943.3 462.95 943.25 463.7 943.05 463.75 943.05 Z
M 448.1 945.55
L 445.05 945.55 445.05 932.45 444.9 931.1
Q 444.7 929.65 443.9 928.7 443.35 928.15 442.5 927.85 441.5 927.5 440.35 927.5
L 438.65 927.65
Q 436.7 928.05 435.7 929.25 435.15 929.85 434.85 930.75 434.35 931.9 434.25 934.25
L 434.25 945.55 431.15 945.55 431.15 925.3 433.65 925.3 434.15 928.05 434.3 928.05
Q 435.15 926.65 436.9 925.7 438.3 925.1 439.9 924.9
L 440.7 924.9
Q 443.15 924.9 444.75 925.7 445.65 926.05 446.25 926.65 447.15 927.55 447.55 928.7 447.85 929.5 447.95 930.55
L 448.1 932.3 448.1 945.55 Z
M 425.45 938.5
Q 425.75 936.85 425.75 935.35 425.75 930.65 423.25 927.7 421.75 926.05 419.5 925.3 418.05 924.9 416.5 924.9
L 414.3 925.1
Q 411.55 925.5 409.55 927.7 408.95 928.3 408.55 929.1 407.1 931.55 407.1 935.35 407.1 936.7 407.3 937.9 407.5 939.5 408.25 940.95
L 408.45 941.45
Q 409.55 943.5 411.5 944.65 412.3 945.15 413.5 945.5 414.85 945.95 416.35 945.95 417.35 945.95 418.45 945.75 421.25 945.35 423.25 943.15
L 424.3 941.75
Q 425.15 940.15 425.45 938.5 Z
M 410.3 935.35
Q 410.3 936.9 410.45 937.65 410.7 938.95 410.95 939.7 411.35 940.75 411.85 941.3 413.1 943.05 415.1 943.25
L 416.45 943.35
Q 419.5 943.35 420.95 941.35 422.15 939.85 422.45 937.3
L 422.45 933.25
Q 422.05 930.85 420.95 929.5 419.5 927.5 416.35 927.5 415.5 927.5 414.55 927.7 412.9 928.1 411.85 929.5 411.1 930.45 410.85 931.45 410.55 932.25 410.45 933.35 410.3 934.05 410.3 935.35 Z"/>
</g>

<g>
<path stroke="#FF0000" stroke-width="1" stroke-linejoin="miter" stroke-linecap="round" stroke-miterlimit="11" fill="none" d="
M 1271.75 1094.65
L 1282.6 1094.95 1282.6 1083.6 1305 1083.6 1305 1094.95 1329.8 1094.95 1329.8 1083.6 1353.2 1083.6 1353.2 1094.95 1378 1094.95 1378 1083.6 1401.4 1083.6 1401.4 1094.95 1426.15 1094.95 1426.15 1083.6 1449.6 1083.6 1449.6 1094.95 1474.35 1094.95 1474.35 1083.6 1497.8 1083.6 1497.8 1094.95 1522.55 1094.95 1522.55 1083.6 1545.95 1083.6 1545.95 1094.95 1570.75 1094.95 1570.75 1083.6 1594.15 1083.6 1594.15 1094.95 1618.95 1094.95 1618.95 1083.6 1642.35 1083.6 1642.35 1094.95 1667.15 1094.95 1667.15 1083.6 1690.55 1083.6 1690.55 1094.95 1715.25 1094.95 1715.25 1083.6 1738.75 1083.6 1738.75 1094.95 1763.45 1094.95 1763.45 1083.6 1786.95 1083.6 1786.95 1094.95 1811.65 1094.95 1811.65 1083.6 1835.05 1083.6 1835.05 1094.95 1859.85 1094.95 1859.85 1083.6 1883.25 1083.6 1883.25 1094.95 1908.05 1094.95 1908.05 1083.6 1931.45 1083.6 1931.45 1094.95 1956.25 1094.95 1956.25 1083.6 1978.65 1083.6 1978.65 1059.25 1990 1059.25 1990 1034.55 1978.65 1034.55 1978.65 1011.15 1990 1011.15 1990 986.35 1978.65 986.35 1978.65 962.95 1990 962.95 1990 938.15 1978.65 938.15 1978.65 914.75 1990 914.75 1990 889.95 1978.65 889.95 1978.65 866.55 1990 866.55 1990 841.8 1978.65 841.8 1978.65 818.35 1990 818.35 1990 793.6 1978.65 793.6 1978.65 770.15 1990 770.15 1990 745.4 1978.65 745.4 1978.65 722 1990 722 1990 697.2 1978.65 697.2 1978.65 673.8 1990 673.8 1990 649 1978.65 649 1978.65 625.6 1990 625.6 1990 600.8 1978.65 600.8 1978.65 576.45 1956.25 576.45 1956.25 565.15 1931.45 565.15 1931.45 576.45 1908.05 576.45 1908.05 565.15 1883.25 565.15 1883.25 576.45 1859.85 576.45 1859.85 565.15 1835.05 565.15 1835.05 576.45 1811.65 576.45 1811.65 565.15 1786.95 565.15 1786.95 576.45 1763.45 576.45 1763.45 565.15 1738.75 565.15 1738.75 576.45 1715.25 576.45 1715.25 565.15 1690.55 565.15 1690.55 576.45 1667.15 576.45 1667.15 565.15 1642.35 565.15 1642.35 576.45 1618.95 576.45 1618.95 565.15 1594.15 565.15 1594.15 576.45 1570.75 576.45 1570.75 565.15 1545.95 565.15 1545.95 576.45 1522.55 576.45 1522.55 565.15 1497.8 565.15 1497.8 576.45 1474.35 576.45 1474.35 565.15 1449.6 565.15 1449.6 576.45 1426.15 576.45 1426.15 565.15 1401.4 565.15 1401.4 576.45 1378 576.45 1378 565.15 1353.2 565.15 1353.2 576.45 1329.8 576.45 1329.8 565.15 1305 565.15 1305 576.45 1282.6 576.45 1282.6 565.15 1271.25 565.25
M 1329.8 542.45
L 1353.2 542.45 1353.2 553.8 1378 553.8 1378 542.45 1401.4 542.45 1401.4 553.8 1426.15 553.8 1426.15 542.45 1449.6 542.45 1449.6 553.8 1474.35 553.8 1474.35 542.45 1497.8 542.45 1497.8 553.8 1522.55 553.8 1522.55 542.45 1545.95 542.45 1545.95 553.8 1570.75 553.8 1570.75 542.45 1594.15 542.45 1594.15 553.8 1618.95 553.8 1618.95 542.45 1642.35 542.45 1642.35 553.8 1667.15 553.8 1667.15 542.45 1690.55 542.45 1690.55 553.8 1715.25 553.8 1715.25 542.45 1738.75 542.45 1738.75 553.8 1763.45 553.8 1763.45 542.45 1786.95 542.45 1786.95 553.8 1811.65 553.8 1811.65 542.45 1835.05 542.45 1835.05 553.8 1859.85 553.8 1859.85 542.45 1883.25 542.45 1883.25 553.8 1908.05 553.8 1908.05 542.45 1931.45 542.45 1931.45 553.8 1956.25 553.8 1956.25 542.45 1978.65 542.45 1978.65 518.15 1990 518.15 1990 493.4 1978.65 493.4 1978.65 469.95 1990 469.95 1990 445.2 1978.65 445.2 1978.65 421.8 1990 421.8 1990 397 1978.65 397 1978.65 373.6 1990 373.6 1990 348.8 1978.65 348.8 1978.65 325.4 1990 325.4 1990 300.6 1978.65 300.6 1978.65 277.2 1990 277.2 1990 252.45 1978.65 252.45 1978.65 229 1990 229 1990 204.25 1978.65 204.25 1978.65 180.8 1990 180.8 1990 156.05 1978.65 156.05 1978.65 132.65 1990 132.65 1990 107.85 1978.65 107.85 1978.65 84.45 1990 84.45 1990 59.65 1978.65 59.65 1978.65 35.35 1956.25 35.35 1956.25 24 1931.45 24 1931.45 35.35 1908.05 35.35 1908.05 24 1883.25 24 1883.25 35.35 1859.85 35.35 1859.85 24 1835.05 24 1835.05 35.35 1811.65 35.35 1811.65 24 1786.95 24 1786.95 35.35 1763.45 35.35 1763.45 24 1738.75 24 1738.75 35.35 1715.25 35.35 1715.25 24 1690.55 24 1690.55 35.35 1667.15 35.35 1667.15 24 1642.35 24 1642.35 35.35 1618.95 35.35 1618.95 24 1594.15 24 1594.15 35.35 1570.75 35.35 1570.75 24 1545.95 24 1545.95 35.35 1522.55 35.35 1522.55 24 1497.8 24 1497.8 35.35 1474.35 35.35 1474.35 24 1449.6 24 1449.6 35.35 1426.15 35.35 1426.15 24 1401.4 24 1401.4 35.35 1378 35.35 1378 24 1353.2 24 1353.2 35.35 1329.8 35.35 1329.8 24 1305 24 1305 35.35 1282.6 35.35 1282.6 59.65 1271.25 59.65 1271.25 84.45 1282.6 84.45 1282.6 107.85 1271.25 107.85 1271.25 132.65 1282.6 132.65 1282.6 156.05 1271.25 156.05 1271.25 180.8 1282.6 180.8 1282.6 204.25 1271.25 204.25 1271.25 229 1282.6 229 1282.6 252.45 1271.25 252.45 1271.25 277.2 1282.6 277.2 1282.6 300.6 1271.25 300.6 1271.25 325.4 1282.6 325.4 1282.6 348.8 1271.25 348.8 1271.25 373.6 1282.6 373.6 1282.6 397 1271.25 397 1271.25 421.8 1282.6 421.8 1282.6 445.2 1271.25 445.2 1271.25 469.95 1282.6 469.95 1282.6 493.4 1271.25 493.4 1271.25 518.15 1282.6 518.15 1282.6 542.45 1305 542.45 1305 553.8 1329.8 553.8 1329.8 542.45 Z
M 95.5 813.75
L 118.95 813.75 118.95 825.1 143.7 825.1 143.7 813.75 167.1 813.75 167.1 825.1 191.9 825.1 191.9 813.75 215.3 813.75 215.3 825.1 240.1 825.1 240.1 813.75 263.5 813.75 263.5 825.1 288.3 825.1 288.3 813.75 311.7 813.75 311.7 825.1 336.45 825.1 336.45 813.75 359.9 813.75 359.9 825.1 384.65 825.1 384.65 813.75 408.1 813.75 408.1 825.1 432.85 825.1 432.85 813.75 456.25 813.75 456.25 825.1 481.05 825.1 481.05 813.75 504.45 813.75 504.45 825.1 529.25 825.1 529.25 813.75 552.65 813.75 552.65 825.1 577.45 825.1 577.45 813.75 600.85 813.75 600.85 825.1 625.55 825.1 625.55 813.75 649.05 813.75 649.05 825.1 673.75 825.1 673.75 813.75 697.25 813.75 697.25 825.1 721.95 825.1 721.95 813.75 745.35 813.75 745.35 825.1 779.85 825.1 779.85 790.15 768.5 790.15 768.5 766.7 779.85 766.7 779.85 741.95 768.5 741.95 768.5 718.55 779.85 718.55 779.85 693.75 768.5 693.75 768.5 670.35 779.85 670.35 779.85 635.45 745.35 635.45 745.35 646.75 721.95 646.75 721.95 635.45 697.25 635.45 697.25 646.75 673.75 646.75 673.75 635.45 649.05 635.45 649.05 646.75 625.55 646.75 625.55 635.45 600.85 635.45 600.85 646.75 577.45 646.75 577.45 635.45 552.65 635.45 552.65 646.75 529.25 646.75 529.25 635.45 504.45 635.45 504.45 646.75 481.05 646.75 481.05 635.45 456.25 635.45 456.25 646.75 432.85 646.75 432.85 635.45 408.1 635.45 408.1 646.75 384.65 646.75 384.65 635.45 359.9 635.45 359.9 646.75 336.45 646.75 336.45 635.45 311.7 635.45 311.7 646.75 288.3 646.75 288.3 635.45 263.5 635.45 263.5 646.75 240.1 646.75 240.1 635.45 215.3 635.45 215.3 646.75 191.9 646.75 191.9 635.45 167.1 635.45 167.1 646.75 143.7 646.75 143.7 635.45 118.95 635.45 118.95 646.75 95.5 646.75 95.5 635.45 61.1 635.45 61.1 670.35 72.45 670.35 72.45 693.75 61.1 693.75 61.1 718.55 72.45 718.55 72.45 741.95 61.1 741.95 61.1 766.7 72.45 766.7 72.45 790.15 61.1 790.15 61.1 825.1 95.5 825.1 95.5 813.75 Z
M 95.5 1014.7
L 118.95 1014.7 118.95 1026.05 143.7 1026.05 143.7 1014.7 167.1 1014.7 167.1 1026.05 191.9 1026.05 191.9 1014.7 215.3 1014.7 215.3 1026.05 240.1 1026.05 240.1 1014.7 263.5 1014.7 263.5 1026.05 288.3 1026.05 288.3 1014.7 311.7 1014.7 311.7 1026.05 336.45 1026.05 336.45 1014.7 359.9 1014.7 359.9 1026.05 384.65 1026.05 384.65 1014.7 408.1 1014.7 408.1 1026.05 432.85 1026.05 432.85 1014.7 456.25 1014.7 456.25 1026.05 481.05 1026.05 481.05 1014.7 504.45 1014.7 504.45 1026.05 529.25 1026.05 529.25 1014.7 552.65 1014.7 552.65 1026.05 577.45 1026.05 577.45 1014.7 600.85 1014.7 600.85 1026.05 625.55 1026.05 625.55 1014.7 649.05 1014.7 649.05 1026.05 673.75 1026.05 673.75 1014.7 697.25 1014.7 697.25 1026.05 721.95 1026.05 721.95 1014.7 745.35 1014.7 745.35 1026.05 779.85 1026.05 779.85 991.15 768.5 991.15 768.5 967.7 779.85 967.7 779.85 942.95 768.5 942.95 768.5 919.5 779.85 919.5 779.85 894.75 768.5 894.75 768.5 871.35 779.85 871.35 779.85 836.45 745.35 836.45 745.35 847.75 721.95 847.75 721.95 836.45 697.25 836.45 697.25 847.75 673.75 847.75 673.75 836.45 649.05 836.45 649.05 847.75 625.55 847.75 625.55 836.45 600.85 836.45 600.85 847.75 577.45 847.75 577.45 836.45 552.65 836.45 552.65 847.75 529.25 847.75 529.25 836.45 504.45 836.45 504.45 847.75 481.05 847.75 481.05 836.45 456.25 836.45 456.25 847.75 432.85 847.75 432.85 836.45 408.1 836.45 408.1 847.75 384.65 847.75 384.65 836.45 359.9 836.45 359.9 847.75 336.45 847.75 336.45 836.45 311.7 836.45 311.7 847.75 288.3 847.75 288.3 836.45 263.5 836.45 263.5 847.75 240.1 847.75 240.1 836.45 215.3 836.45 215.3 847.75 191.9 847.75 191.9 836.45 167.1 836.45 167.1 847.75 143.7 847.75 143.7 836.45 118.95 836.45 118.95 847.75 95.5 847.75 95.5 836.45 61.1 836.45 61.1 871.35 72.45 871.35 72.45 894.75 61.1 894.75 61.1 919.5 72.45 919.5 72.45 942.95 61.1 942.95 61.1 967.7 72.45 967.7 72.45 991.15 61.1 991.15 61.1 1026.05 95.5 1026.05 95.5 1014.7 Z"/>
</g>
</g>
</g>

<g id="Layer_5">
<g>
<g>
<g>
<path fill="#0000FF" stroke="none" d="
M 934.6 373
L 931.5 373 931.5 401.8 934.6 401.8 934.6 373
M 951.5 381.5
Q 950.05 381.15 948.9 381.15 944.8 381.15 942.4 384 940.85 385.8 940.25 388.6 940 390 940 391.8 940 393.8 940.4 395.5 941.05 397.9 942.6 399.4 945.2 402.2 949.65 402.2
L 950.6 402.15
Q 951.5 402.15 951.9 402.1
L 953.2 401.9 954.6 401.5
Q 954.7 401.4 956.25 400.9
L 956.25 398.15 955.85 398.3
Q 953 399.5 949.8 399.5 948.85 399.5 947.9 399.3 946.1 398.95 945 397.6 943.8 396.4 943.4 394.3 943.2 393.3 943.2 392.2
L 957.1 392.2 957.1 390.3
Q 957.1 388.75 956.85 387.6 956.45 385.3 954.9 383.7 953.5 382.1 951.5 381.5
M 943.7 387.35
Q 944.2 386.15 944.9 385.3 946.45 383.75 948.85 383.75 949.65 383.75 950 383.8 951.65 384.15 952.5 385.3 952.85 385.6 953.25 386.4 953.65 387.35 953.7 388
L 953.85 389.75 943.25 389.75 943.3 389.2
Q 943.45 388.15 943.7 387.35
M 972.8 375.9
L 973.6 373.4 971.25 372.9
Q 970.8 372.8 969.85 372.8 964.65 372.8 963.6 377.5 963.25 379 963.3 380.3
L 963.3 381.4 959.65 382.55 959.65 383.9 963.3 383.9 963.3 401.8 966.4 401.8 966.4 383.9 971.5 383.9 971.5 381.55 966.4 381.55 966.4 379.75
Q 966.5 377.6 967.2 376.5 967.8 375.75 968.8 375.4
L 970.5 375.35
Q 972.2 375.7 972.8 375.9
M 976.8 376.8
L 975.45 381.15 972.6 382.4 972.6 383.9 975.45 383.9 975.45 395.95
Q 975.45 397.2 975.7 398.2 976.65 402.2 981.3 402.2
L 981.45 402.2 983.1 402 983.25 402 984.6 401.6 984.6 399.3 984.5 399.3 983.8 399.5 983.4 399.55 983.25 399.55 981.8 399.7 981.2 399.6
Q 980.1 399.4 979.4 398.7
L 979 398
Q 978.8 397.7 978.65 396.95
L 978.5 395.9 978.5 383.9 984.45 383.9 984.45 381.55 978.5 381.55 978.5 376.8 976.8 376.8
M 924.5 126.45
L 921.4 126.45 921.4 146.7 924.5 146.7 924.5 126.45
M 908.8 130.15
L 908.4 126.45 905.9 126.45 905.9 146.7 908.95 146.7 909 134.75
Q 909.2 132.55 910.75 130.85
L 911 130.55
Q 912.55 128.85 914.95 128.85
L 916.2 128.9 917.15 129.1 917.6 126.25 916.4 126.1
Q 916 126.05 915.15 126.05 913.3 126.05 911.7 127.1 910.8 127.7 910.1 128.5
L 908.95 130.15 908.8 130.15
M 921.15 120.35
L 921.15 121.25 921.3 121.85 921.6 122.45
Q 921.95 122.75 922.3 122.85
L 922.95 122.95
Q 923.7 122.95 924.2 122.45 924.35 122.35 924.5 122.05 924.75 121.7 924.75 120.9
L 924.75 120.55
Q 924.6 119.7 924.2 119.35 923.75 118.9 922.95 118.9 922.15 118.9 921.6 119.35 921.2 119.75 921.15 120.35
M 944.3 129.45
L 943.8 128.75 947.6 128.35 947.6 126.45 940.55 126.45
Q 939.75 126.15 939.3 126.15
L 937.7 126.05 936.75 126.1
Q 933.9 126.3 932 127.85 930.7 129.05 930.3 130.9 930 131.75 930 132.95
L 930.1 133.5
Q 930.1 135.1 931 136.55
L 931.3 136.9
Q 932.15 138.15 933.6 138.75
L 933 139.1
Q 932.3 139.65 931.75 140.35 931.15 141.15 931.15 142.3
L 931.15 142.5
Q 931.15 143.3 931.7 144.05
L 931.75 144.1
Q 932.15 144.75 932.95 145.1 931.9 145.45 931.5 145.65 930.5 146.05 929.6 146.95 928.4 148.3 928.4 150.15
L 928.5 150.5
Q 928.5 151.55 929 152.65 929.7 153.7 930.6 154.35 931.5 154.9 932.3 155.15 934.1 155.85 936.75 155.85 941.95 155.85 944.6 154.05
L 944.75 153.95
Q 946.35 152.9 946.95 151.25 947.35 150.15 947.35 148.9 947.35 146.25 945.55 144.9 944.4 143.95 942.4 143.65
L 936.3 143.5
Q 935.15 143.45 934.55 143.1
L 934.5 143.05
Q 934.1 142.85 933.95 142.35
L 933.9 141.85
Q 933.9 140.65 934.95 139.85 935.2 139.55 935.8 139.25
L 936.4 139.3
Q 936.75 139.35 937.55 139.35
L 938.2 139.35
Q 939.75 139.25 940.4 139.05 941.95 138.65 943.15 137.65 944.4 136.45 944.8 135.05 945.15 134.1 945.15 132.85
L 945.1 131.9
Q 945.1 131.3 944.75 130.5
L 944.3 129.45
M 937.55 128.3
Q 938.4 128.3 939.3 128.5 942.15 129.25 942.15 132.85 942.15 136.25 939.4 137.05 938.55 137.25 937.6 137.25
L 937.2 137.25
Q 935.4 137.15 934.3 136.1 933.95 135.9 933.75 135.5 933.35 134.95 933.2 134.15 933.1 133.75 933.1 132.9
L 933.1 132.25
Q 933.3 130.35 934.2 129.45 935 128.65 936.3 128.45 936.7 128.3 937.55 128.3
M 933.3 146.75
Q 933.75 146.5 934.55 146.35
L 939.55 146.25
Q 940.35 146.25 940.75 146.3 941.6 146.3 942.7 146.55
L 943.35 146.9
Q 943.75 147.1 943.95 147.5 944.15 147.75 944.3 148.35
L 944.35 149.15
Q 944.4 150.45 943.55 151.45 942.9 152.1 942.5 152.3 941.1 153.15 938.8 153.35 937.5 153.5 936.75 153.45 934.95 153.45 934 153.1 933.5 153.05 932.8 152.65 931.4 151.75 931.4 150.1
L 931.5 149.1
Q 931.7 147.95 932.55 147.25
L 933.3 146.75
M 954.8 117.9
L 951.75 117.9 951.75 146.7 954.8 146.7 954.8 135.45
Q 954.9 133.45 955.4 131.9 955.7 131.25 956.3 130.35 957.4 129.1 959.2 128.85 960.15 128.65 961 128.65 962.1 128.65 963.1 128.95 964.1 129.35 964.55 129.9 965.35 130.7 965.55 132.25
L 965.7 133.55 965.7 146.7 968.75 146.7 968.75 133.45 968.6 131.85
Q 968.5 130.75 968.2 129.9 967.7 128.65 966.9 127.85 966.1 127.15 965.35 126.85 964.55 126.45 963.35 126.25 962.7 126.1 961.3 126.1 960.5 126.1 960 126.15 958.75 126.25 957.5 126.9 955.75 127.85 954.9 129.25
L 954.7 129.25 954.8 117.9
M 978.35 121.7
L 976.55 121.7 975.3 126.05 972.35 127.3 972.35 128.75 975.3 128.75 975.3 140.9
Q 975.3 142.05 975.5 143.1 976.5 147.1 981.15 147.1
L 981.3 147.1 982.9 146.9 983.1 146.9 984.35 146.5 984.35 144.15 983.15 144.45 983.1 144.45 981.6 144.55 980.95 144.5
Q 979.95 144.45 979.2 143.55
L 978.75 142.9 978.4 141.85 978.35 128.75 984.2 128.75 984.2 126.45 978.35 126.45 978.35 121.7 Z"/>
</g>
</g>

<g>
<path stroke="#0000FF" stroke-width="2" stroke-linejoin="miter" stroke-linecap="round" stroke-miterlimit="11" fill="none" d="
M 984.35 144.15
L 984.35 146.5 983.1 146.9 982.9 146.9 981.3 147.1 981.15 147.1
Q 976.5 147.1 975.5 143.1 975.3 142.05 975.3 140.9
L 975.3 128.75 972.35 128.75 972.35 127.3 975.3 126.05 976.55 121.7 978.35 121.7 978.35 126.45 984.2 126.45 984.2 128.75 978.35 128.75 978.4 141.85 978.75 142.9 979.2 143.55
Q 979.95 144.45 980.95 144.5
L 981.6 144.55 983.1 144.45 983.15 144.45 984.35 144.15 Z
M 984.6 399.3
L 984.6 401.6 983.25 402 983.1 402 981.45 402.2 981.3 402.2
Q 976.65 402.2 975.7 398.2 975.45 397.2 975.45 395.95
L 975.45 383.9 972.6 383.9 972.6 382.4 975.45 381.15 976.8 376.8 978.5 376.8 978.5 381.55 984.45 381.55 984.45 383.9 978.5 383.9 978.5 395.9 978.65 396.95
Q 978.8 397.7 979 398
L 979.4 398.7
Q 980.1 399.4 981.2 399.6
L 981.8 399.7 983.25 399.55 983.4 399.55 983.8 399.5 984.5 399.3 984.6 399.3 Z
M 971.5 381.55
L 971.5 383.9 966.4 383.9 966.4 401.8 963.3 401.8 963.3 383.9 959.65 383.9 959.65 382.55 963.3 381.4 963.3 380.3
Q 963.25 379 963.6 377.5 964.65 372.8 969.85 372.8 970.8 372.8 971.25 372.9
L 973.6 373.4 972.8 375.9
Q 972.2 375.7 970.5 375.35
L 968.8 375.4
Q 967.8 375.75 967.2 376.5 966.5 377.6 966.4 379.75
L 966.4 381.55 971.5 381.55 Z
M 968.75 146.7
L 965.7 146.7 965.7 133.55 965.55 132.25
Q 965.35 130.7 964.55 129.9 964.1 129.35 963.1 128.95 962.1 128.65 961 128.65 960.15 128.65 959.2 128.85 957.4 129.1 956.3 130.35 955.7 131.25 955.4 131.9 954.9 133.45 954.8 135.45
L 954.8 146.7 951.75 146.7 951.75 117.9 954.8 117.9 954.7 129.25 954.9 129.25
Q 955.75 127.85 957.5 126.9 958.75 126.25 960 126.15 960.5 126.1 961.3 126.1 962.7 126.1 963.35 126.25 964.55 126.45 965.35 126.85 966.1 127.15 966.9 127.85 967.7 128.65 968.2 129.9 968.5 130.75 968.6 131.85
L 968.75 133.45 968.75 146.7 Z
M 940.55 126.45
L 947.6 126.45 947.6 128.35 943.8 128.75 944.3 129.45 944.75 130.5
Q 945.1 131.3 945.1 131.9
L 945.15 132.85
Q 945.15 134.1 944.8 135.05 944.4 136.45 943.15 137.65 941.95 138.65 940.4 139.05 939.75 139.25 938.2 139.35
L 937.55 139.35
Q 936.75 139.35 936.4 139.3
L 935.8 139.25
Q 935.2 139.55 934.95 139.85 933.9 140.65 933.9 141.85
L 933.95 142.35
Q 934.1 142.85 934.5 143.05
L 934.55 143.1
Q 935.15 143.45 936.3 143.5
L 942.4 143.65
Q 944.4 143.95 945.55 144.9 947.35 146.25 947.35 148.9 947.35 150.15 946.95 151.25 946.35 152.9 944.75 153.95
L 944.6 154.05
Q 941.95 155.85 936.75 155.85 934.1 155.85 932.3 155.15 931.5 154.9 930.6 154.35 929.7 153.7 929 152.65 928.5 151.55 928.5 150.5
L 928.4 150.15
Q 928.4 148.3 929.6 146.95 930.5 146.05 931.5 145.65 931.9 145.45 932.95 145.1 932.15 144.75 931.75 144.1
L 931.7 144.05
Q 931.15 143.3 931.15 142.5
L 931.15 142.3
Q 931.15 141.15 931.75 140.35 932.3 139.65 933 139.1
L 933.6 138.75
Q 932.15 138.15 931.3 136.9
L 931 136.55
Q 930.1 135.1 930.1 133.5
L 930 132.95
Q 930 131.75 930.3 130.9 930.7 129.05 932 127.85 933.9 126.3 936.75 126.1
L 937.7 126.05 939.3 126.15
Q 939.75 126.15 940.55 126.45 Z
M 933.1 132.9
Q 933.1 133.75 933.2 134.15 933.35 134.95 933.75 135.5 933.95 135.9 934.3 136.1 935.4 137.15 937.2 137.25
L 937.6 137.25
Q 938.55 137.25 939.4 137.05 942.15 136.25 942.15 132.85 942.15 129.25 939.3 128.5 938.4 128.3 937.55 128.3 936.7 128.3 936.3 128.45 935 128.65 934.2 129.45 933.3 130.35 933.1 132.25
L 933.1 132.9 Z
M 939.55 146.25
L 934.55 146.35
Q 933.75 146.5 933.3 146.75
L 932.55 147.25
Q 931.7 147.95 931.5 149.1
L 931.4 150.1
Q 931.4 151.75 932.8 152.65 933.5 153.05 934 153.1 934.95 153.45 936.75 153.45 937.5 153.5 938.8 153.35 941.1 153.15 942.5 152.3 942.9 152.1 943.55 151.45 944.4 150.45 944.35 149.15
L 944.3 148.35
Q 944.15 147.75 943.95 147.5 943.75 147.1 943.35 146.9
L 942.7 146.55
Q 941.6 146.3 940.75 146.3 940.35 146.25 939.55 146.25 Z
M 921.15 120.35
L 921.15 121.25 921.3 121.85 921.6 122.45
Q 921.95 122.75 922.3 122.85
L 922.95 122.95
Q 923.7 122.95 924.2 122.45 924.35 122.35 924.5 122.05 924.75 121.7 924.75 120.9
L 924.75 120.55
Q 924.6 119.7 924.2 119.35 923.75 118.9 922.95 118.9 922.15 118.9 921.6 119.35 921.2 119.75 921.15 120.35 Z
M 917.6 126.25
L 917.15 129.1 916.2 128.9 914.95 128.85
Q 912.55 128.85 911 130.55
L 910.75 130.85
Q 909.2 132.55 909 134.75
L 908.95 146.7 905.9 146.7 905.9 126.45 908.4 126.45 908.8 130.15 908.95 130.15 910.1 128.5
Q 910.8 127.7 911.7 127.1 913.3 126.05 915.15 126.05 916 126.05 916.4 126.1
L 917.6 126.25 Z
M 924.5 126.45
L 924.5 146.7 921.4 146.7 921.4 126.45 924.5 126.45 Z
M 957.1 390.3
L 957.1 392.2 943.2 392.2
Q 943.2 393.3 943.4 394.3 943.8 396.4 945 397.6 946.1 398.95 947.9 399.3 948.85 399.5 949.8 399.5 953 399.5 955.85 398.3
L 956.25 398.15 956.25 400.9
Q 954.7 401.4 954.6 401.5
L 953.2 401.9 951.9 402.1
Q 951.5 402.15 950.6 402.15
L 949.65 402.2
Q 945.2 402.2 942.6 399.4 941.05 397.9 940.4 395.5 940 393.8 940 391.8 940 390 940.25 388.6 940.85 385.8 942.4 384 944.8 381.15 948.9 381.15 950.05 381.15 951.5 381.5 953.5 382.1 954.9 383.7 956.45 385.3 956.85 387.6 957.1 388.75 957.1 390.3 Z
M 934.6 373
L 934.6 401.8 931.5 401.8 931.5 373 934.6 373 Z
M 943.25 389.75
L 953.85 389.75 953.7 388
Q 953.65 387.35 953.25 386.4 952.85 385.6 952.5 385.3 951.65 384.15 950 383.8 949.65 383.75 948.85 383.75 946.45 383.75 944.9 385.3 944.2 386.15 943.7 387.35 943.45 388.15 943.3 389.2
L 943.25 389.75 Z"/>
</g>

<g>
<path stroke="#FF0000" stroke-width="1" stroke-linejoin="miter" stroke-linecap="round" stroke-miterlimit="11" fill="none" d="
M 716.5 220.3
L 739.95 220.3 739.95 231.6 764.7 231.6 764.7 220.3 788.15 220.3 788.15 231.6 812.9 231.6 812.9 220.3 836.3 220.3 836.3 231.6 861.1 231.6 861.1 220.3 884.5 220.3 884.5 231.6 909.3 231.6 909.3 220.3 932.7 220.3 932.7 231.6 957.5 231.6 957.5 220.3 980.9 220.3 980.9 231.6 1005.65 231.6 1005.65 220.3 1029.1 220.3 1029.1 231.6 1053.85 231.6 1053.85 220.3 1077.3 220.3 1077.3 231.6 1102.05 231.6 1102.05 220.3 1125.45 220.3 1125.45 231.6 1150.25 231.6 1150.25 220.3 1173.65 220.3 1173.65 231.6 1198.65 231.6 1198.65 197.35 1209.95 197.35 1209.95 172.55 1198.65 172.55 1198.65 149.15 1209.95 149.15 1209.95 124.4 1198.65 124.4 1198.65 100.95 1209.95 100.95 1209.95 76.2 1179.9 76.1
Q 1179.3 76.1 1178.75 76.1 1176.65 76.1 1174.5 76
L 1167.3 76
Q 1165.95 76 1164.7 76
L 957.75 75.95
Q 904.95 75.95 835.95 75.95
L 680.15 76.2 680.15 100.95 691.5 100.95 691.5 124.4 680.15 124.4 680.15 149.15 691.5 149.15 691.5 172.55 680.15 172.55 680.15 197.35 691.5 197.35 691.5 231.6 716.5 231.6 716.5 220.3 Z
M 729.45 470.95
L 752.9 470.95 752.9 482.3 777.65 482.3 777.65 470.95 801.1 470.95 801.1 482.3 825.85 482.3 825.85 470.95 849.25 470.95 849.25 482.3 874.05 482.3 874.05 470.95 897.45 470.95 897.45 482.3 922.25 482.3 922.25 470.95 945.65 470.95 945.65 482.3 970.45 482.3 970.45 470.95 993.85 470.95 993.85 482.3 1018.6 482.3 1018.6 470.95 1042.05 470.95 1042.05 482.3 1066.8 482.3 1066.8 470.95 1090.25 470.95 1090.25 482.3 1115 482.3 1115 470.95 1138.4 470.95 1138.4 482.3 1163.2 482.3 1163.2 470.95 1186.6 470.95 1186.6 482.3 1211.6 482.3 1211.6 448.1 1222.9 448.1 1222.9 423.3 1211.6 423.3 1211.6 399.9 1222.9 399.9 1222.9 375.1 1211.6 375.1 1211.6 351.7 1222.9 351.7 1222.9 326.95 1211.6 326.95 1211.6 292.7 1186.6 292.7 1186.6 304 1163.2 304 1163.2 292.7 1138.4 292.7 1138.4 304 1115 304 1115 292.7 1090.25 292.7 1090.25 304 1066.8 304 1066.8 292.7 1042.05 292.7 1042.05 304 1018.6 304 1018.6 292.7 993.85 292.7 993.85 304 970.45 304 970.45 292.7 945.65 292.7 945.65 304 922.25 304 922.25 292.7 897.45 292.7 897.45 304 874.05 304 874.05 292.7 849.25 292.7 849.25 304 825.85 304 825.85 292.7 801.1 292.7 801.1 304 777.65 304 777.65 292.7 752.9 292.7 752.9 304 729.45 304 729.45 292.7 704.45 292.7 704.45 326.95 693.1 326.95 693.1 351.7 704.45 351.7 704.45 375.1 693.1 375.1 693.1 399.9 704.45 399.9 704.45 423.3 693.1 423.3 693.1 448.1 704.45 448.1 704.45 482.3 729.45 482.3 729.45 470.95 Z"/>
</g>
</g>
</g>
</svg>
