
<svg xmlns="http://www.w3.org/2000/svg" version="1.1" xmlns:xlink="http://www.w3.org/1999/xlink" preserveAspectRatio="none" x="0px" y="0px" width="2280px" height="1140px" viewBox="0 0 2280 1140">
<defs/>

<g id="Layer_1"/>

<g id="Layer_2"/>

<g id="Layer_1">
<g>
<g>
<g>
<path fill="#000000" stroke="none" d="
M 1632.25 638.65
L 1632.25 627.15 1629.4 627.15 1629.4 638.65 1632.25 638.65
M 1630.8 625
Q 1631.6 625 1632.15 624.45 1632.75 624 1632.75 623.2 1632.75 622.45 1632.15 622 1631.6 621.55 1630.8 621.55 1630.05 621.55 1629.55 622 1629 622.55 1629 623.2 1629 623.95 1629.55 624.45 1630.05 625 1630.8 625
M 1636.8 628.55
Q 1636 629.35 1635.45 630.4 1635 631.55 1635 632.95 1635 634.25 1635.45 635.4 1636 636.55 1636.8 637.25 1637.65 638.05 1638.8 638.55 1639.95 638.95 1641.25 638.95 1642.55 638.95 1643.75 638.55 1644.85 638.05 1645.65 637.25 1646.55 636.55 1647 635.4 1647.55 634.25 1647.55 632.95 1647.55 631.55 1647 630.4 1646.55 629.35 1645.65 628.55 1644.85 627.75 1643.75 627.25 1642.55 626.85 1641.25 626.85 1639.95 626.85 1638.8 627.25 1637.65 627.75 1636.8 628.55
M 1638.8 630.55
Q 1639.2 630 1639.85 629.75 1640.45 629.45 1641.25 629.45 1642.05 629.45 1642.65 629.75 1643.25 630 1643.75 630.55 1644.2 631 1644.4 631.6 1644.6 632.2 1644.6 632.95 1644.6 633.6 1644.4 634.2 1644.2 634.8 1643.75 635.35 1643.25 635.8 1642.65 636.05 1642.05 636.35 1641.25 636.35 1640.45 636.35 1639.85 636.05 1639.2 635.8 1638.8 635.35 1638.35 634.8 1638.05 634.2 1637.85 633.6 1637.85 632.95 1637.85 632.2 1638.05 631.6 1638.35 631 1638.8 630.55
M 1660.65 638.65
L 1660.65 631.4
Q 1660.65 630.55 1660.45 629.65 1660.25 628.85 1659.75 628.25 1659.2 627.6 1658.45 627.25 1657.6 626.85 1656.45 626.85 1655.05 626.85 1654.2 627.45 1653.35 628.15 1652.95 629
L 1652.95 627.15 1650.15 627.15 1650.15 638.65 1653.05 638.65 1653.05 632.4
Q 1653.05 631.8 1653.2 631.25 1653.35 630.75 1653.65 630.35 1654 629.95 1654.45 629.65 1655 629.45 1655.65 629.45 1656.4 629.45 1656.85 629.8 1657.25 630.15 1657.45 630.65 1657.65 631.2 1657.75 631.75
L 1657.8 638.65 1660.65 638.65
M 1489.35 624.15
L 1490.4 624
Q 1491.25 624 1492.05 624.25 1492.85 624.6 1493.35 625.35
L 1495.6 623
Q 1494.55 622.05 1493.25 621.65 1492.05 621.25 1490.65 621.25 1489.55 621.25 1488.4 621.55 1487.25 621.85 1486.4 622.55 1485.55 623.15 1485 624.15 1484.45 625.05 1484.45 626.4 1484.45 627.85 1485 628.8 1485.6 629.65 1486.55 630.2 1487.4 630.8 1488.45 631.05
L 1490.4 631.75
Q 1491.25 632.05 1491.85 632.6 1492.45 633.15 1492.45 634.05 1492.45 634.6 1492.2 635.05 1492 635.55 1491.55 635.8 1491.15 636.05 1490.6 636.2 1490.05 636.35 1489.55 636.35 1488.55 636.35 1487.6 635.85 1486.75 635.4 1486.15 634.6
L 1483.85 636.8
Q 1484.95 638.05 1486.4 638.6 1487.85 639.15 1489.45 639.15 1490.65 639.15 1491.8 638.75 1492.95 638.4 1493.8 637.75 1494.65 637.05 1495.15 636.05 1495.65 635.05 1495.65 633.65 1495.65 632.15 1495.05 631.25 1494.45 630.35 1493.6 629.8 1492.65 629.2 1491.6 628.95
L 1489.65 628.25
Q 1488.8 627.95 1488.2 627.45 1487.6 627 1487.6 626.15 1487.6 625.6 1487.8 625.2 1488.05 624.75 1488.45 624.45 1488.85 624.2 1489.35 624.15
M 1523.6 629
L 1523.6 627.15 1520.65 627.15 1520.65 638.65 1523.6 638.65 1523.65 631.8
Q 1523.8 631.25 1524.15 630.8 1524.45 630.35 1525.05 630 1525.65 629.6 1526.65 629.6
L 1528.05 629.8 1528.05 627 1527.05 626.85
Q 1525.85 626.85 1525 627.4 1524.15 628 1523.6 629
M 1533.95 623.8
L 1531.05 623.8 1531.05 627.15 1528.65 627.15 1528.65 629.6 1531.05 629.6 1531.05 634.85
Q 1531.05 635.85 1531.2 636.65 1531.4 637.4 1531.8 637.95 1532.2 638.45 1532.95 638.75 1533.65 638.95 1534.85 638.95
L 1536 638.85
Q 1536.65 638.8 1537.15 638.6
L 1537.15 636.15
Q 1536.85 636.35 1536.4 636.4
L 1535.55 636.55
Q 1534.6 636.55 1534.25 636 1533.95 635.55 1533.95 634.65
L 1533.95 629.6 1537.15 629.6 1537.15 627.15 1533.95 627.15 1533.95 623.8
M 1499.55 623.8
L 1499.55 627.15 1497.15 627.15 1497.15 629.6 1499.55 629.6 1499.55 634.85
Q 1499.55 635.85 1499.65 636.65 1499.85 637.4 1500.25 637.95 1500.65 638.45 1501.4 638.75 1502.15 638.95 1503.35 638.95
L 1504.45 638.85
Q 1505.15 638.8 1505.6 638.6
L 1505.6 636.15
Q 1505.35 636.35 1504.85 636.4
L 1504 636.55
Q 1503.05 636.55 1502.75 636 1502.4 635.55 1502.4 634.65
L 1502.4 629.6 1505.6 629.6 1505.6 627.15 1502.4 627.15 1502.4 623.8 1499.55 623.8
M 1510.65 629.35
Q 1511.45 629 1512.4 629 1513.55 629 1514.25 629.55 1515.05 630.15 1515.05 631.2
L 1515.05 631.45 1511.15 631.65
Q 1510.35 631.8 1509.6 632.05 1508.85 632.35 1508.25 632.8 1507.75 633.25 1507.4 633.85 1507.05 634.55 1507.05 635.55 1507.05 636.35 1507.4 637 1507.8 637.65 1508.4 638.05 1508.95 638.55 1509.75 638.75 1510.45 638.95 1511.25 638.95 1512.4 638.95 1513.4 638.55 1514.35 638.05 1514.95 637.05
L 1515.05 637.05 1515.05 638.65 1517.6 638.65 1517.6 631.05 1517.45 630
Q 1517.35 629.4 1517 628.85 1516.75 628.25 1516.15 627.85 1515.6 627.4 1514.75 627.15 1513.95 626.85 1512.75 626.85 1511.35 626.85 1510.05 627.25 1508.75 627.75 1507.8 628.75
L 1509.35 630.2
Q 1509.85 629.65 1510.65 629.35
M 1514.85 633.55
L 1514.85 634.15
Q 1514.85 635.4 1514.15 636.05 1513.45 636.8 1511.95 636.8
L 1511.25 636.75 1510.6 636.45 1510.15 636
Q 1509.95 635.65 1509.95 635.25 1509.95 634.65 1510.4 634.35 1510.85 634 1511.55 633.8 1512.2 633.6 1512.95 633.55
L 1514.85 633.55
M 1563.05 627.15
L 1560.2 627.15 1560.2 638.65 1563.05 638.65 1563.05 627.15
M 1561.6 621.55
Q 1560.85 621.55 1560.35 622 1559.8 622.55 1559.8 623.2 1559.8 623.95 1560.35 624.45 1560.85 625 1561.6 625 1562.4 625 1562.95 624.45 1563.55 624 1563.55 623.2 1563.55 622.45 1562.95 622 1562.4 621.55 1561.6 621.55
M 1557.25 623
Q 1556.2 622.05 1554.95 621.65 1553.75 621.25 1552.35 621.25 1551.2 621.25 1550.05 621.55 1548.95 621.85 1548.05 622.55 1547.2 623.15 1546.65 624.15 1546.15 625.05 1546.15 626.4 1546.15 627.85 1546.65 628.8 1547.25 629.65 1548.2 630.2 1549.05 630.8 1550.15 631.05
L 1552.05 631.75
Q 1552.95 632.05 1553.55 632.6 1554.15 633.15 1554.15 634.05 1554.15 634.6 1553.85 635.05 1553.65 635.55 1553.2 635.8 1552.8 636.05 1552.25 636.2 1551.75 636.35 1551.2 636.35 1550.2 636.35 1549.25 635.85 1548.4 635.4 1547.8 634.6
L 1545.55 636.8
Q 1546.6 638.05 1548.05 638.6 1549.55 639.15 1551.15 639.15 1552.35 639.15 1553.45 638.75 1554.6 638.4 1555.45 637.75 1556.35 637.05 1556.8 636.05 1557.35 635.05 1557.35 633.65 1557.35 632.15 1556.75 631.25 1556.15 630.35 1555.25 629.8 1554.35 629.2 1553.25 628.95
L 1551.35 628.25
Q 1550.45 627.95 1549.85 627.45 1549.25 627 1549.25 626.15 1549.25 625.6 1549.45 625.2 1549.75 624.75 1550.15 624.45 1550.55 624.2 1551 624.15
L 1552.05 624
Q 1552.95 624 1553.75 624.25 1554.55 624.6 1555 625.35
L 1557.25 623
M 1603.85 620.55
L 1601 620.55 1601 638.65 1603.85 638.65 1603.85 620.55
M 1618.65 627.15
L 1618.65 629.6 1621.05 629.6 1621.05 634.85
Q 1621.05 635.85 1621.2 636.65 1621.4 637.4 1621.8 637.95 1622.2 638.45 1622.95 638.75 1623.65 638.95 1624.85 638.95
L 1626 638.85
Q 1626.65 638.8 1627.15 638.6
L 1627.15 636.15
Q 1626.85 636.35 1626.4 636.4
L 1625.55 636.55
Q 1624.6 636.55 1624.25 636 1623.95 635.55 1623.95 634.65
L 1623.95 629.6 1627.15 629.6 1627.15 627.15 1623.95 627.15 1623.95 623.8 1621.05 623.8 1621.05 627.15 1618.65 627.15
M 1615.45 627.85
Q 1614.95 627.4 1614.05 627.15 1613.25 626.85 1612.05 626.85 1610.65 626.85 1609.4 627.25 1608.05 627.75 1607.15 628.75
L 1608.65 630.2
Q 1609.2 629.65 1610 629.35 1610.8 629 1611.75 629 1612.85 629 1613.6 629.55 1614.4 630.15 1614.4 631.2
L 1614.4 631.45 1610.45 631.65
Q 1609.65 631.8 1608.95 632.05 1608.2 632.35 1607.6 632.8 1607.05 633.25 1606.75 633.85 1606.4 634.55 1606.4 635.55 1606.4 636.35 1606.75 637 1607.15 637.65 1607.75 638.05 1608.25 638.55 1609.05 638.75 1609.8 638.95 1610.6 638.95 1611.75 638.95 1612.75 638.55 1613.65 638.05 1614.25 637.05
L 1614.4 637.05 1614.4 638.65 1616.95 638.65 1616.95 631.05 1616.8 630
Q 1616.65 629.4 1616.35 628.85 1616.05 628.25 1615.45 627.85
M 1609.25 635.25
Q 1609.25 634.65 1609.75 634.35 1610.2 634 1610.85 633.8 1611.55 633.6 1612.25 633.55
L 1614.2 633.55 1614.2 634.15
Q 1614.2 635.4 1613.45 636.05 1612.8 636.8 1611.25 636.8
L 1610.6 636.75 1609.95 636.45 1609.45 636
Q 1609.25 635.65 1609.25 635.25
M 1581.85 627.25
Q 1581.15 626.85 1579.95 626.85 1578.65 626.85 1577.75 627.4 1576.8 627.85 1576.15 629 1575.25 626.85 1572.55 626.85 1571.15 626.85 1570.25 627.45 1569.4 628.15 1569.05 628.95
L 1569 628.95 1569 627.15 1566.25 627.15 1566.25 638.65 1569.15 638.65 1569.15 632.4
Q 1569.15 631.8 1569.25 631.25 1569.4 630.75 1569.75 630.35 1570.05 629.95 1570.55 629.65 1571.05 629.45 1571.75 629.45 1572.8 629.45 1573.25 630.05 1573.75 630.75 1573.75 631.8
L 1573.75 638.65 1576.6 638.65 1576.6 632.4 1576.75 631.35
Q 1576.85 630.8 1577.2 630.4 1577.45 629.95 1577.95 629.75 1578.4 629.45 1579.05 629.45 1579.75 629.45 1580.15 629.65 1580.55 629.85 1580.8 630.25 1581.05 630.6 1581.15 631.15
L 1581.2 638.65 1584.15 638.65 1584.15 631.8
Q 1584.15 630.8 1583.85 629.85 1583.65 629 1583.2 628.25 1582.65 627.6 1581.85 627.25
M 1597.75 627.15
L 1594.85 627.15 1594.85 633.45
Q 1594.85 634 1594.75 634.55 1594.6 635.05 1594.25 635.45 1593.95 635.85 1593.45 636.15 1592.95 636.35 1592.2 636.35 1591.45 636.35 1591.05 636 1590.6 635.65 1590.4 635.15 1590.2 634.65 1590.15 634.05
L 1590.15 627.15 1587.2 627.15 1587.2 634.4
Q 1587.2 635.35 1587.45 636.15 1587.65 636.95 1588.15 637.6 1588.65 638.2 1589.45 638.6 1590.25 638.95 1591.45 638.95 1592.85 638.95 1593.75 638.35 1594.55 637.65 1594.95 636.8
L 1595 636.8 1595 638.65 1597.75 638.65 1597.75 627.15 Z"/>
</g>
</g>

<g>
<path stroke="#FF0000" stroke-width="0.75" stroke-linejoin="miter" stroke-linecap="butt" stroke-miterlimit="10" fill="none" d="
M 1610.75 701.75
Q 1610.75 717.45 1599.6 728.6 1588.45 739.75 1572.75 739.75 1557 739.75 1545.85 728.6 1534.75 717.45 1534.75 701.75 1534.75 686 1545.85 674.85 1557 663.75 1572.75 663.75 1588.45 663.75 1599.6 674.85 1610.75 686 1610.75 701.75 Z
M 1743.2 916.8
Q 1743.2 930.6 1733.45 940.25 1723.75 950 1710 950 1696.25 950 1686.55 940.25 1676.8 930.6 1676.8 916.8 1676.8 903.05 1686.55 893.35 1696.25 883.6 1710 883.6 1723.75 883.6 1733.45 893.35 1743.2 903.05 1743.2 916.8 Z
M 1801.2 903.65
L 2074.8 903.65 2074.8 998.65 1801.2 998.65 1801.2 903.65 Z
M 1104 507.25
L 1180 507.25 1180 545.25 1104 545.25 1104 507.25 Z
M 985.95 644.75
L 1259.55 644.75 1259.55 739.75 985.95 739.75 985.95 644.75 Z
M 161 894.2
Q 161 909.9 149.85 921.05 138.7 932.2 123 932.2 107.25 932.2 96.1 921.05 85 909.9 85 894.2 85 878.45 96.1 867.3 107.25 856.2 123 856.2 138.7 856.2 149.85 867.3 161 878.45 161 894.2 Z
M 769.5 894.2
Q 769.5 909.9 758.35 921.05 747.2 932.2 731.5 932.2 715.75 932.2 704.6 921.05 693.5 909.9 693.5 894.2 693.5 878.45 704.6 867.3 715.75 856.2 731.5 856.2 747.2 856.2 758.35 867.3 769.5 878.45 769.5 894.2 Z"/>
</g>

<g>
<path stroke="#FF0000" stroke-width="1" stroke-linejoin="round" stroke-linecap="round" fill="none" d="
M 979.6 131.4
L 979.6 174.75 1600.95 174.75 1600.95 131.4 979.6 131.4 Z
M 979.6 69.05
L 979.6 112.4 1600.95 112.4 1600.95 69.05 979.6 69.05 Z
M 973.85 208.35
Q 973.85 214.45 969.6 218.75 965.35 223 959.2 223 953.15 223 948.85 218.75 944.55 214.45 944.55 208.35 944.55 202.25 948.85 198 953.15 193.75 959.2 193.75 965.35 193.75 969.6 198 973.85 202.25 973.85 208.35 Z"/>
</g>
</g>
</g>

<g id="Layer_4"/>

<g id="Layer_1">
<g>
<g>
<g>
<path fill="#0000FF" stroke="none" d="
M 458.45 878.25
L 455.45 878.25 455.45 907.15 458.45 907.15 458.45 899.55 460.8 897.55 468 907.15 471.75 907.15 462.95 895.45 471.15 886.8 467.45 886.8 458.45 896.75 458.35 896.75 458.45 878.25
M 443.05 886.75
Q 440.45 887.25 438.75 889.2 438.05 889.95 437.55 890.95 436.8 892.35 436.55 894 436.25 895.35 436.25 897.05 436.25 902 438.65 904.8 440.4 906.65 442.75 907.15 443.95 907.45 445.55 907.45
L 446.4 907.45
Q 448.75 907.4 450.65 906.4
L 450.65 903.75
Q 447.8 904.8 445.45 904.8
L 444.15 904.65
Q 442.15 904.35 441 902.8 440.45 902.15 440.15 901.2 439.85 900.55 439.6 899.2
L 439.45 897.05
Q 439.45 891.2 442.85 889.65 444.25 889.15 445.65 889.15
L 445.95 889.2
Q 446.75 889.2 447.8 889.4
L 450 890.15 450.95 887.45
Q 450.05 887.05 448.65 886.75 447.35 886.45 445.75 886.45 444.2 886.45 443.05 886.75
M 408.75 889.2
Q 407.4 887.55 405.15 886.8 403.65 886.45 402.55 886.45
L 401.25 886.55
Q 398 886.85 396.15 889.55
L 396 889.55 396.15 878.25 393.05 878.25 393.05 907.15 395.25 907.15 395.95 904.45 396.15 904.45
Q 397.25 906.05 398.85 906.75
L 400.2 907.2
Q 401.2 907.45 402.55 907.45
L 403.55 907.4
Q 406.8 907.2 408.75 904.75 409.55 903.55 409.8 902.85 410.95 900.4 410.95 896.95 410.95 894.25 410.35 892.25 409.85 890.6 408.75 889.2
M 398.75 889.8
Q 400.05 889.05 402.05 889.05 403.05 889.05 403.55 889.2 405.25 889.55 406.35 891 407.4 892.45 407.65 894.85
L 407.75 896.95
Q 407.75 900.8 406.35 902.85 405 904.95 402.15 904.95
L 401.55 904.85
Q 400.85 904.85 399.8 904.6 398.4 904.2 397.6 903.05
L 397.2 902.45
Q 396.45 901.25 396.25 899.05
L 396.15 895.95
Q 396.25 893.75 396.75 892.35 397.05 891.4 397.55 890.85 398.15 890.15 398.75 889.8
M 419.8 887.05
Q 417.95 887.75 417.05 888.2
L 418 890.6 419.25 890
Q 421.65 889 423.75 889
L 424.6 889.05 425.75 889.35
Q 426.25 889.45 427.05 890.15 427.4 890.6 427.65 891.2 428.05 892.2 428.05 893.65
L 428.05 894.95 424.6 895.05
Q 420.35 895.2 417.8 896.45 416.4 897.15 415.55 898.55 414.75 899.85 414.8 901.45 414.8 904.4 416.55 905.95
L 417.25 906.45
Q 418.2 907.05 419.35 907.25 420.25 907.45 421.25 907.45 422.55 907.45 423.55 907.25 424.05 907.2 425 906.8 425.8 906.45 427 905.4
L 428 904.2 428.2 904.2 428.8 907.15 431.05 907.15 431 891.8
Q 430.95 890.8 430.6 890 430.2 888.95 429.35 888.05 428.05 887 425.95 886.6
L 423.95 886.45
Q 422.45 886.45 420.35 886.95
L 419.8 887.05
M 428 897.15
L 428 899
Q 428 900 427.8 900.8 427.55 902.2 426.35 903.4
L 425.85 903.8
Q 424.95 904.55 423.65 904.75 422.8 904.95 421.85 904.95
L 421.4 904.95
Q 420.8 904.95 420.25 904.75 419.55 904.55 419 904.05
L 418.8 903.85
Q 418.35 903.25 418.15 902.55
L 418 901.55 418.05 900.8
Q 418.25 899.25 419.6 898.4 421.35 897.35 424.95 897.25
L 428 897.15
M 300.2 372.65
Q 294.75 373.55 289.85 376.2 285 378.8 281.25 382.95 271.4 394 271.4 413.8 271.35 418.65 272.15 423.75 273.15 430.25 275.95 436.15
L 276.85 437.85
Q 281.15 445.95 288.95 450.75 297.45 455.85 308.25 455.85 312.25 455.85 316.55 455.15 328.05 453.4 335.8 444.75 338.25 441.95 339.85 439.15 345.8 429 345.8 413.8
L 345.75 411.85
Q 345.55 405.15 344.15 399.4 341.95 390.25 335.75 383.2 329.75 376.25 320.85 373.6 314.75 371.85 308.75 371.95 304.55 371.85 300.2 372.65
M 290.2 390.25
Q 294.45 384.75 301.15 383.2 304.55 382.35 308.4 382.35 311.65 382.35 314.25 382.85 322 384.2 326.8 390.35 329.05 393.2 330.55 397.05 331.85 400.8 332.45 405.05 333.05 409.45 333.05 413.8 333.05 429.4 326.8 437.45 322.65 442.95 316.05 444.65 312.2 445.6 308.55 445.6 296.45 445.6 290.25 437.45 284.05 429.25 284.05 413.8 284.05 409.4 284.55 405.65 285.85 395.8 290.2 390.25
M 195.4 339.4
L 183.15 339.4 183.15 454.4 191.95 454.4 194.55 443.95 195.4 443.95
Q 199.6 449.85 206.4 452.95 208.95 454.05 211.45 454.75 216.2 455.85 220.85 455.85 222.85 455.85 224.95 455.65 231 455.2 236.35 452.4 241.75 449.55 245.55 444.8 248.35 441.4 250 437.55 252.45 432.2 253.55 425.95 254.45 419.75 254.45 413.8 254.45 403.35 251.95 395.15 250.05 388.65 245.6 382.95 240.05 375.95 231.4 373.45 225.85 372 220.85 372.05 218 372.05 215.8 372.35 209.6 372.95 204.35 376 198.95 379.15 195.4 384.2
L 194.8 384.2 194.85 383.65
Q 195.4 377.25 195.4 367.35
L 195.4 339.4
M 197.95 395.35
Q 198.95 392.35 200.95 389.55 203 387 205.75 385.4 210.8 382.35 219.05 382.35 230.65 382.35 236.2 390.05
L 236.8 390.95
Q 240.2 396.2 241.35 405.4 241.75 409.55 241.75 413.65 241.75 429.05 236.2 437.35 232.6 442.8 226.35 444.65 222.8 445.6 219.35 445.6 206.85 445.6 201.15 438.2 200.25 437.15 199.55 435.8 196.65 430.55 195.8 422.2 195.4 418 195.4 413.8 195.4 402.4 197.95 395.35
M 519.05 373.6
Q 512.95 371.85 507 371.95 502.8 371.85 498.45 372.65 487.2 374.4 479.55 382.95 469.6 394.05 469.6 413.8 469.6 418.85 470.4 423.75 471.4 430.25 474.2 436.15
L 475.05 437.85
Q 479.25 445.95 487.2 450.75 495.65 455.85 506.45 455.85 510.55 455.85 514.8 455.15 526.25 453.4 534 444.75 536.2 442.35 538.15 439.15 544 429.05 544 413.8
L 544 411.85
Q 543.8 404.95 542.35 399.4 540.2 390.35 534 383.2 527.85 376.2 519.05 373.6
M 488.45 390.25
Q 492.75 384.75 499.35 383.2 502.8 382.35 506.6 382.35 509.95 382.35 512.55 382.85 520.2 384.2 525.05 390.35 527.45 393.6 528.75 397.05 530.05 400.65 530.75 405.05 531.35 409.65 531.25 413.8 531.25 429.4 525.05 437.45 520.8 442.95 514.25 444.65 510.55 445.6 506.8 445.6 494.75 445.6 488.55 437.45 482.35 429.25 482.35 413.8 482.35 409.4 482.8 405.65 484 396 488.45 390.25
M 433.85 354.6
L 426.75 354.6 421.6 371.95 410 377 410 382.95 421.6 382.95 421.6 431.05
Q 421.55 435.55 422.55 440.15 425.25 451.4 435.65 454.6 440.15 455.85 445.05 455.85
L 445.45 455.85
Q 446.45 455.8 448.6 455.65
L 452.05 455.2
Q 454.75 454.8 456.55 454.2
L 457.95 453.6 457.95 444.25 457.8 444.25
Q 456.85 444.6 454.85 444.95
L 452.75 445.35
Q 449.85 445.75 446.85 445.75
L 444.35 445.55
Q 440.15 445 437.35 441.8 433.85 437.95 433.85 430.6
L 433.85 382.95 457.35 382.95 457.35 373.4 433.85 373.4 433.85 354.6
M 356.55 377
L 356.55 382.95 368.15 382.95 368.15 431.05
Q 368.15 435.65 369.15 440.15 371.85 451.4 382.2 454.6 386.65 455.85 391.65 455.85
L 392.05 455.85
Q 393.05 455.8 395.2 455.65
L 398.65 455.2
Q 401.25 454.8 403.05 454.2 403.8 454 404.55 453.6
L 404.55 444.25 404.35 444.25
Q 403.35 444.6 401.45 444.95
L 399.35 445.35
Q 396.45 445.75 393.4 445.75
L 390.95 445.55
Q 386.75 445 383.95 441.8 380.4 437.85 380.4 430.6
L 380.4 382.95 403.95 382.95 403.95 373.4 380.4 373.4 380.4 354.6 373.35 354.6 368.15 371.95 356.55 377
M 651.75 382.35
Q 660.4 382.35 664.6 387.2 667.55 390.65 668.35 396.4 668.75 399 668.75 401.65
L 668.75 454.4 681 454.4 681 401.55
Q 681 392.6 678.65 386.4 677.25 382.25 674.15 379 672.15 376.8 669 375.15 662.8 371.95 653.6 371.95 644.65 371.95 637.95 375.6
L 637.05 376.05
Q 631 379.55 627.4 385.65
L 626.85 385.65
Q 624.75 380.55 620.45 377.2 616.65 374.2 611.05 372.85 606.45 371.85 602 371.95
L 599.35 372
Q 593.25 372.4 587.85 375.25 581.65 378.4 578.05 384.45
L 577.45 384.45 575.45 373.4 565.55 373.4 565.55 454.4 577.8 454.4 577.8 411.85
Q 577.8 401.55 580.05 395 581.2 391.75 583.15 389.25 584.75 387.2 586.95 385.65 589.95 383.75 593.75 382.95 596.85 382.35 600 382.35
L 602.25 382.4
Q 604.8 382.6 607 383.35 610.45 384.35 612.95 387.2 615.85 390.6 616.75 396.4 617.05 398.6 617.05 401.65
L 617.05 454.4 629.35 454.4 629.35 409
Q 629.35 395.55 634.8 388.95 636.25 387.05 638.6 385.55 641.55 383.75 645.35 382.95 648.45 382.35 651.75 382.35
M 1217.4 882.45
L 1214.35 882.45 1214.35 902.75 1217.4 902.75 1217.4 882.45
M 1201.75 886.2
L 1201.4 882.45 1198.85 882.45 1198.85 902.75 1201.95 902.75 1202 890.8
Q 1202.2 888.65 1203.65 886.85
L 1203.95 886.6
Q 1205.6 884.85 1207.85 884.85
L 1209.15 884.95 1210.15 885.15 1210.55 882.25 1209.4 882.15
Q 1208.95 882.05 1208.15 882.05 1206.35 882.05 1204.6 883.15 1203.75 883.8 1203.05 884.55 1202.35 885.4 1201.85 886.2
L 1201.75 886.2
M 1271.25 877.75
L 1269.55 877.75 1268.2 882.05 1265.35 883.35 1265.35 884.8 1268.2 884.8 1268.2 896.95
Q 1268.2 898.15 1268.45 899.15 1269.4 903.15 1274.15 903.15
L 1275.85 902.95 1276.05 902.95 1277.35 902.55 1277.35 900.2 1277.25 900.2 1276.6 900.4 1276.15 900.45 1276 900.45 1274.55 900.6 1273.95 900.55
Q 1272.85 900.4 1272.15 899.6
L 1271.75 898.95 1271.4 897.85 1271.25 896.8 1271.25 884.8 1277.2 884.8 1277.2 882.45 1271.25 882.45 1271.25 877.75
M 1248.4 887.95
Q 1248.75 887 1249.25 886.4 1250.25 885.2 1252.2 884.85 1253.15 884.65 1253.95 884.65 1255.05 884.65 1256.05 885 1256.95 885.35 1257.45 885.95 1258.2 886.65 1258.55 888.25
L 1258.6 902.75 1261.65 902.75 1261.6 887.85
Q 1261.55 887.15 1261.15 885.95 1260.8 884.85 1259.8 883.85 1259.25 883.35 1258.35 882.85 1257.45 882.45 1256.35 882.25 1255.65 882.15 1254.25 882.15 1253.4 882.15 1253 882.2 1251.65 882.35 1250.4 882.95 1248.8 883.8 1247.8 885.25
L 1247.65 885.25 1247.8 873.95 1244.75 873.95 1244.75 902.75 1247.8 902.75 1247.8 891.45
Q 1247.85 889.45 1248.4 887.95
M 1223 889
L 1223 889.55
Q 1223.15 891.2 1224 892.6
L 1224.2 892.95
Q 1225.15 894.2 1226.55 894.8
L 1225.95 895.15
Q 1225.4 895.55 1224.65 896.4 1224.05 897.2 1224.05 898.35
L 1224.05 898.55
Q 1224.2 899.45 1224.6 900.05
L 1224.65 900.15
Q 1225.2 900.85 1225.95 901.15 1225 901.4 1224.4 901.65 1223.25 902.15 1222.6 903 1221.4 904.35 1221.4 906.2
L 1221.4 906.55
Q 1221.45 907.65 1222 908.65 1222.55 909.65 1223.55 910.4 1224.25 910.85 1225.25 911.2 1227 911.85 1229.65 911.85 1234.95 911.85 1237.6 910.05
L 1237.65 910
Q 1239.35 908.85 1239.95 907.25 1240.25 906.35 1240.25 904.95 1240.25 902.25 1238.55 900.95 1237.4 900 1235.4 899.65
L 1229.25 899.55
Q 1228 899.4 1227.55 899.15
L 1227.45 899.05
Q 1227.05 898.85 1226.95 898.4
L 1226.8 897.85
Q 1226.8 896.65 1227.95 895.85 1228.15 895.65 1228.8 895.25
L 1229.35 895.35
Q 1229.75 895.4 1230.45 895.4
L 1231.2 895.4
Q 1232.75 895.25 1233.4 895.05 1235 894.65 1236.05 893.65 1237.35 892.55 1237.8 891.05 1238.15 889.85 1238.15 888.85
L 1237.75 886.55 1237.6 886.2 1236.8 884.8 1240.55 884.4 1240.55 882.45 1233.55 882.45
Q 1232.75 882.2 1232.2 882.2
L 1230.65 882.05 1229.65 882.15
Q 1226.75 882.35 1225 883.85 1223.6 885.2 1223.2 886.95 1223 887.95 1223 889
M 1230.55 884.35
Q 1231.4 884.35 1232.2 884.55 1235.05 885.2 1235.05 888.85 1235.05 892.25 1232.35 893.05 1231.55 893.25 1230.6 893.25
L 1230.2 893.25
Q 1228.35 893.2 1227.25 892.15 1226.95 891.95 1226.75 891.55 1226.35 891.05 1226.15 890.2
L 1226 888.95 1226.05 888.25
Q 1226.2 886.55 1227.2 885.45 1228 884.65 1229.2 884.45 1229.65 884.35 1230.55 884.35
M 1235.6 902.6
L 1236.35 902.95
Q 1236.8 903.25 1236.95 903.55
L 1237.25 904.4 1237.35 905.2
Q 1237.35 906.6 1236.55 907.45 1235.85 908.15 1235.45 908.35 1234.05 909.2 1231.75 909.4 1230.4 909.55 1229.75 909.45 1227.95 909.45 1226.95 909.15 1226.55 909.05 1225.75 908.65 1224.35 907.8 1224.35 906.15
L 1224.45 905.15
Q 1224.65 904 1225.55 903.25
L 1226.2 902.8
Q 1226.8 902.45 1227.55 902.4
L 1228.8 902.25 1232.45 902.25
Q 1233.35 902.25 1233.75 902.35 1234.65 902.35 1235.6 902.6
M 1217.2 875.4
Q 1216.65 874.95 1215.85 874.95 1215.05 874.95 1214.6 875.4 1214.25 875.65 1214.15 876.4
L 1214.05 876.95 1214.2 877.85
Q 1214.35 878.25 1214.6 878.45
L 1215.2 878.85 1215.85 879
Q 1216.65 879 1217.2 878.45
L 1217.45 878.05
Q 1217.75 877.55 1217.75 876.95
L 1217.65 876.6
Q 1217.65 875.85 1217.2 875.4
M 1838.35 442.85
L 1838.35 439.75 1809.55 439.75 1809.55 442.85 1838.35 442.85
M 1837.4 418.05
L 1834.65 418.05 1834.8 418.45
Q 1836 421.35 1836 424.55 1836 425.45 1835.8 426.45 1835.55 428.15 1834.15 429.4 1832.95 430.45 1830.8 431 1828.8 431.2 1828.75 431.2
L 1828.75 417.2 1826.8 417.2
Q 1825.25 417.2 1824.15 417.45 1821.8 418 1820.2 419.4 1818.65 420.75 1818 422.8 1817.65 424.25 1817.65 425.45 1817.65 429.55 1820.55 431.95 1822.45 433.6 1825.15 434.05 1826.95 434.4 1828.35 434.4 1830 434.4 1832 433.95 1834.35 433.25 1835.95 431.8 1838.75 429.05 1838.75 424.65
L 1838.65 423.8
Q 1838.65 422.85 1838.6 422.45
L 1838.4 421.15 1837.4 418.05
M 1824.55 420.6
L 1826.25 420.45 1826.25 431.15 1825.75 431.05
Q 1824.4 430.8 1823.85 430.6 1822.65 430.15 1821.8 429.4 1820.25 427.85 1820.25 425.45 1820.25 424.75 1820.35 424.35 1820.65 422.75 1821.8 421.8
L 1822.95 421.05 1824.55 420.6
M 1838.35 411.05
L 1838.35 408 1820.4 408 1820.4 402.8 1818.05 402.8 1818.05 408 1816.25 408
Q 1814.05 407.85 1813 407.15 1812.25 406.6 1811.95 405.6
L 1811.85 403.8 1812.4 401.55 1809.95 400.75 1809.4 403.15 1809.35 404.55
Q 1809.35 409.75 1814 410.75 1815.05 411.05 1816.8 411.05
L 1817.95 411.05 1819.05 414.65 1820.4 414.65 1820.4 411.05 1838.35 411.05
M 1820.4 395.8
L 1820.4 389.95 1818.05 389.95 1818.05 395.8 1813.35 395.8 1813.35 397.6 1817.65 398.85 1818.95 401.8 1820.4 401.8 1820.4 398.85 1832.45 398.85
Q 1833.65 398.85 1834.75 398.65 1838.75 397.65 1838.75 393
L 1838.75 392.85 1838.55 391.25 1838.55 391.05 1838.15 389.8 1835.8 389.8 1836 390.55 1836.05 391 1836.05 391.05 1836.2 392.55 1836.15 393.2
Q 1835.95 394.2 1835.2 394.95
L 1834.55 395.4 1833.45 395.75 1820.4 395.8
M 2029.2 485.55
L 2026.85 485.55 2026.85 490.65 2025.05 490.65
Q 2022.95 490.55 2021.8 489.85 2021.05 489.35 2020.75 488.25
L 2020.65 486.45 2021.2 484.2 2018.75 483.4 2018.2 485.8 2018.15 487.2
Q 2018.15 492.4 2022.8 493.45 2023.95 493.75 2025.6 493.75
L 2026.75 493.75 2027.85 497.4 2029.2 497.4 2029.2 493.75 2047.15 493.75 2047.15 490.65 2029.2 490.65 2029.2 485.55
M 2026.45 472.55
Q 2026.45 474.55 2027.55 476.05 2028.2 476.95 2028.95 477.6 2029.6 478.15 2030.6 478.75
L 2030.6 478.95 2026.85 479.25 2026.85 481.8 2047.15 481.8 2047.15 478.75 2035.2 478.65
Q 2032.95 478.45 2031.25 477
L 2030.95 476.65
Q 2029.25 475.15 2029.25 472.75
L 2029.55 470.55 2026.65 470.15 2026.55 471.25
Q 2026.45 471.65 2026.45 472.55
M 2046.2 463.05
Q 2046.75 462.2 2047.05 461.05 2047.55 459.75 2047.55 458.2 2047.55 457.15 2047.35 456.15 2046.95 453.25 2044.75 451.25
L 2043.35 450.25
Q 2041.8 449.45 2040.05 449.05 2038.75 448.8 2036.95 448.8 2032.05 448.8 2029.25 451.35 2027.6 452.65 2026.85 455.05 2026.45 456.45 2026.45 458.05 2026.45 459.2 2026.65 460.2 2027.05 463.05 2029.25 464.95 2030 465.65 2030.65 466 2033.25 467.45 2036.95 467.45 2038.25 467.45 2039.45 467.25 2041.2 466.95 2042.55 466.25
L 2043 466.05
Q 2045.05 465.05 2046.2 463.05
M 2038.85 452.05
Q 2041.2 452.35 2042.95 453.55 2044.95 455.15 2044.95 458.15
L 2044.8 459.4
Q 2044.6 461.45 2042.85 462.75 2042.05 463.25 2041.25 463.6
L 2039.2 464.15 2034.95 464.15
Q 2033.8 464 2033 463.75 2032.05 463.4 2031.05 462.75 2029.65 461.65 2029.25 460 2029.05 459.05 2029.05 458.2 2029.05 455.15 2031.05 453.55 2032.45 452.45 2034.8 452.15 2035.55 452 2036.95 452
L 2038.85 452.05
M 2030.25 427
Q 2029.2 427.4 2028.2 428.25 2027.55 429.05 2027.25 429.75 2026.45 431.4 2026.45 433.8
L 2026.45 434.65
Q 2026.65 436.2 2027.25 437.6 2028.2 439.35 2029.6 440.25
L 2029.6 440.4 2026.85 440.95 2026.85 443.4 2047.15 443.4 2047.15 440.35 2035.8 440.35
Q 2033.75 440.2 2032.35 439.75 2031.65 439.45 2030.8 438.85 2029.6 437.75 2029.2 435.95
L 2029.05 434.2
Q 2029.05 433.05 2029.4 432.05 2029.75 431.2 2030.25 430.65 2031.15 429.95 2032.65 429.6
L 2047.15 429.55 2047.15 426.45 2032.15 426.55
Q 2030.8 426.8 2030.25 427
M 2047.55 413.95
L 2047.35 412.25 2047.35 412.05 2046.95 410.8 2044.6 410.8 2044.8 411.55 2044.85 412 2044.85 412.05 2045 413.6 2044.95 414.2
Q 2044.75 415.35 2044 415.95
L 2043.35 416.4 2042.25 416.75 2029.2 416.8 2029.2 410.95 2026.85 410.95 2026.85 416.8 2022.15 416.8 2022.15 418.6 2026.45 419.95 2027.75 422.8 2029.2 422.8 2029.2 419.95 2041.25 419.95
Q 2042.05 419.95 2043.55 419.65 2047.55 418.65 2047.55 414
L 2047.55 413.95 Z"/>
</g>
</g>

<g>
<path stroke="#FF0000" stroke-width="0.25" stroke-linejoin="miter" stroke-linecap="round" stroke-miterlimit="11" fill="none" d="
M 2116.25 828.6
L 2116.25 796.75 2127.6 796.75 2127.6 763.4 2116.25 763.4 2116.25 731.55 2127.6 731.55 2127.6 698.25 2116.25 698.25 2116.25 666.35 2127.6 666.35 2127.6 633.05 2116.25 633.05 2116.25 601.15 2127.6 601.15 2127.6 567.85 2116.25 567.85 2116.25 535.95 2127.6 535.95 2127.6 502.65 2116.25 502.65 2116.25 470.75 2127.6 470.75 2127.6 437.45 2116.25 437.45 2116.25 405.55 2127.6 405.55 2127.6 372.25 2116.25 372.25 2116.25 340.35 2127.6 340.35 2127.6 307.05 2116.25 307.05 2116.25 275.15 2127.6 275.15 2127.6 241.85 2116.25 241.85 2116.25 209.95 2127.6 209.95 2127.6 176.65 2116.25 176.65 2116.25 144.75 2127.6 144.75 2127.6 111.45 2116.25 111.45 2116.25 79.55 2127.6 79.55 2127.6 38 2081.4 38 2081.4 49.35 2049.45 49.35 2049.45 38 2016.2 38 2016.2 49.35 1984.25 49.35 1984.25 38 1938 38 1938 79.55 1949.35 79.55 1949.35 111.45 1938 111.45 1938 144.75 1949.35 144.75 1949.35 176.65 1938 176.65 1938 209.95 1949.35 209.95 1949.35 241.85 1938 241.85 1938 275.15 1949.35 275.15 1949.35 307.05 1938 307.05 1938 340.35 1949.35 340.35 1949.35 372.25 1938 372.25 1938 405.55 1949.35 405.55 1949.35 437.45 1938 437.45 1938 470.75 1949.35 470.75 1949.35 502.65 1938 502.65 1938 535.95 1949.35 535.95 1949.35 567.85 1938 567.85 1938 601.15 1949.35 601.15 1949.35 633.05 1938 633.05 1938 666.35 1949.35 666.35 1949.35 698.25 1938 698.25 1938 731.55 1949.35 731.55 1949.35 763.4 1938 763.4 1938 796.75 1949.35 796.75 1949.35 828.6 1938 828.6 1938 870.15 1984.25 870.15 1984.25 858.8 2016.2 858.8 2016.2 870.15 2049.45 870.15 2049.45 858.8 2081.4 858.8 2081.4 870.15 2127.6 870.15 2127.6 828.6 2116.25 828.6 Z
M 1907.45 758.25
L 1907.45 726.35 1918.8 726.35 1918.8 693.05 1907.45 693.05 1907.45 661.15 1918.8 661.15 1918.8 627.85 1907.45 627.85 1907.45 595.95 1918.8 595.95 1918.8 562.65 1907.45 562.65 1907.45 530.75 1918.8 530.75 1918.8 497.45 1907.45 497.45 1907.45 465.55 1918.8 465.55 1918.8 432.25 1907.45 432.25 1907.45 400.35 1918.8 400.35 1918.8 367.05 1907.45 367.05 1907.45 335.15 1918.8 335.15 1918.8 301.85 1907.45 301.85 1907.45 269.95 1918.8 269.95 1918.8 236.65 1907.45 236.65 1907.45 204.75 1918.8 204.75 1918.8 171.45 1907.45 171.45 1907.45 139.55 1918.8 139.55 1918.8 106.25 1907.45 106.25 1907.45 74.35 1918.8 74.35 1918.8 49.35 1873.25 49.35 1873.25 38 1840 38 1840 49.35 1808.05 49.35 1808.05 38 1774.8 38 1774.8 49.35 1729.2 49.35 1729.2 74.35 1740.55 74.35 1740.55 106.25 1729.2 106.25 1729.2 139.55 1740.55 139.55 1740.55 171.45 1729.2 171.45 1729.2 204.75 1740.55 204.75 1740.55 236.65 1729.2 236.65 1729.2 269.95 1740.55 269.95 1740.55 301.85 1729.2 301.85 1729.2 335.15 1740.55 335.15 1740.55 367.05 1729.2 367.05 1729.2 400.35 1740.55 400.35 1740.55 432.25 1729.2 432.25 1729.2 465.55 1740.55 465.55 1740.55 497.45 1729.2 497.45 1729.2 530.75 1740.55 530.75 1740.55 562.65 1729.2 562.65 1729.2 595.95 1740.55 595.95 1740.55 627.85 1729.2 627.85 1729.2 661.15 1740.55 661.15 1740.55 693.05 1729.2 693.05 1729.2 726.35 1740.55 726.35 1740.55 758.25 1729.2 758.25 1729.2 783.25 1774.8 783.25 1774.8 794.6 1808.05 794.6 1808.05 783.25 1840 783.25 1840 794.6 1873.25 794.6 1873.25 783.25 1918.8 783.25 1918.8 758.25 1907.45 758.25 Z
M 947.65 782.65
L 979.6 782.65 979.6 794 1012.85 794 1012.85 782.65 1044.8 782.65 1044.8 794 1078.05 794 1078.05 782.65 1110 782.65 1110 794 1143.25 794 1143.25 782.65 1175.2 782.65 1175.2 794 1208.45 794 1208.45 782.65 1240.4 782.65 1240.4 794 1273.65 794 1273.65 782.65 1305.6 782.65 1305.6 794 1338.85 794 1338.85 782.65 1370.75 782.65 1370.75 794 1404.05 794 1404.05 782.65 1435.95 782.65 1435.95 794 1469.25 794 1469.25 782.65 1501.15 782.65 1501.15 794 1534.4 794 1534.4 782.65 1566.35 782.65 1566.35 794 1599.6 794 1599.6 782.65 1631.55 782.65 1631.55 794 1664.8 794 1664.8 782.65 1694.35 782.65 1694.35 758.35 1705.65 758.35 1705.65 725.05 1694.35 725.05 1694.35 693.15 1705.65 693.15 1705.65 659.85 1694.35 659.85 1694.35 628 1705.65 628 1705.65 594.65 1694.35 594.65 1694.35 562.8 1705.65 562.8 1705.65 529.55 1694.35 529.55 1694.35 497.6 1705.65 497.6 1705.65 464.35 1694.35 464.35 1694.35 432.4 1705.65 432.4 1705.65 399.15 1694.35 399.15 1694.35 367.2 1705.65 367.2 1705.65 333.95 1694.35 333.95 1694.35 302 1705.65 302 1705.65 268.75 1694.35 268.75 1694.35 236.8 1705.65 236.8 1705.65 203.55 1694.35 203.55 1694.35 171.6 1705.65 171.6 1705.65 138.35 1694.35 138.35 1694.35 106.4 1705.65 106.4 1705.65 73.15 1694.35 73.15 1694.35 48.8 1664.8 48.8 1664.8 37.45 1631.55 37.45 1631.55 48.8 1599.6 48.8 1599.6 37.45 1566.35 37.45 1566.35 48.8 1534.4 48.8 1534.4 37.45 1501.15 37.45 1501.15 48.8 1469.25 48.8 1469.25 37.45 1435.95 37.45 1435.95 48.8 1404.05 48.8 1404.05 37.45 1370.75 37.45 1370.75 48.8 1338.85 48.8 1338.85 37.45 1305.6 37.45 1305.6 48.8 1273.65 48.8 1273.65 37.45 1240.4 37.45 1240.4 48.8 1208.45 48.8 1208.45 37.45 1175.2 37.45 1175.2 48.8 1143.25 48.8 1143.25 37.45 1110 37.45 1110 48.8 1078.05 48.8 1078.05 37.45 1044.8 37.45 1044.8 48.8 1012.85 48.8 1012.85 37.45 979.6 37.45 979.6 48.8 947.65 48.8 947.65 37.45 914.4 37.45 914.4 48.8 884.85 48.8 884.85 73.15 873.55 73.15 873.55 106.4 884.85 106.4 884.85 138.35 873.55 138.35 873.55 171.6 884.85 171.6 884.85 203.55 873.55 203.55 873.55 236.8 884.85 236.8 884.85 268.75 873.55 268.75 873.55 302 884.85 302 884.85 333.95 873.55 333.95 873.55 367.2 884.85 367.2 884.85 399.15 873.55 399.15 873.55 432.4 884.85 432.4 884.85 464.35 873.55 464.35 873.55 497.6 884.85 497.6 884.85 529.55 873.55 529.55 873.55 562.8 884.85 562.8 884.85 594.65 873.55 594.65 873.55 628 884.85 628 884.85 659.85 873.55 659.85 873.55 693.15 884.85 693.15 884.85 725.05 873.55 725.05 873.55 758.35 884.85 758.35 884.85 782.65 914.4 782.65 914.4 794 947.65 794 947.65 782.65 Z
M 896.15 976.4
L 928.05 976.4 928.05 987.75 961.35 987.75 961.35 976.4 993.25 976.4 993.25 987.75 1026.55 987.75 1026.55 976.4 1058.45 976.4 1058.45 987.75 1091.75 987.75 1091.75 976.4 1123.65 976.4 1123.65 987.75 1156.95 987.75 1156.95 976.4 1188.85 976.4 1188.85 987.75 1222.15 987.75 1222.15 976.4 1254.05 976.4 1254.05 987.75 1287.35 987.75 1287.35 976.4 1319.25 976.4 1319.25 987.75 1352.55 987.75 1352.55 976.4 1384.45 976.4 1384.45 987.75 1417.75 987.75 1417.75 976.4 1449.65 976.4 1449.65 987.75 1482.95 987.75 1482.95 976.4 1514.85 976.4 1514.85 987.75 1548.15 987.75 1548.15 976.4 1580.05 976.4 1580.05 987.75 1605.05 987.75 1605.05 942.15 1616.4 942.15 1616.4 908.85 1605.05 908.85 1605.05 876.95 1616.4 876.95 1616.4 843.65 1605.05 843.65 1605.05 798.05 1580.05 798.05 1580.05 809.4 1548.15 809.4 1548.15 798.05 1514.85 798.05 1514.85 809.4 1482.95 809.4 1482.95 798.05 1449.65 798.05 1449.65 809.4 1417.75 809.4 1417.75 798.05 1384.45 798.05 1384.45 809.4 1352.55 809.4 1352.55 798.05 1319.25 798.05 1319.25 809.4 1287.35 809.4 1287.35 798.05 1254.05 798.05 1254.05 809.4 1222.15 809.4 1222.15 798.05 1188.85 798.05 1188.85 809.4 1156.95 809.4 1156.95 798.05 1123.65 798.05 1123.65 809.4 1091.75 809.4 1091.75 798.05 1058.45 798.05 1058.45 809.4 1026.55 809.4 1026.55 798.05 993.25 798.05 993.25 809.4 961.35 809.4 961.35 798.05 928.05 798.05 928.05 809.4 896.15 809.4 896.15 798.05 871.15 798.05 871.15 843.65 859.8 843.65 859.8 876.95 871.15 876.95 871.15 908.85 859.8 908.85 859.8 942.15 871.15 942.15 871.15 987.75 896.15 987.75 896.15 976.4 Z
M 90.15 764.6
L 122.05 764.6 122.05 775.95 155.35 775.95 155.35 764.6 187.25 764.6 187.25 775.95 220.55 775.95 220.55 764.6 252.45 764.6 252.45 775.95 285.75 775.95 285.75 764.6 317.65 764.6 317.65 775.95 350.95 775.95 350.95 764.6 382.85 764.6 382.85 775.95 416.15 775.95 416.15 764.6 448.05 764.6 448.05 775.95 481.35 775.95 481.35 764.6 513.2 764.6 513.2 775.95 546.55 775.95 546.55 764.6 578.4 764.6 578.4 775.95 611.75 775.95 611.75 764.6 643.6 764.6 643.6 775.95 676.85 775.95 676.85 764.6 708.8 764.6 708.8 775.95 742.05 775.95 742.05 764.6 774 764.6 774 775.95 807.25 775.95 807.25 764.6 836.8 764.6 836.8 740.25 848.15 740.25 848.15 707 836.8 707 836.8 675.05 848.15 675.05 848.15 641.8 836.8 641.8 836.8 609.85 848.15 609.85 848.15 576.6 836.8 576.6 836.8 544.65 848.15 544.65 848.15 511.4 836.8 511.4 836.8 479.45 848.15 479.45 848.15 446.2 836.8 446.2 836.8 414.25 848.15 414.25 848.15 381 836.8 381 836.8 349.05 848.15 349.05 848.15 315.8 836.8 315.8 836.8 283.85 848.15 283.85 848.15 250.6 836.8 250.6 836.8 218.65 848.15 218.65 848.15 185.4 836.8 185.4 836.8 153.45 848.15 153.45 848.15 120.2 836.8 120.2 836.8 88.25 848.15 88.25 848.15 55 836.8 55 836.8 30.65 807.25 30.65 807.25 19.35 774 19.35 774 30.65 742.05 30.65 742.05 19.35 708.8 19.35 708.8 30.65 676.85 30.65 676.85 19.35 643.6 19.35 643.6 30.65 611.75 30.65 611.75 19.35 578.4 19.35 578.4 30.65 546.55 30.65 546.55 19.35 513.2 19.35 513.2 30.65 481.35 30.65 481.35 19.35 448.05 19.35 448.05 30.65 416.15 30.65 416.15 19.35 382.85 19.35 382.85 30.65 350.95 30.65 350.95 19.35 317.65 19.35 317.65 30.65 285.75 30.65 285.75 19.35 252.45 19.35 252.45 30.65 220.55 30.65 220.55 19.35 187.25 19.35 187.25 30.65 155.35 30.65 155.35 19.35 122.05 19.35 122.05 30.65 90.15 30.65 90.15 19.35 56.85 19.35 56.85 30.65 27.35 30.65 27.35 55 16 55 16 88.25 27.35 88.25 27.35 120.2 16 120.2 16 153.45 27.35 153.45 27.35 185.4 16 185.4 16 218.65 27.35 218.65 27.35 250.6 16 250.6 16 283.85 27.35 283.85 27.35 315.8 16 315.8 16 349.05 27.35 349.05 27.35 381 16 381 16 414.25 27.35 414.25 27.35 446.2 16 446.2 16 479.45 27.35 479.45 27.35 511.4 16 511.4 16 544.65 27.35 544.65 27.35 576.6 16 576.6 16 609.85 27.35 609.85 27.35 641.8 16 641.8 16 675.05 27.35 675.05 27.35 707 16 707 16 740.25 27.35 740.25 27.35 764.6 56.85 764.6 56.85 775.95 90.15 775.95 90.15 764.6 Z
M 57.85 976.4
L 89.75 976.4 89.75 987.75 123.05 987.75 123.05 976.4 154.95 976.4 154.95 987.75 188.2 987.75 188.2 976.4 220.15 976.4 220.15 987.75 253.4 987.75 253.4 976.4 285.35 976.4 285.35 987.75 318.6 987.75 318.6 976.4 350.55 976.4 350.55 987.75 383.8 987.75 383.8 976.4 415.75 976.4 415.75 987.75 449 987.75 449 976.4 480.95 976.4 480.95 987.75 514.2 987.75 514.2 976.4 546.15 976.4 546.15 987.75 579.4 987.75 579.4 976.4 611.35 976.4 611.35 987.75 644.6 987.75 644.6 976.4 676.55 976.4 676.55 987.75 709.8 987.75 709.8 976.4 741.75 976.4 741.75 987.75 775 987.75 775 976.4 806.95 976.4 806.95 987.75 848.45 987.75 848.45 941.45 837.15 941.45 837.15 909.55 848.45 909.55 848.45 876.25 837.15 876.25 837.15 844.35 848.45 844.35 848.45 798.05 806.95 798.05 806.95 809.4 775 809.4 775 798.05 741.75 798.05 741.75 809.4 709.8 809.4 709.8 798.05 676.55 798.05 676.55 809.4 644.6 809.4 644.6 798.05 611.35 798.05 611.35 809.4 579.4 809.4 579.4 798.05 546.15 798.05 546.15 809.4 514.2 809.4 514.2 798.05 480.95 798.05 480.95 809.4 449 809.4 449 798.05 415.75 798.05 415.75 809.4 383.8 809.4 383.8 798.05 350.55 798.05 350.55 809.4 318.6 809.4 318.6 798.05 285.35 798.05 285.35 809.4 253.4 809.4 253.4 798.05 220.15 798.05 220.15 809.4 188.2 809.4 188.2 798.05 154.95 798.05 154.95 809.4 123.05 809.4 123.05 798.05 89.75 798.05 89.75 809.4 57.85 809.4 57.85 798.05 16.35 798.05 16.35 844.35 27.65 844.35 27.65 876.25 16.35 876.25 16.35 909.55 27.65 909.55 27.65 941.45 16.35 941.45 16.35 987.75 57.85 987.75 57.85 976.4 Z"/>
</g>

<g>
<path stroke="#0000FF" stroke-width="2" stroke-linejoin="miter" stroke-linecap="round" stroke-miterlimit="11" fill="none" d="
M 2044.6 410.8
L 2046.95 410.8 2047.35 412.05 2047.35 412.25 2047.55 413.95 2047.55 414
Q 2047.55 418.65 2043.55 419.65 2042.05 419.95 2041.25 419.95
L 2029.2 419.95 2029.2 422.8 2027.75 422.8 2026.45 419.95 2022.15 418.6 2022.15 416.8 2026.85 416.8 2026.85 410.95 2029.2 410.95 2029.2 416.8 2042.25 416.75 2043.35 416.4 2044 415.95
Q 2044.75 415.35 2044.95 414.2
L 2045 413.6 2044.85 412.05 2044.85 412 2044.8 411.55 2044.6 410.8 Z
M 2047.15 426.45
L 2047.15 429.55 2032.65 429.6
Q 2031.15 429.95 2030.25 430.65 2029.75 431.2 2029.4 432.05 2029.05 433.05 2029.05 434.2
L 2029.2 435.95
Q 2029.6 437.75 2030.8 438.85 2031.65 439.45 2032.35 439.75 2033.75 440.2 2035.8 440.35
L 2047.15 440.35 2047.15 443.4 2026.85 443.4 2026.85 440.95 2029.6 440.4 2029.6 440.25
Q 2028.2 439.35 2027.25 437.6 2026.65 436.2 2026.45 434.65
L 2026.45 433.8
Q 2026.45 431.4 2027.25 429.75 2027.55 429.05 2028.2 428.25 2029.2 427.4 2030.25 427 2030.8 426.8 2032.15 426.55
L 2047.15 426.45 Z
M 2040.05 449.05
Q 2038.75 448.8 2036.95 448.8 2032.05 448.8 2029.25 451.35 2027.6 452.65 2026.85 455.05 2026.45 456.45 2026.45 458.05 2026.45 459.2 2026.65 460.2 2027.05 463.05 2029.25 464.95 2030 465.65 2030.65 466 2033.25 467.45 2036.95 467.45 2038.25 467.45 2039.45 467.25 2041.2 466.95 2042.55 466.25
L 2043 466.05
Q 2045.05 465.05 2046.2 463.05 2046.75 462.2 2047.05 461.05 2047.55 459.75 2047.55 458.2 2047.55 457.15 2047.35 456.15 2046.95 453.25 2044.75 451.25
L 2043.35 450.25
Q 2041.8 449.45 2040.05 449.05 Z
M 2034.95 464.15
L 2039.2 464.15 2041.25 463.6
Q 2042.05 463.25 2042.85 462.75 2044.6 461.45 2044.8 459.4
L 2044.95 458.15
Q 2044.95 455.15 2042.95 453.55 2041.2 452.35 2038.85 452.05
L 2036.95 452
Q 2035.55 452 2034.8 452.15 2032.45 452.45 2031.05 453.55 2029.05 455.15 2029.05 458.2 2029.05 459.05 2029.25 460 2029.65 461.65 2031.05 462.75 2032.05 463.4 2033 463.75 2033.8 464 2034.95 464.15 Z
M 2026.65 470.15
L 2029.55 470.55 2029.25 472.75
Q 2029.25 475.15 2030.95 476.65
L 2031.25 477
Q 2032.95 478.45 2035.2 478.65
L 2047.15 478.75 2047.15 481.8 2026.85 481.8 2026.85 479.25 2030.6 478.95 2030.6 478.75
Q 2029.6 478.15 2028.95 477.6 2028.2 476.95 2027.55 476.05 2026.45 474.55 2026.45 472.55 2026.45 471.65 2026.55 471.25
L 2026.65 470.15 Z
M 2026.85 485.55
L 2029.2 485.55 2029.2 490.65 2047.15 490.65 2047.15 493.75 2029.2 493.75 2029.2 497.4 2027.85 497.4 2026.75 493.75 2025.6 493.75
Q 2023.95 493.75 2022.8 493.45 2018.15 492.4 2018.15 487.2
L 2018.2 485.8 2018.75 483.4 2021.2 484.2 2020.65 486.45 2020.75 488.25
Q 2021.05 489.35 2021.8 489.85 2022.95 490.55 2025.05 490.65
L 2026.85 490.65 2026.85 485.55 Z
M 1835.8 389.8
L 1838.15 389.8 1838.55 391.05 1838.55 391.25 1838.75 392.85 1838.75 393
Q 1838.75 397.65 1834.75 398.65 1833.65 398.85 1832.45 398.85
L 1820.4 398.85 1820.4 401.8 1818.95 401.8 1817.65 398.85 1813.35 397.6 1813.35 395.8 1818.05 395.8 1818.05 389.95 1820.4 389.95 1820.4 395.8 1833.45 395.75 1834.55 395.4 1835.2 394.95
Q 1835.95 394.2 1836.15 393.2
L 1836.2 392.55 1836.05 391.05 1836.05 391 1836 390.55 1835.8 389.8 Z
M 1818.05 402.8
L 1820.4 402.8 1820.4 408 1838.35 408 1838.35 411.05 1820.4 411.05 1820.4 414.65 1819.05 414.65 1817.95 411.05 1816.8 411.05
Q 1815.05 411.05 1814 410.75 1809.35 409.75 1809.35 404.55
L 1809.4 403.15 1809.95 400.75 1812.4 401.55 1811.85 403.8 1811.95 405.6
Q 1812.25 406.6 1813 407.15 1814.05 407.85 1816.25 408
L 1818.05 408 1818.05 402.8 Z
M 1826.8 417.2
L 1828.75 417.2 1828.75 431.2
Q 1828.8 431.2 1830.8 431 1832.95 430.45 1834.15 429.4 1835.55 428.15 1835.8 426.45 1836 425.45 1836 424.55 1836 421.35 1834.8 418.45
L 1834.65 418.05 1837.4 418.05 1838.4 421.15 1838.6 422.45
Q 1838.65 422.85 1838.65 423.8
L 1838.75 424.65
Q 1838.75 429.05 1835.95 431.8 1834.35 433.25 1832 433.95 1830 434.4 1828.35 434.4 1826.95 434.4 1825.15 434.05 1822.45 433.6 1820.55 431.95 1817.65 429.55 1817.65 425.45 1817.65 424.25 1818 422.8 1818.65 420.75 1820.2 419.4 1821.8 418 1824.15 417.45 1825.25 417.2 1826.8 417.2 Z
M 1826.25 431.15
L 1826.25 420.45 1824.55 420.6 1822.95 421.05 1821.8 421.8
Q 1820.65 422.75 1820.35 424.35 1820.25 424.75 1820.25 425.45 1820.25 427.85 1821.8 429.4 1822.65 430.15 1823.85 430.6 1824.4 430.8 1825.75 431.05
L 1826.25 431.15 Z
M 1809.55 439.75
L 1838.35 439.75 1838.35 442.85 1809.55 442.85 1809.55 439.75 Z
M 681 454.4
L 668.75 454.4 668.75 401.65
Q 668.75 399 668.35 396.4 667.55 390.65 664.6 387.2 660.4 382.35 651.75 382.35 648.45 382.35 645.35 382.95 641.55 383.75 638.6 385.55 636.25 387.05 634.8 388.95 629.35 395.55 629.35 409
L 629.35 454.4 617.05 454.4 617.05 401.65
Q 617.05 398.6 616.75 396.4 615.85 390.6 612.95 387.2 610.45 384.35 607 383.35 604.8 382.6 602.25 382.4
L 600 382.35
Q 596.85 382.35 593.75 382.95 589.95 383.75 586.95 385.65 584.75 387.2 583.15 389.25 581.2 391.75 580.05 395 577.8 401.55 577.8 411.85
L 577.8 454.4 565.55 454.4 565.55 373.4 575.45 373.4 577.45 384.45 578.05 384.45
Q 581.65 378.4 587.85 375.25 593.25 372.4 599.35 372
L 602 371.95
Q 606.45 371.85 611.05 372.85 616.65 374.2 620.45 377.2 624.75 380.55 626.85 385.65
L 627.4 385.65
Q 631 379.55 637.05 376.05
L 637.95 375.6
Q 644.65 371.95 653.6 371.95 662.8 371.95 669 375.15 672.15 376.8 674.15 379 677.25 382.25 678.65 386.4 681 392.6 681 401.55
L 681 454.4 Z
M 404.55 444.25
L 404.55 453.6
Q 403.8 454 403.05 454.2 401.25 454.8 398.65 455.2
L 395.2 455.65
Q 393.05 455.8 392.05 455.85
L 391.65 455.85
Q 386.65 455.85 382.2 454.6 371.85 451.4 369.15 440.15 368.15 435.65 368.15 431.05
L 368.15 382.95 356.55 382.95 356.55 377 368.15 371.95 373.35 354.6 380.4 354.6 380.4 373.4 403.95 373.4 403.95 382.95 380.4 382.95 380.4 430.6
Q 380.4 437.85 383.95 441.8 386.75 445 390.95 445.55
L 393.4 445.75
Q 396.45 445.75 399.35 445.35
L 401.45 444.95
Q 403.35 444.6 404.35 444.25
L 404.55 444.25 Z
M 457.95 444.25
L 457.95 453.6 456.55 454.2
Q 454.75 454.8 452.05 455.2
L 448.6 455.65
Q 446.45 455.8 445.45 455.85
L 445.05 455.85
Q 440.15 455.85 435.65 454.6 425.25 451.4 422.55 440.15 421.55 435.55 421.6 431.05
L 421.6 382.95 410 382.95 410 377 421.6 371.95 426.75 354.6 433.85 354.6 433.85 373.4 457.35 373.4 457.35 382.95 433.85 382.95 433.85 430.6
Q 433.85 437.95 437.35 441.8 440.15 445 444.35 445.55
L 446.85 445.75
Q 449.85 445.75 452.75 445.35
L 454.85 444.95
Q 456.85 444.6 457.8 444.25
L 457.95 444.25 Z
M 482.35 413.8
Q 482.35 429.25 488.55 437.45 494.75 445.6 506.8 445.6 510.55 445.6 514.25 444.65 520.8 442.95 525.05 437.45 531.25 429.4 531.25 413.8 531.35 409.65 530.75 405.05 530.05 400.65 528.75 397.05 527.45 393.6 525.05 390.35 520.2 384.2 512.55 382.85 509.95 382.35 506.6 382.35 502.8 382.35 499.35 383.2 492.75 384.75 488.45 390.25 484 396 482.8 405.65 482.35 409.4 482.35 413.8 Z
M 534 444.75
Q 536.2 442.35 538.15 439.15 544 429.05 544 413.8
L 544 411.85
Q 543.8 404.95 542.35 399.4 540.2 390.35 534 383.2 527.85 376.2 519.05 373.6 512.95 371.85 507 371.95 502.8 371.85 498.45 372.65 487.2 374.4 479.55 382.95 469.6 394.05 469.6 413.8 469.6 418.85 470.4 423.75 471.4 430.25 474.2 436.15
L 475.05 437.85
Q 479.25 445.95 487.2 450.75 495.65 455.85 506.45 455.85 510.55 455.85 514.8 455.15 526.25 453.4 534 444.75 Z
M 195.4 443.95
L 194.55 443.95 191.95 454.4 183.15 454.4 183.15 339.4 195.4 339.4 195.4 367.35
Q 195.4 377.25 194.85 383.65
L 194.8 384.2 195.4 384.2
Q 198.95 379.15 204.35 376 209.6 372.95 215.8 372.35 218 372.05 220.85 372.05 225.85 372 231.4 373.45 240.05 375.95 245.6 382.95 250.05 388.65 251.95 395.15 254.45 403.35 254.45 413.8 254.45 419.75 253.55 425.95 252.45 432.2 250 437.55 248.35 441.4 245.55 444.8 241.75 449.55 236.35 452.4 231 455.2 224.95 455.65 222.85 455.85 220.85 455.85 216.2 455.85 211.45 454.75 208.95 454.05 206.4 452.95 199.6 449.85 195.4 443.95 Z
M 205.75 385.4
Q 203 387 200.95 389.55 198.95 392.35 197.95 395.35 195.4 402.4 195.4 413.8 195.4 418 195.8 422.2 196.65 430.55 199.55 435.8 200.25 437.15 201.15 438.2 206.85 445.6 219.35 445.6 222.8 445.6 226.35 444.65 232.6 442.8 236.2 437.35 241.75 429.05 241.75 413.65 241.75 409.55 241.35 405.4 240.2 396.2 236.8 390.95
L 236.2 390.05
Q 230.65 382.35 219.05 382.35 210.8 382.35 205.75 385.4 Z
M 335.8 444.75
Q 338.25 441.95 339.85 439.15 345.8 429 345.8 413.8
L 345.75 411.85
Q 345.55 405.15 344.15 399.4 341.95 390.25 335.75 383.2 329.75 376.25 320.85 373.6 314.75 371.85 308.75 371.95 304.55 371.85 300.2 372.65 294.75 373.55 289.85 376.2 285 378.8 281.25 382.95 271.4 394 271.4 413.8 271.35 418.65 272.15 423.75 273.15 430.25 275.95 436.15
L 276.85 437.85
Q 281.15 445.95 288.95 450.75 297.45 455.85 308.25 455.85 312.25 455.85 316.55 455.15 328.05 453.4 335.8 444.75 Z
M 284.05 413.8
Q 284.05 429.25 290.25 437.45 296.45 445.6 308.55 445.6 312.2 445.6 316.05 444.65 322.65 442.95 326.8 437.45 333.05 429.4 333.05 413.8 333.05 409.45 332.45 405.05 331.85 400.8 330.55 397.05 329.05 393.2 326.8 390.35 322 384.2 314.25 382.85 311.65 382.35 308.4 382.35 304.55 382.35 301.15 383.2 294.45 384.75 290.2 390.25 285.85 395.8 284.55 405.65 284.05 409.4 284.05 413.8 Z
M 431.05 907.15
L 428.8 907.15 428.2 904.2 428 904.2 427 905.4
Q 425.8 906.45 425 906.8 424.05 907.2 423.55 907.25 422.55 907.45 421.25 907.45 420.25 907.45 419.35 907.25 418.2 907.05 417.25 906.45
L 416.55 905.95
Q 414.8 904.4 414.8 901.45 414.75 899.85 415.55 898.55 416.4 897.15 417.8 896.45 420.35 895.2 424.6 895.05
L 428.05 894.95 428.05 893.65
Q 428.05 892.2 427.65 891.2 427.4 890.6 427.05 890.15 426.25 889.45 425.75 889.35
L 424.6 889.05 423.75 889
Q 421.65 889 419.25 890
L 418 890.6 417.05 888.2
Q 417.95 887.75 419.8 887.05
L 420.35 886.95
Q 422.45 886.45 423.95 886.45
L 425.95 886.6
Q 428.05 887 429.35 888.05 430.2 888.95 430.6 890 430.95 890.8 431 891.8
L 431.05 907.15 Z
M 396.15 904.45
L 395.95 904.45 395.25 907.15 393.05 907.15 393.05 878.25 396.15 878.25 396 889.55 396.15 889.55
Q 398 886.85 401.25 886.55
L 402.55 886.45
Q 403.65 886.45 405.15 886.8 407.4 887.55 408.75 889.2 409.85 890.6 410.35 892.25 410.95 894.25 410.95 896.95 410.95 900.4 409.8 902.85 409.55 903.55 408.75 904.75 406.8 907.2 403.55 907.4
L 402.55 907.45
Q 401.2 907.45 400.2 907.2
L 398.85 906.75
Q 397.25 906.05 396.15 904.45 Z
M 450.95 887.45
L 450 890.15 447.8 889.4
Q 446.75 889.2 445.95 889.2
L 445.65 889.15
Q 444.25 889.15 442.85 889.65 439.45 891.2 439.45 897.05
L 439.6 899.2
Q 439.85 900.55 440.15 901.2 440.45 902.15 441 902.8 442.15 904.35 444.15 904.65
L 445.45 904.8
Q 447.8 904.8 450.65 903.75
L 450.65 906.4
Q 448.75 907.4 446.4 907.45
L 445.55 907.45
Q 443.95 907.45 442.75 907.15 440.4 906.65 438.65 904.8 436.25 902 436.25 897.05 436.25 895.35 436.55 894 436.8 892.35 437.55 890.95 438.05 889.95 438.75 889.2 440.45 887.25 443.05 886.75 444.2 886.45 445.75 886.45 447.35 886.45 448.65 886.75 450.05 887.05 450.95 887.45 Z
M 458.35 896.75
L 458.45 896.75 467.45 886.8 471.15 886.8 462.95 895.45 471.75 907.15 468 907.15 460.8 897.55 458.45 899.55 458.45 907.15 455.45 907.15 455.45 878.25 458.45 878.25 458.35 896.75 Z
M 398.75 889.8
Q 398.15 890.15 397.55 890.85 397.05 891.4 396.75 892.35 396.25 893.75 396.15 895.95
L 396.25 899.05
Q 396.45 901.25 397.2 902.45
L 397.6 903.05
Q 398.4 904.2 399.8 904.6 400.85 904.85 401.55 904.85
L 402.15 904.95
Q 405 904.95 406.35 902.85 407.75 900.8 407.75 896.95
L 407.65 894.85
Q 407.4 892.45 406.35 891 405.25 889.55 403.55 889.2 403.05 889.05 402.05 889.05 400.05 889.05 398.75 889.8 Z
M 428 899
L 428 897.15 424.95 897.25
Q 421.35 897.35 419.6 898.4 418.25 899.25 418.05 900.8
L 418 901.55 418.15 902.55
Q 418.35 903.25 418.8 903.85
L 419 904.05
Q 419.55 904.55 420.25 904.75 420.8 904.95 421.4 904.95
L 421.85 904.95
Q 422.8 904.95 423.65 904.75 424.95 904.55 425.85 903.8
L 426.35 903.4
Q 427.55 902.2 427.8 900.8 428 900 428 899 Z
M 1214.15 876.4
L 1214.05 876.95 1214.2 877.85
Q 1214.35 878.25 1214.6 878.45
L 1215.2 878.85 1215.85 879
Q 1216.65 879 1217.2 878.45
L 1217.45 878.05
Q 1217.75 877.55 1217.75 876.95
L 1217.65 876.6
Q 1217.65 875.85 1217.2 875.4 1216.65 874.95 1215.85 874.95 1215.05 874.95 1214.6 875.4 1214.25 875.65 1214.15 876.4 Z
M 1233.55 882.45
L 1240.55 882.45 1240.55 884.4 1236.8 884.8 1237.6 886.2 1237.75 886.55 1238.15 888.85
Q 1238.15 889.85 1237.8 891.05 1237.35 892.55 1236.05 893.65 1235 894.65 1233.4 895.05 1232.75 895.25 1231.2 895.4
L 1230.45 895.4
Q 1229.75 895.4 1229.35 895.35
L 1228.8 895.25
Q 1228.15 895.65 1227.95 895.85 1226.8 896.65 1226.8 897.85
L 1226.95 898.4
Q 1227.05 898.85 1227.45 899.05
L 1227.55 899.15
Q 1228 899.4 1229.25 899.55
L 1235.4 899.65
Q 1237.4 900 1238.55 900.95 1240.25 902.25 1240.25 904.95 1240.25 906.35 1239.95 907.25 1239.35 908.85 1237.65 910
L 1237.6 910.05
Q 1234.95 911.85 1229.65 911.85 1227 911.85 1225.25 911.2 1224.25 910.85 1223.55 910.4 1222.55 909.65 1222 908.65 1221.45 907.65 1221.4 906.55
L 1221.4 906.2
Q 1221.4 904.35 1222.6 903 1223.25 902.15 1224.4 901.65 1225 901.4 1225.95 901.15 1225.2 900.85 1224.65 900.15
L 1224.6 900.05
Q 1224.2 899.45 1224.05 898.55
L 1224.05 898.35
Q 1224.05 897.2 1224.65 896.4 1225.4 895.55 1225.95 895.15
L 1226.55 894.8
Q 1225.15 894.2 1224.2 892.95
L 1224 892.6
Q 1223.15 891.2 1223 889.55
L 1223 889
Q 1223 887.95 1223.2 886.95 1223.6 885.2 1225 883.85 1226.75 882.35 1229.65 882.15
L 1230.65 882.05 1232.2 882.2
Q 1232.75 882.2 1233.55 882.45 Z
M 1226 888.95
L 1226.15 890.2
Q 1226.35 891.05 1226.75 891.55 1226.95 891.95 1227.25 892.15 1228.35 893.2 1230.2 893.25
L 1230.6 893.25
Q 1231.55 893.25 1232.35 893.05 1235.05 892.25 1235.05 888.85 1235.05 885.2 1232.2 884.55 1231.4 884.35 1230.55 884.35 1229.65 884.35 1229.2 884.45 1228 884.65 1227.2 885.45 1226.2 886.55 1226.05 888.25
L 1226 888.95 Z
M 1261.65 902.75
L 1258.6 902.75 1258.55 888.25
Q 1258.2 886.65 1257.45 885.95 1256.95 885.35 1256.05 885 1255.05 884.65 1253.95 884.65 1253.15 884.65 1252.2 884.85 1250.25 885.2 1249.25 886.4 1248.75 887 1248.4 887.95 1247.85 889.45 1247.8 891.45
L 1247.8 902.75 1244.75 902.75 1244.75 873.95 1247.8 873.95 1247.65 885.25 1247.8 885.25
Q 1248.8 883.8 1250.4 882.95 1251.65 882.35 1253 882.2 1253.4 882.15 1254.25 882.15 1255.65 882.15 1256.35 882.25 1257.45 882.45 1258.35 882.85 1259.25 883.35 1259.8 883.85 1260.8 884.85 1261.15 885.95 1261.55 887.15 1261.6 887.85
L 1261.65 902.75 Z
M 1277.35 900.2
L 1277.35 902.55 1276.05 902.95 1275.85 902.95 1274.15 903.15
Q 1269.4 903.15 1268.45 899.15 1268.2 898.15 1268.2 896.95
L 1268.2 884.8 1265.35 884.8 1265.35 883.35 1268.2 882.05 1269.55 877.75 1271.25 877.75 1271.25 882.45 1277.2 882.45 1277.2 884.8 1271.25 884.8 1271.25 896.8 1271.4 897.85 1271.75 898.95 1272.15 899.6
Q 1272.85 900.4 1273.95 900.55
L 1274.55 900.6 1276 900.45 1276.15 900.45 1276.6 900.4 1277.25 900.2 1277.35 900.2 Z
M 1210.55 882.25
L 1210.15 885.15 1209.15 884.95 1207.85 884.85
Q 1205.6 884.85 1203.95 886.6
L 1203.65 886.85
Q 1202.2 888.65 1202 890.8
L 1201.95 902.75 1198.85 902.75 1198.85 882.45 1201.4 882.45 1201.75 886.2 1201.85 886.2
Q 1202.35 885.4 1203.05 884.55 1203.75 883.8 1204.6 883.15 1206.35 882.05 1208.15 882.05 1208.95 882.05 1209.4 882.15
L 1210.55 882.25 Z
M 1232.45 902.25
L 1228.8 902.25 1227.55 902.4
Q 1226.8 902.45 1226.2 902.8
L 1225.55 903.25
Q 1224.65 904 1224.45 905.15
L 1224.35 906.15
Q 1224.35 907.8 1225.75 908.65 1226.55 909.05 1226.95 909.15 1227.95 909.45 1229.75 909.45 1230.4 909.55 1231.75 909.4 1234.05 909.2 1235.45 908.35 1235.85 908.15 1236.55 907.45 1237.35 906.6 1237.35 905.2
L 1237.25 904.4 1236.95 903.55
Q 1236.8 903.25 1236.35 902.95
L 1235.6 902.6
Q 1234.65 902.35 1233.75 902.35 1233.35 902.25 1232.45 902.25 Z
M 1217.4 882.45
L 1217.4 902.75 1214.35 902.75 1214.35 882.45 1217.4 882.45 Z"/>
</g>
</g>
</g>
</svg>
