
<svg xmlns="http://www.w3.org/2000/svg" version="1.1" xmlns:xlink="http://www.w3.org/1999/xlink" preserveAspectRatio="none" x="0px" y="0px" width="2280px" height="1140px" viewBox="0 0 2280 1140">
<defs/>

<g id="Layer_1"/>

<g id="Layer_2"/>

<g id="Layer_1">
<g>
<g>
<g>
<path fill="#000000" stroke="none" d="
M 129.55 795.8
Q 129.35 795.4 129 795.15 128.6 794.8 128.05 794.65 127.45 794.45 126.65 794.45 125.75 794.45 124.95 794.75 124.05 795.05 123.4 795.65
L 124.4 796.75
Q 124.8 796.35 125.35 796.15 125.85 795.95 126.45 795.95 127.2 795.95 127.75 796.25 128.2 796.6 128.2 797.35
L 128.2 797.55 125.65 797.65
Q 125.05 797.8 124.6 797.95 124.15 798.15 123.75 798.4 123.35 798.75 123.15 799.15 122.95 799.6 122.95 800.2 122.95 800.8 123.15 801.2 123.4 801.65 123.8 801.95 124.2 802.25 124.65 802.4 125.2 802.55 125.75 802.55 126.45 802.55 127.15 802.2 127.75 801.95 128.2 801.25
L 128.2 802.35 129.95 802.35 129.95 797.25 129.8 796.55
Q 129.75 796.15 129.55 795.8
M 125.15 799.4
Q 125.45 799.2 125.85 799.05 126.35 798.95 126.8 798.95
L 128.15 798.85 128.15 799.35
Q 128.15 800.15 127.65 800.6 127.15 801.05 126.2 801.05
L 125.65 801 125.25 800.85 124.95 800.55
Q 124.8 800.35 124.8 800.05 124.8 799.65 125.15 799.4
M 143.8 802.35
L 143.8 797.75
Q 143.8 797.05 143.6 796.45 143.45 795.85 143.15 795.4 142.85 795 142.35 794.75 141.8 794.45 141 794.45 140.15 794.45 139.55 794.8 138.85 795.15 138.45 795.85 137.85 794.45 136.05 794.45 135.15 794.45 134.55 794.85 134 795.35 133.75 795.85
L 133.65 795.85 133.65 794.65 131.85 794.65 131.85 802.35 133.8 802.35 133.8 798.15
Q 133.8 797.75 133.85 797.4 134 797.05 134.2 796.8 134.4 796.55 134.75 796.35 135.05 796.2 135.55 796.2 136.25 796.2 136.55 796.6 136.85 797.05 136.85 797.75
L 136.85 802.35 138.8 802.35 138.85 797.45
Q 138.95 797.05 139.15 796.8 139.35 796.55 139.65 796.35 140 796.2 140.45 796.2 140.85 796.2 141.15 796.35 141.4 796.45 141.6 796.75 141.75 797 141.8 797.35
L 141.85 798 141.85 802.35 143.8 802.35
M 386 796.95
Q 385.75 796.2 385.25 795.6 384.75 795.05 384.05 794.8 383.35 794.45 382.45 794.45 381.6 794.45 380.95 794.8 380.2 795.05 379.8 795.8
L 379.8 794.65 377.95 794.65 377.95 806 379.85 806 379.85 801.35 379.95 801.35 380.25 801.75 380.85 802.15
Q 381.15 802.35 381.6 802.4 382 802.55 382.55 802.55 383.35 802.55 384.05 802.2 384.75 801.95 385.2 801.35 385.65 800.8 386 800.05 386.25 799.35 386.25 798.45 386.25 797.65 386 796.95
M 381.15 796.4
Q 381.55 796.2 382.05 796.2 382.6 796.2 383 796.4 383.4 796.6 383.75 796.85 384 797.2 384.2 797.6 384.35 798.05 384.35 798.45 384.35 798.95 384.2 799.35 384 799.8 383.75 800.05 383.4 800.4 383 800.6 382.6 800.8 382.05 800.8 381.55 800.8 381.15 800.6 380.75 800.4 380.4 800.05 380.15 799.8 379.95 799.35 379.8 798.95 379.8 798.45 379.8 798.05 379.95 797.6 380.15 797.2 380.4 796.85 380.75 796.6 381.15 796.4
M 397.05 794.45
Q 396.2 794.45 395.6 794.8 394.95 795.15 394.55 795.85 393.95 794.45 392.15 794.45 391.2 794.45 390.6 794.85 390.05 795.35 389.8 795.85
L 389.75 795.85 389.75 794.65 387.95 794.65 387.95 802.35 389.85 802.35 389.85 798.15
Q 389.85 797.75 389.95 797.4 390.05 797.05 390.25 796.8 390.45 796.55 390.8 796.35 391.15 796.2 391.6 796.2 392.35 796.2 392.6 796.6 392.95 797.05 392.95 797.75
L 392.95 802.35 394.85 802.35 394.85 798.2 394.95 797.45
Q 395 797.05 395.2 796.8 395.4 796.55 395.75 796.35 396.05 796.2 396.55 796.2 396.95 796.2 397.2 796.35 397.45 796.45 397.65 796.75 397.8 797 397.85 797.35
L 397.95 798 397.95 802.35 399.85 802.35 399.85 797.75
Q 399.85 797.05 399.65 796.45 399.55 795.85 399.2 795.4 398.95 795 398.4 794.75 397.85 794.45 397.05 794.45
M 222.05 820.85
L 222.05 808.2 159.85 808.2 159.85 820.85 222.05 820.85
M 537.05 820.85
L 537.05 808.2 474 808.2 474 820.85 537.05 820.85
M 324.25 791
L 322.55 791 319.15 793.85 320.2 795.2 322.35 793.2 322.35 802.35 324.25 802.35 324.25 791
M 633.95 791
L 631.8 791 627.2 798.15 627.2 800 632 800 632 802.35 633.95 802.35 633.95 800 635.6 800 635.6 798.35 633.95 798.35 633.95 791
M 632 798.35
L 629.15 798.35 632 793.75 632 798.35
M 568.4 790.95
Q 567.8 791.05 567.35 791.4 566.85 791.65 566.55 792.15 566.2 792.6 566 793.25
L 568 793.8
Q 568.2 793.2 568.65 792.85 569.15 792.55 569.75 792.55 570.4 792.55 570.85 792.95 571.35 793.4 571.35 794 571.35 794.55 571.15 794.85 570.95 795.15 570.6 795.35 570.35 795.45 569.95 795.55
L 568.6 795.6 568.6 797.25 569.95 797.35
Q 570.4 797.4 570.8 797.6 571.15 797.8 571.35 798.15 571.6 798.45 571.6 799 571.6 799.4 571.45 799.75 571.25 800.05 571 800.35 570.75 800.55 570.4 800.65 570.05 800.8 569.65 800.8 568.95 800.8 568.45 800.4 568 800 567.85 799.35
L 565.8 799.85
Q 566 800.6 566.35 801.05 566.75 801.6 567.25 801.95 567.75 802.2 568.35 802.4 569 802.55 569.65 802.55 570.45 802.55 571.15 802.35 571.8 802.05 572.35 801.65 572.85 801.25 573.2 800.6 573.55 800 573.55 799.2 573.55 798.15 572.95 797.35 572.4 796.6 571.35 796.4 572.2 796.2 572.75 795.45 573.25 794.75 573.25 793.85 573.25 793.05 572.95 792.55 572.65 791.95 572.15 791.6 571.65 791.2 571 791 570.35 790.8 569.6 790.8 569 790.8 568.4 790.95
M 505.05 791
Q 504.4 791.2 503.85 791.6 503.4 792 503.05 792.6 502.75 793.2 502.75 794
L 504.75 794.2
Q 504.8 793.45 505.25 793.05 505.75 792.65 506.45 792.65 506.8 792.65 507.05 792.75 507.4 792.85 507.6 793.05 507.85 793.2 508 793.55 508.15 793.8 508.15 794.15 508.15 794.4 508 794.65
L 507.75 795.2 502.55 800.35 502.55 802.35 510.15 802.35 510.15 800.6 504.85 800.6 508.4 797.35
Q 509.15 796.65 509.65 795.85 510.15 795.05 510.15 794 510.15 793.2 509.85 792.6 509.55 792 509.05 791.6 508.55 791.2 507.85 791 507.2 790.8 506.45 790.8 505.65 790.8 505.05 791
M 447 791
L 445.25 791 441.85 793.85 442.95 795.2 445.05 793.2 445.05 802.35 447 802.35 447 791
M 370.85 791
Q 370.2 791.2 369.65 791.6 369.2 792 368.85 792.6 368.55 793.2 368.55 794
L 370.55 794.2
Q 370.6 793.45 371.05 793.05 371.55 792.65 372.25 792.65 372.6 792.65 372.85 792.75 373.2 792.85 373.4 793.05 373.65 793.2 373.8 793.55 373.95 793.8 373.95 794.15 373.95 794.4 373.8 794.65
L 373.55 795.2 368.35 800.35 368.35 802.35 375.95 802.35 375.95 800.6 370.65 800.6 374.2 797.35
Q 374.95 796.65 375.45 795.85 375.95 795.05 375.95 794 375.95 793.2 375.65 792.6 375.35 792 374.85 791.6 374.35 791.2 373.65 791 373 790.8 372.25 790.8 371.45 790.8 370.85 791
M 364.15 791
L 362.4 791 359 793.85 360.05 795.2 362.2 793.2 362.2 802.35 364.15 802.35 364.15 791
M 425.2 514.65
L 422.35 514.65 422.35 526.2 425.2 526.2 425.2 514.65
M 423.75 509.05
Q 423 509.05 422.45 509.55 421.95 510.05 421.95 510.75 421.95 511.45 422.45 512 423 512.55 423.75 512.55 424.55 512.55 425.05 512 425.65 511.55 425.65 510.75 425.65 510 425.05 509.55 424.55 509.05 423.75 509.05
M 429.55 511.35
L 429.55 514.65 427.15 514.65 427.15 517.15 429.55 517.15 429.55 522.4
Q 429.55 523.4 429.65 524.2 429.85 524.95 430.25 525.45 430.65 526 431.4 526.25 432.15 526.45 433.35 526.45
L 434.45 526.4
Q 435.15 526.35 435.6 526.15
L 435.6 523.65
Q 435.35 523.85 434.85 523.95
L 434 524.05
Q 433.05 524.05 432.75 523.55 432.4 523.05 432.4 522.2
L 432.4 517.15 435.6 517.15 435.6 514.65 432.4 514.65 432.4 511.35 429.55 511.35
M 447.4 515.8
Q 446.85 515.15 446.15 514.8 445.25 514.4 444.15 514.4 442.8 514.4 441.95 515 441.05 515.6 440.75 516.25
L 440.75 508.05 437.8 508.05 437.8 526.2 440.75 526.2 440.75 519.95
Q 440.75 519.35 440.85 518.8 441 518.25 441.35 517.85 441.65 517.45 442.15 517.2 442.65 517 443.35 517 444.05 517 444.55 517.35 444.95 517.65 445.15 518.2 445.35 518.75 445.4 519.25
L 445.45 526.2 448.35 526.2 448.35 518.95
Q 448.35 518.05 448.15 517.2 447.95 516.4 447.4 515.8
M 470.6 511.95
L 470.6 509.2 457.15 509.2 457.15 511.95 462.4 511.95 462.4 526.2 465.4 526.2 465.4 511.95 470.6 511.95
M 479.25 514.65
L 476.15 514.65 473.8 522.75 473.75 522.75 471.25 514.65 468.15 514.65 472.15 526.2 475.15 526.2 477.55 518.35 477.6 518.35 480.35 526.2 483.2 526.2 487.05 514.65 484.2 514.65 481.8 522.75 481.75 522.75 479.25 514.65
M 326 516.05
Q 325.2 516.85 324.65 517.95 324.2 519.05 324.2 520.45 324.2 521.8 324.65 522.95 325.2 524.05 326 524.8 326.85 525.6 328 526.05 329.15 526.45 330.45 526.45 331.8 526.45 333.05 525.95 334.35 525.4 335.35 524.2
L 333.25 522.6
Q 332.75 523.25 332 523.75 331.25 524.2 330.15 524.2 328.95 524.2 328.05 523.45 327.2 522.75 327.05 521.45
L 335.85 521.45 335.85 520.65
Q 335.85 519.15 335.45 518 335.05 516.8 334.35 516 333.65 515.2 332.65 514.8 331.65 514.4 330.45 514.4 329.15 514.4 328 514.8 326.85 515.25 326 516.05
M 327.05 519.25
Q 327.25 518.05 328 517.25 328.75 516.55 330.05 516.55 331.4 516.55 332.2 517.25 332.95 518 333 519.25
L 327.05 519.25
M 350.85 514.65
L 350.85 517.15 353.25 517.15 353.25 522.4
Q 353.25 523.4 353.4 524.2 353.6 524.95 354 525.45 354.4 526 355.15 526.25 355.85 526.45 357.05 526.45
L 358.2 526.4
Q 358.85 526.35 359.35 526.15
L 359.35 523.65
Q 359.05 523.85 358.6 523.95
L 357.75 524.05
Q 356.8 524.05 356.45 523.55 356.15 523.05 356.15 522.2
L 356.15 517.15 359.35 517.15 359.35 514.65 356.15 514.65 356.15 511.35 353.25 511.35 353.25 514.65 350.85 514.65
M 348.05 515.8
Q 347.55 515.15 346.8 514.8 345.95 514.4 344.8 514.4 343.4 514.4 342.55 515 341.65 515.65 341.25 516.55
L 341.25 514.65 338.45 514.65 338.45 526.2 341.4 526.2 341.4 519.95
Q 341.4 519.35 341.55 518.8 341.65 518.25 342 517.85 342.35 517.45 342.8 517.2 343.35 517 344 517 344.75 517 345.2 517.35 345.6 517.65 345.8 518.2 346 518.75 346.05 519.25
L 346.15 526.2 349 526.2 349 518.95
Q 349 518.05 348.8 517.2 348.6 516.4 348.05 515.8
M 372.05 514.65
L 369.2 514.65 369.2 521
Q 369.2 521.55 369.05 522.05 368.95 522.6 368.6 523 368.25 523.4 367.8 523.65 367.25 523.85 366.55 523.85 365.8 523.85 365.4 523.55 364.95 523.2 364.75 522.65 364.55 522.2 364.45 521.6
L 364.45 514.65 361.55 514.65 361.55 521.95
Q 361.55 522.85 361.8 523.65 362 524.45 362.45 525.15 363 525.75 363.8 526.15 364.6 526.45 365.8 526.45 367.2 526.45 368.05 525.85 368.85 525.2 369.25 524.35
L 369.35 524.35 369.35 526.2 372.05 526.2 372.05 514.65
M 404.8 514.65
L 401.65 514.65 405.65 526.2 408.65 526.2 411.05 518.35 411.15 518.35 413.85 526.2 416.75 526.2 420.6 514.65 417.75 514.65 415.35 522.75 415.25 522.75 412.8 514.65 409.65 514.65 407.35 522.75 407.25 522.75 404.8 514.65
M 385.65 518.85
Q 385.8 518.35 386.15 517.95 386.4 517.45 386.85 517.25 387.35 517 388 517 388.65 517 389.05 517.2 389.45 517.4 389.75 517.8 390 518.15 390.05 518.65
L 390.15 526.2 393.05 526.2 393.05 519.35
Q 393.05 518.35 392.8 517.4 392.6 516.55 392.15 515.8 391.6 515.15 390.8 514.8 390.05 514.4 388.85 514.4 387.6 514.4 386.65 514.95 385.75 515.4 385.05 516.55 384.2 514.4 381.45 514.4 380.05 514.4 379.2 515 378.35 515.65 378 516.45
L 377.95 516.45 377.95 514.65 375.2 514.65 375.2 526.2 378.05 526.2 378.05 519.95
Q 378.05 519.35 378.2 518.8 378.35 518.25 378.65 517.85 379 517.45 379.45 517.2 380 517 380.65 517 381.75 517 382.2 517.6 382.65 518.25 382.65 519.35
L 382.65 526.2 385.55 526.2 385.55 519.95 385.65 518.85
M 579.15 517.85
Q 579.45 517.45 579.95 517.2 580.45 517 581.15 517 581.85 517 582.35 517.35 582.75 517.65 582.95 518.2 583.15 518.75 583.2 519.25
L 583.25 526.2 586.15 526.2 586.15 518.95
Q 586.15 518.05 585.95 517.2 585.75 516.4 585.2 515.8 584.65 515.15 583.95 514.8 583.05 514.4 581.95 514.4 580.55 514.4 579.65 515 578.8 515.65 578.4 516.55
L 578.4 514.65 575.6 514.65 575.6 526.2 578.55 526.2 578.55 519.95
Q 578.55 519.35 578.65 518.8 578.8 518.25 579.15 517.85
M 572.35 514.65
L 569.45 514.65 569.45 526.2 572.35 526.2 572.35 514.65
M 572.2 512
Q 572.8 511.55 572.8 510.75 572.8 510 572.2 509.55 571.65 509.05 570.85 509.05 570.15 509.05 569.6 509.55 569.05 510.05 569.05 510.75 569.05 511.45 569.6 512 570.15 512.55 570.85 512.55 571.65 512.55 572.2 512
M 590.25 516.15
Q 589.55 516.95 589.2 518.05 588.8 519.2 588.8 520.45 588.8 521.65 589.2 522.75 589.6 523.8 590.35 524.6 591.15 525.4 592.2 525.85 593.2 526.35 594.55 526.35 595.6 526.35 596.65 525.95 597.65 525.55 598.25 524.65
L 598.35 524.65 598.35 525.55
Q 598.35 526.35 598.15 527.05 598 527.8 597.55 528.25 597.15 528.8 596.4 529.05 595.75 529.35 594.65 529.35 593.45 529.35 592.55 528.95 591.6 528.55 590.75 527.75
L 589 530.05
Q 590.2 531.15 591.65 531.55 593.15 531.95 594.75 531.95 596.4 531.95 597.6 531.45 598.85 531 599.65 530.15 600.45 529.25 600.85 528 601.2 526.75 601.2 525.2
L 601.2 514.65 598.45 514.65 598.45 516.4 598.4 516.4
Q 597.8 515.35 596.75 514.85 595.75 514.4 594.45 514.4 593.15 514.4 592.05 514.85 591.05 515.35 590.25 516.15
M 592.6 517.95
Q 593.05 517.45 593.65 517.25 594.35 517 595.05 517 596.65 517 597.6 517.95 598.45 518.85 598.45 520.35 598.45 521.05 598.25 521.75 598 522.35 597.55 522.8 597.15 523.2 596.45 523.45 595.85 523.75 595.05 523.75 594.35 523.75 593.75 523.45 593.05 523.2 592.6 522.75 592.2 522.35 591.95 521.75 591.65 521.15 591.65 520.4 591.65 519.65 591.95 519 592.2 518.4 592.6 517.95
M 610.65 514.8
Q 609.55 514.4 608.4 514.4 607.55 514.4 606.65 514.6 605.85 514.8 605.2 515.25 604.55 515.75 604.15 516.45 603.75 517.15 603.75 518.15 603.75 519.2 604.2 519.85 604.65 520.45 605.35 520.8 606.05 521.15 606.85 521.35
L 608.35 521.65
Q 609.05 521.8 609.55 522.15 610 522.4 610 523 610 523.35 609.8 523.6
L 609.35 524 608.75 524.25 608.05 524.35
Q 607.15 524.35 606.55 523.95 605.85 523.55 605.35 522.95
L 603.4 524.75
Q 604.25 525.75 605.4 526.15 606.55 526.45 607.85 526.45 608.8 526.45 609.65 526.25 610.55 526.15 611.25 525.65 611.95 525.25 612.4 524.55 612.85 523.8 612.85 522.8 612.85 521.65 612.4 521 611.95 520.35 611.25 520 610.55 519.6 609.75 519.45
L 608.25 519.05
Q 607.55 518.95 607.15 518.65 606.65 518.45 606.65 517.95 606.65 517.25 607.2 517 607.75 516.65 608.35 516.65 609.75 516.65 610.6 517.85
L 612.45 516.15
Q 611.8 515.2 610.65 514.8
M 494.45 514.4
Q 493.15 514.4 492 514.8 490.85 515.25 490 516.05 489.2 516.85 488.65 517.95 488.2 519.05 488.2 520.45 488.2 521.8 488.65 522.95 489.2 524.05 490 524.8 490.85 525.6 492 526.05 493.15 526.45 494.45 526.45 495.75 526.45 496.95 526.05 498.05 525.6 498.85 524.8 499.75 524.05 500.2 522.95 500.75 521.8 500.75 520.45 500.75 519.05 500.2 517.95 499.75 516.85 498.85 516.05 498.05 515.25 496.95 514.8 495.75 514.4 494.45 514.4
M 492 518.05
Q 492.4 517.55 493.05 517.25 493.65 517 494.45 517 495.25 517 495.85 517.25 496.45 517.55 496.95 518.05 497.4 518.55 497.6 519.15 497.8 519.75 497.8 520.45 497.8 521.15 497.6 521.75 497.4 522.35 496.95 522.85 496.45 523.35 495.85 523.6 495.25 523.85 494.45 523.85 493.65 523.85 493.05 523.6 492.4 523.35 492 522.85 491.55 522.35 491.25 521.75 491.05 521.15 491.05 520.45 491.05 519.75 491.25 519.15 491.55 518.55 492 518.05
M 529.05 526.2
L 529.05 509.2 524.45 509.2 519.95 521.15 515.4 509.2 510.8 509.2 510.8 526.2 513.65 526.2 513.65 512.05 518.85 526.2 520.95 526.2 526.15 512.05 526.2 512.05 526.2 526.2 529.05 526.2
M 533.85 516.05
Q 533.05 516.85 532.55 517.95 532.05 519.05 532.05 520.45 532.05 521.8 532.55 522.95 533.05 524.05 533.85 524.8 534.75 525.6 535.85 526.05 537 526.45 538.35 526.45 539.65 526.45 540.95 525.95 542.2 525.4 543.2 524.2
L 541.15 522.6
Q 540.6 523.25 539.85 523.75 539.15 524.2 538 524.2 536.8 524.2 535.95 523.45 535.05 522.75 534.95 521.45
L 543.75 521.45 543.75 520.65
Q 543.75 519.15 543.35 518 542.95 516.8 542.2 516 541.55 515.2 540.55 514.8 539.55 514.4 538.35 514.4 537 514.4 535.85 514.8 534.75 515.25 533.85 516.05
M 534.95 519.25
Q 535.15 518.05 535.85 517.25 536.6 516.55 537.95 516.55 539.25 516.55 540.05 517.25 540.8 518 540.85 519.25
L 534.95 519.25
M 558.75 514.65
L 558.75 517.15 561.15 517.15 561.15 522.4
Q 561.15 523.4 561.25 524.2 561.45 524.95 561.85 525.45 562.25 526 563 526.25 563.75 526.45 564.95 526.45
L 566.05 526.4
Q 566.75 526.35 567.2 526.15
L 567.2 523.65
Q 566.95 523.85 566.45 523.95
L 565.6 524.05
Q 564.65 524.05 564.35 523.55 564 523.05 564 522.2
L 564 517.15 567.2 517.15 567.2 514.65 564 514.65 564 511.35 561.15 511.35 561.15 514.65 558.75 514.65
M 549.6 514.8
Q 548.45 515.25 547.6 516.05 546.8 516.85 546.25 517.95 545.8 519.05 545.8 520.45 545.8 521.8 546.25 522.95 546.8 524.05 547.6 524.8 548.45 525.6 549.6 526.05 550.75 526.45 552.05 526.45 553.4 526.45 554.65 525.95 555.95 525.4 556.95 524.2
L 554.85 522.6
Q 554.35 523.25 553.6 523.75 552.85 524.2 551.75 524.2 550.55 524.2 549.65 523.45 548.8 522.75 548.65 521.45
L 557.45 521.45 557.45 520.65
Q 557.45 519.15 557.05 518 556.65 516.8 555.95 516 555.25 515.2 554.25 514.8 553.25 514.4 552.05 514.4 550.75 514.4 549.6 514.8
M 549.6 517.25
Q 550.35 516.55 551.65 516.55 553 516.55 553.8 517.25 554.55 518 554.6 519.25
L 548.65 519.25
Q 548.85 518.05 549.6 517.25
M 314.8 791
L 313.05 791 309.65 793.85 310.75 795.2 312.85 793.2 312.85 802.35 314.8 802.35 314.8 791
M 252.65 791
L 250.95 791 247.55 793.85 248.6 795.2 250.75 793.2 250.75 802.35 252.65 802.35 252.65 791
M 263.2 791.75
Q 262.75 791.35 262.25 791.15 261.85 790.95 261.4 790.85
L 260.65 790.8 259.95 790.85
Q 259.55 790.95 259.05 791.15 258.6 791.35 258.15 791.75 257.75 792.15 257.35 792.8 257 793.4 256.8 794.4 256.6 795.35 256.6 796.65 256.6 798 256.8 798.95 257 799.95 257.35 800.6 257.75 801.2 258.15 801.6 258.6 802 259.05 802.2 259.55 802.4 259.95 802.45
L 260.65 802.55 261.4 802.45
Q 261.85 802.4 262.25 802.2 262.75 802 263.2 801.6 263.6 801.2 264 800.6 264.35 799.95 264.55 798.95 264.75 798 264.75 796.65 264.75 795.35 264.55 794.4 264.35 793.4 264 792.8 263.6 792.15 263.2 791.75
M 258.55 797.85
L 258.55 795.45
Q 258.65 794.75 258.85 794.15 259.05 793.55 259.55 793.05 259.95 792.65 260.65 792.65 261.4 792.65 261.8 793.05 262.25 793.45 262.45 794.15 262.65 794.75 262.8 795.45
L 262.8 797.85
Q 262.65 798.6 262.45 799.2 262.25 799.85 261.8 800.25 261.4 800.75 260.65 800.75 259.95 800.75 259.55 800.25 259.05 799.85 258.85 799.2 258.65 798.6 258.55 797.85
M 188.75 791.05
Q 188 791.35 187.45 791.85 186.95 792.35 186.6 793.05 186.35 793.8 186.35 794.65 186.35 795.4 186.55 796.05 186.8 796.75 187.25 797.2 187.75 797.75 188.35 798 188.95 798.35 189.75 798.35
L 190.8 798.15 188.05 802.35 190.4 802.35 193.35 797.8
Q 193.8 797 194.05 796.25 194.35 795.6 194.35 794.65 194.35 793.8 194.05 793.05 193.8 792.35 193.25 791.85 192.75 791.35 191.95 791.05 191.2 790.8 190.35 790.8 189.45 790.8 188.75 791.05
M 190.25 792.65
Q 190.75 792.65 191.05 792.8 191.45 792.95 191.75 793.25 192 793.55 192.2 793.85 192.35 794.25 192.35 794.75 192.35 795.15 192.2 795.55 192 795.85 191.75 796.15 191.45 796.45 191.05 796.6 190.75 796.75 190.25 796.75 189.85 796.75 189.45 796.6 189.15 796.45 188.8 796.15 188.55 795.85 188.4 795.55 188.2 795.15 188.2 794.75 188.2 794.25 188.4 793.85 188.55 793.55 188.8 793.25 189.15 792.95 189.45 792.8 189.85 792.65 190.25 792.65
M 117.6 790.8
Q 116.85 790.8 116.25 791 115.6 791.2 115.15 791.6 114.65 791.95 114.4 792.55 114.15 793.05 114.15 793.8 114.15 794.75 114.55 795.4 115 796.05 115.85 796.35 115.45 796.45 115.05 796.65 114.65 796.95 114.4 797.35 114.15 797.65 113.95 798.15 113.8 798.6 113.8 799.15 113.8 799.95 114.05 800.6 114.4 801.2 114.85 801.65 115.4 802.05 116.15 802.35 116.8 802.55 117.6 802.55 118.4 802.55 119.05 802.35 119.8 802.05 120.35 801.65 120.8 801.2 121.15 800.6 121.4 799.95 121.4 799.15 121.4 798.6 121.25 798.15 121.05 797.65 120.8 797.35 120.55 796.95 120.15 796.65 119.75 796.45 119.35 796.35 120.2 796.05 120.65 795.4 121.05 794.75 121.05 793.8 121.05 793.05 120.8 792.55 120.55 791.95 120.05 791.6 119.6 791.2 118.95 791 118.35 790.8 117.6 790.8
M 119.15 794
Q 119.15 794.35 119.05 794.6 118.95 794.85 118.65 795.15 118.45 795.35 118.2 795.45 117.95 795.6 117.6 795.6 116.85 795.6 116.45 795.15 116.05 794.65 116.05 794 116.05 793.35 116.45 792.85 116.85 792.45 117.6 792.45 118.25 792.45 118.75 792.85 119.15 793.35 119.15 794
M 118.35 797.2
Q 118.65 797.35 118.95 797.6 119.2 797.85 119.35 798.15 119.55 798.45 119.55 798.85 119.55 799.65 119 800.2 118.45 800.75 117.6 800.75 116.8 800.75 116.25 800.2 115.75 799.65 115.65 798.85 115.65 798.45 115.85 798.15 116 797.85 116.25 797.6 116.55 797.35 116.85 797.2 117.2 797.05 117.6 797.05 118 797.05 118.35 797.2
M 150 509.2
L 143.25 509.2 143.25 526.2 149.6 526.2
Q 151.2 526.2 152.8 525.65 154.35 525.2 155.65 524.15 157 523.05 157.8 521.45 158.6 519.85 158.6 517.75 158.6 515.55 157.95 513.95 157.2 512.35 156 511.25 154.8 510.25 153.25 509.75 151.65 509.2 150 509.2
M 146.35 511.95
L 149.05 511.95
Q 150.45 511.95 151.6 512.25 152.8 512.6 153.65 513.25 154.55 513.95 155 515.05 155.45 516.2 155.45 517.75 155.45 519.25 154.95 520.35 154.4 521.45 153.45 522.15 152.55 522.8 151.25 523.15 150 523.45 148.6 523.45
L 146.35 523.45 146.35 511.95
M 258.05 514.55
L 257.05 514.4
Q 255.85 514.4 255 514.95 254.15 515.55 253.6 516.55
L 253.6 514.65 250.65 514.65 250.65 526.2 253.6 526.2 253.6 520.05 253.65 519.35
Q 253.8 518.8 254.15 518.35 254.45 517.85 255.05 517.55 255.65 517.15 256.65 517.15
L 258.05 517.35 258.05 514.55
M 285.75 526.2
L 285.75 509.2 281.15 509.2 276.6 521.15 272.05 509.2 267.45 509.2 267.45 526.2 270.35 526.2 270.35 512.05 275.55 526.2 277.6 526.2 282.8 512.05 282.85 512.05 282.85 526.2 285.75 526.2
M 292.55 514.8
Q 291.4 515.25 290.55 516.05 289.75 516.85 289.2 517.95 288.75 519.05 288.75 520.45 288.75 521.8 289.2 522.95 289.75 524.05 290.55 524.8 291.4 525.6 292.55 526.05 293.65 526.45 295 526.45 296.25 526.45 297.45 526.05 298.6 525.6 299.4 524.8 300.25 524.05 300.75 522.95 301.25 521.8 301.25 520.45 301.25 519.05 300.75 517.95 300.25 516.85 299.4 516.05 298.6 515.25 297.45 514.8 296.25 514.4 295 514.4 293.65 514.4 292.55 514.8
M 291.8 519.15
Q 292.05 518.55 292.55 518.05 292.95 517.55 293.6 517.25 294.2 517 295 517 295.8 517 296.4 517.25 297 517.55 297.45 518.05 297.95 518.55 298.15 519.15 298.35 519.75 298.35 520.45 298.35 521.15 298.15 521.75 297.95 522.35 297.45 522.85 297 523.35 296.4 523.6 295.8 523.85 295 523.85 294.2 523.85 293.6 523.6 292.95 523.35 292.55 522.85 292.05 522.35 291.8 521.75 291.6 521.15 291.6 520.45 291.6 519.75 291.8 519.15
M 307.8 515
Q 306.95 515.65 306.6 516.45
L 306.55 516.45 306.55 514.65 303.8 514.65 303.8 526.2 306.65 526.2 306.65 519.95
Q 306.65 519.35 306.8 518.8 306.95 518.25 307.25 517.85 307.6 517.45 308.05 517.2 308.6 517 309.25 517 310.35 517 310.8 517.6 311.25 518.25 311.25 519.35
L 311.25 526.2 314.15 526.2 314.15 519.95 314.25 518.85
Q 314.4 518.35 314.75 517.95 315 517.45 315.45 517.25 315.95 517 316.6 517 317.25 517 317.65 517.2 318.05 517.4 318.35 517.8 318.6 518.15 318.65 518.65
L 318.75 526.2 321.65 526.2 321.65 519.35
Q 321.65 518.35 321.4 517.4 321.2 516.55 320.75 515.8 320.2 515.15 319.4 514.8 318.65 514.4 317.45 514.4 316.2 514.4 315.25 514.95 314.35 515.4 313.65 516.55 312.8 514.4 310.05 514.4 308.65 514.4 307.8 515
M 166.95 514.4
Q 165.6 514.4 164.45 514.8 163.35 515.25 162.45 516.05 161.65 516.85 161.15 517.95 160.65 519.05 160.65 520.45 160.65 521.8 161.15 522.95 161.65 524.05 162.45 524.8 163.35 525.6 164.45 526.05 165.6 526.45 166.95 526.45 168.25 526.45 169.55 525.95 170.8 525.4 171.8 524.2
L 169.75 522.6
Q 169.2 523.25 168.45 523.75 167.75 524.2 166.6 524.2 165.4 524.2 164.55 523.45 163.65 522.75 163.55 521.45
L 172.35 521.45 172.35 520.65
Q 172.35 519.15 171.95 518 171.55 516.8 170.8 516 170.15 515.2 169.15 514.8 168.15 514.4 166.95 514.4
M 163.55 519.25
Q 163.75 518.05 164.45 517.25 165.2 516.55 166.55 516.55 167.85 516.55 168.65 517.25 169.4 518 169.45 519.25
L 163.55 519.25
M 188.6 516.05
Q 187.8 516.85 187.25 517.95 186.8 519.05 186.8 520.45 186.8 521.8 187.25 522.95 187.8 524.05 188.6 524.8 189.45 525.6 190.6 526.05 191.75 526.45 193.05 526.45 194.4 526.45 195.65 525.95 196.95 525.4 197.95 524.2
L 195.85 522.6
Q 195.35 523.25 194.6 523.75 193.85 524.2 192.75 524.2 191.55 524.2 190.65 523.45 189.8 522.75 189.65 521.45
L 198.45 521.45 198.45 520.65
Q 198.45 519.15 198.05 518 197.65 516.8 196.95 516 196.25 515.2 195.25 514.8 194.25 514.4 193.05 514.4 191.75 514.4 190.6 514.8 189.45 515.25 188.6 516.05
M 189.65 519.25
Q 189.85 518.05 190.6 517.25 191.35 516.55 192.65 516.55 194 516.55 194.8 517.25 195.55 518 195.6 519.25
L 189.65 519.25
M 185.75 514.65
L 182.8 514.65 179.65 522.75 179.6 522.75 176.55 514.65 173.4 514.65 178.15 526.2 181.2 526.2 185.75 514.65
M 204 526.2
L 204 508.05 201.15 508.05 201.15 526.2 204 526.2
M 210.55 514.8
Q 209.4 515.25 208.55 516.05 207.75 516.85 207.2 517.95 206.75 519.05 206.75 520.45 206.75 521.8 207.2 522.95 207.75 524.05 208.55 524.8 209.4 525.6 210.55 526.05 211.65 526.45 213 526.45 214.25 526.45 215.45 526.05 216.6 525.6 217.4 524.8 218.25 524.05 218.75 522.95 219.25 521.8 219.25 520.45 219.25 519.05 218.75 517.95 218.25 516.85 217.4 516.05 216.6 515.25 215.45 514.8 214.25 514.4 213 514.4 211.65 514.4 210.55 514.8
M 209.8 519.15
Q 210.05 518.55 210.55 518.05 210.95 517.55 211.6 517.25 212.2 517 213 517 213.8 517 214.4 517.25 215 517.55 215.45 518.05 215.95 518.55 216.15 519.15 216.35 519.75 216.35 520.45 216.35 521.15 216.15 521.75 215.95 522.35 215.45 522.85 215 523.35 214.4 523.6 213.8 523.85 213 523.85 212.2 523.85 211.6 523.6 210.95 523.35 210.55 522.85 210.05 522.35 209.8 521.75 209.6 521.15 209.6 520.45 209.6 519.75 209.8 519.15
M 238.2 516.05
Q 237.4 516.85 236.85 517.95 236.4 519.05 236.4 520.45 236.4 521.8 236.85 522.95 237.4 524.05 238.2 524.8 239.05 525.6 240.2 526.05 241.35 526.45 242.65 526.45 244 526.45 245.25 525.95 246.55 525.4 247.55 524.2
L 245.45 522.6
Q 244.95 523.25 244.2 523.75 243.45 524.2 242.35 524.2 241.15 524.2 240.25 523.45 239.4 522.75 239.25 521.45
L 248.05 521.45 248.05 520.65
Q 248.05 519.15 247.65 518 247.25 516.8 246.55 516 245.85 515.2 244.85 514.8 243.85 514.4 242.65 514.4 241.35 514.4 240.2 514.8 239.05 515.25 238.2 516.05
M 239.25 519.25
Q 239.45 518.05 240.2 517.25 240.95 516.55 242.25 516.55 243.6 516.55 244.4 517.25 245.15 518 245.2 519.25
L 239.25 519.25
M 224.65 516.4
L 224.65 514.65 221.85 514.65 221.85 531.65 224.8 531.65 224.8 524.75 224.85 524.75 225.4 525.35 226.2 525.85
Q 226.75 526.15 227.35 526.35 227.95 526.45 228.75 526.45 230 526.45 231 526 232.05 525.55 232.8 524.75 233.55 523.95 233.95 522.8 234.35 521.75 234.35 520.45 234.35 519.2 233.95 518.05 233.6 516.95 232.8 516.15 232.05 515.35 231 514.85 229.95 514.4 228.65 514.4 227.4 514.4 226.35 514.85 225.35 515.35 224.65 516.4
M 225.6 518.05
Q 226 517.55 226.65 517.25 227.25 517 228.05 517 228.85 517 229.45 517.25 230.15 517.55 230.55 518.05 231 518.55 231.2 519.15 231.45 519.75 231.45 520.45 231.45 521.15 231.2 521.75 231 522.35 230.55 522.85 230.15 523.35 229.45 523.6 228.85 523.85 228.05 523.85 227.25 523.85 226.65 523.6 226 523.35 225.6 522.85 225.15 522.35 224.95 521.75 224.65 521.15 224.65 520.45 224.65 519.75 224.95 519.15 225.15 518.55 225.6 518.05
M 252.8 333
L 251.05 333 247.65 335.85 248.75 337.2 250.85 335.2 250.85 344.35 252.8 344.35 252.8 333
M 260.8 332.8
L 260.05 332.85
Q 259.65 332.95 259.2 333.15 258.75 333.35 258.25 333.75 257.85 334.15 257.45 334.8 257.15 335.4 256.95 336.4 256.75 337.35 256.75 338.65 256.75 340 256.95 340.95 257.15 341.95 257.45 342.6 257.85 343.2 258.25 343.6 258.75 344 259.2 344.2 259.65 344.4 260.05 344.45
L 260.8 344.55 261.55 344.45
Q 262 344.4 262.4 344.2 262.85 344 263.35 343.6 263.75 343.2 264.15 342.6 264.45 341.95 264.65 340.95 264.85 340 264.85 338.65 264.85 337.35 264.65 336.4 264.45 335.4 264.15 334.8 263.75 334.15 263.35 333.75 262.85 333.35 262.4 333.15 262 332.95 261.55 332.85
L 260.8 332.8
M 259 336.15
Q 259.2 335.55 259.65 335.05 260.05 334.65 260.8 334.65 261.55 334.65 261.95 335.05 262.4 335.45 262.6 336.15 262.8 336.75 262.95 337.45
L 262.95 339.85
Q 262.8 340.6 262.6 341.2 262.4 341.85 261.95 342.25 261.55 342.75 260.8 342.75 260.05 342.75 259.65 342.25 259.2 341.85 259 341.2 258.8 340.6 258.65 339.85
L 258.65 337.45
Q 258.8 336.75 259 336.15
M 310.85 337.2
L 313 335.2 313 344.35 314.95 344.35 314.95 333 313.2 333 309.8 335.85 310.85 337.2
M 192.05 333.05
Q 191.35 332.8 190.45 332.8 189.6 332.8 188.85 333.05 188.15 333.35 187.6 333.85 187.05 334.35 186.75 335.05 186.45 335.8 186.45 336.65 186.45 337.4 186.65 338.05 186.95 338.75 187.4 339.2 187.85 339.75 188.45 340 189.05 340.35 189.85 340.35
L 190.95 340.15 188.2 344.35 190.55 344.35 193.45 339.8
Q 193.95 339 194.2 338.25 194.45 337.6 194.45 336.65 194.45 335.8 194.2 335.05 193.95 334.35 193.4 333.85 192.85 333.35 192.05 333.05
M 191.85 335.25
Q 192.15 335.55 192.35 335.85 192.45 336.25 192.45 336.75 192.45 337.15 192.35 337.55 192.15 337.85 191.85 338.15 191.6 338.45 191.2 338.6 190.85 338.75 190.4 338.75 190 338.75 189.6 338.6 189.25 338.45 188.95 338.15 188.65 337.85 188.55 337.55 188.35 337.15 188.35 336.75 188.35 336.25 188.55 335.85 188.65 335.55 188.95 335.25 189.25 334.95 189.6 334.8 190 334.65 190.4 334.65 190.85 334.65 191.2 334.8 191.6 334.95 191.85 335.25
M 120.2 333.6
Q 119.75 333.2 119.05 333 118.45 332.8 117.75 332.8 117 332.8 116.4 333 115.75 333.2 115.25 333.6 114.8 333.95 114.55 334.55 114.25 335.05 114.25 335.8 114.25 336.75 114.65 337.4 115.15 338.05 116 338.35 115.6 338.45 115.2 338.65 114.8 338.95 114.55 339.35 114.25 339.65 114.05 340.15 113.95 340.6 113.95 341.15 113.95 341.95 114.2 342.6 114.55 343.2 115 343.65 115.55 344.05 116.25 344.35 116.95 344.55 117.75 344.55 118.55 344.55 119.2 344.35 119.95 344.05 120.45 343.65 120.95 343.2 121.25 342.6 121.55 341.95 121.55 341.15 121.55 340.6 121.4 340.15 121.2 339.65 120.95 339.35 120.65 338.95 120.25 338.65 119.85 338.45 119.45 338.35 120.35 338.05 120.8 337.4 121.2 336.75 121.2 335.8 121.2 335.05 120.95 334.55 120.65 333.95 120.2 333.6
M 119.25 336
Q 119.25 336.35 119.2 336.6 119.05 336.85 118.8 337.15 118.6 337.35 118.35 337.45 118.05 337.6 117.75 337.6 117 337.6 116.6 337.15 116.2 336.65 116.2 336 116.2 335.35 116.6 334.85 117 334.45 117.75 334.45 118.4 334.45 118.85 334.85 119.25 335.35 119.25 336
M 117 339.2
Q 117.35 339.05 117.75 339.05 118.15 339.05 118.45 339.2 118.8 339.35 119.05 339.6 119.35 339.85 119.45 340.15 119.65 340.45 119.65 340.85 119.65 341.65 119.15 342.2 118.6 342.75 117.75 342.75 116.95 342.75 116.4 342.2 115.85 341.65 115.8 340.85 115.8 340.45 116 340.15 116.15 339.85 116.4 339.6 116.65 339.35 117 339.2
M 139.65 336.8
Q 139 337.15 138.6 337.85 138 336.45 136.2 336.45 135.25 336.45 134.65 336.85 134.15 337.35 133.85 337.85
L 133.8 337.85 133.8 336.65 132 336.65 132 344.35 133.95 344.35 133.95 340.15
Q 133.95 339.75 134 339.4 134.15 339.05 134.35 338.8 134.55 338.55 134.85 338.35 135.2 338.2 135.65 338.2 136.4 338.2 136.65 338.6 137 339.05 137 339.75
L 137 344.35 138.95 344.35 139 339.45
Q 139.05 339.05 139.25 338.8 139.45 338.55 139.8 338.35 140.15 338.2 140.6 338.2 141 338.2 141.25 338.35 141.55 338.45 141.75 338.75 141.85 339 141.95 339.35
L 142 340 142 344.35 143.95 344.35 143.95 339.75
Q 143.95 339.05 143.75 338.45 143.6 337.85 143.25 337.4 143 337 142.45 336.75 141.95 336.45 141.15 336.45 140.25 336.45 139.65 336.8
M 129.15 337.15
Q 128.75 336.8 128.2 336.65 127.6 336.45 126.8 336.45 125.85 336.45 125.05 336.75 124.2 337.05 123.55 337.65
L 124.55 338.75
Q 124.95 338.35 125.45 338.15 126 337.95 126.6 337.95 127.35 337.95 127.85 338.25 128.35 338.6 128.35 339.35
L 128.35 339.55 125.8 339.65
Q 125.2 339.8 124.75 339.95 124.25 340.15 123.85 340.4 123.45 340.75 123.25 341.15 123.05 341.6 123.05 342.2 123.05 342.8 123.25 343.2 123.55 343.65 123.95 343.95 124.35 344.25 124.8 344.4 125.35 344.55 125.85 344.55 126.6 344.55 127.25 344.2 127.85 343.95 128.35 343.25
L 128.35 344.35 130.05 344.35 130.05 339.25 129.95 338.55
Q 129.85 338.15 129.65 337.8 129.45 337.4 129.15 337.15
M 125.25 341.4
Q 125.6 341.2 126 341.05 126.45 340.95 126.95 340.95
L 128.25 340.85 128.25 341.35
Q 128.25 342.15 127.8 342.6 127.25 343.05 126.35 343.05
L 125.8 343 125.4 342.85 125.05 342.55
Q 124.95 342.35 124.95 342.05 124.95 341.65 125.25 341.4
M 210.05 70.6
L 212.95 70.6 212.95 52.45 210.05 52.45 210.05 70.6
M 226.35 60.45
Q 225.55 59.65 224.4 59.2 223.2 58.8 221.95 58.8 220.6 58.8 219.45 59.2 218.35 59.65 217.45 60.45 216.65 61.25 216.15 62.35 215.65 63.45 215.65 64.85 215.65 66.2 216.15 67.35 216.65 68.45 217.45 69.2 218.35 70 219.45 70.45 220.6 70.85 221.95 70.85 223.2 70.85 224.4 70.45 225.55 70 226.35 69.2 227.2 68.45 227.65 67.35 228.2 66.2 228.2 64.85 228.2 63.45 227.65 62.35 227.2 61.25 226.35 60.45
M 225.25 64.85
Q 225.25 65.55 225.05 66.15 224.85 66.75 224.4 67.25 223.95 67.75 223.35 68 222.75 68.25 221.95 68.25 221.15 68.25 220.55 68 219.85 67.75 219.45 67.25 219 66.75 218.75 66.15 218.55 65.55 218.55 64.85 218.55 64.15 218.75 63.55 219 62.95 219.45 62.45 219.85 61.95 220.55 61.65 221.15 61.4 221.95 61.4 222.75 61.4 223.35 61.65 223.95 61.95 224.4 62.45 224.85 62.95 225.05 63.55 225.25 64.15 225.25 64.85
M 233.6 60.8
L 233.6 59.05 230.8 59.05 230.8 76.05 233.75 76.05 233.75 69.15 233.8 69.15 234.35 69.75 235.15 70.25
Q 235.65 70.55 236.25 70.75 236.85 70.85 237.65 70.85 238.95 70.85 239.95 70.4 241 69.95 241.75 69.15 242.45 68.35 242.85 67.2 243.25 66.15 243.25 64.85 243.25 63.6 242.85 62.45 242.55 61.35 241.75 60.55 241 59.75 239.95 59.25 238.85 58.8 237.6 58.8 236.35 58.8 235.25 59.25 234.25 59.75 233.6 60.8
M 237 61.4
Q 237.8 61.4 238.4 61.65 239.05 61.95 239.45 62.45 239.95 62.95 240.15 63.55 240.4 64.15 240.4 64.85 240.4 65.55 240.15 66.15 239.95 66.75 239.45 67.25 239.05 67.75 238.4 68 237.8 68.25 237 68.25 236.2 68.25 235.6 68 234.95 67.75 234.55 67.25 234.05 66.75 233.85 66.15 233.6 65.55 233.6 64.85 233.6 64.15 233.85 63.55 234.05 62.95 234.55 62.45 234.95 61.95 235.6 61.65 236.2 61.4 237 61.4
M 164.95 55.65
Q 163.75 54.65 162.2 54.15 160.6 53.6 158.95 53.6
L 152.2 53.6 152.2 70.6 158.55 70.6
Q 160.15 70.6 161.75 70.05 163.25 69.6 164.6 68.55 165.95 67.45 166.75 65.85 167.55 64.25 167.55 62.15 167.55 59.95 166.85 58.35 166.15 56.75 164.95 55.65
M 162.6 57.65
Q 163.45 58.35 163.95 59.45 164.4 60.6 164.4 62.15 164.4 63.65 163.85 64.75 163.35 65.85 162.4 66.55 161.45 67.2 160.2 67.55 158.95 67.85 157.55 67.85
L 155.25 67.85 155.25 56.35 158 56.35
Q 159.4 56.35 160.55 56.65 161.75 57 162.6 57.65
M 175.85 58.8
Q 174.55 58.8 173.4 59.2 172.25 59.65 171.4 60.45 170.6 61.25 170.05 62.35 169.6 63.45 169.6 64.85 169.6 66.2 170.05 67.35 170.6 68.45 171.4 69.2 172.25 70 173.4 70.45 174.55 70.85 175.85 70.85 177.2 70.85 178.45 70.35 179.75 69.8 180.75 68.6
L 178.65 67
Q 178.15 67.65 177.4 68.15 176.65 68.6 175.55 68.6 174.35 68.6 173.45 67.85 172.6 67.15 172.45 65.85
L 181.25 65.85 181.25 65.05
Q 181.25 63.55 180.85 62.4 180.45 61.2 179.75 60.4 179.05 59.6 178.05 59.2 177.05 58.8 175.85 58.8
M 173.4 61.65
Q 174.15 60.95 175.45 60.95 176.8 60.95 177.6 61.65 178.35 62.4 178.4 63.65
L 172.45 63.65
Q 172.65 62.45 173.4 61.65
M 185.45 59.05
L 182.35 59.05 187.05 70.6 190.15 70.6 194.65 59.05 191.75 59.05 188.6 67.15 188.55 67.15 185.45 59.05
M 199.55 59.2
Q 198.4 59.65 197.55 60.45 196.75 61.25 196.2 62.35 195.75 63.45 195.75 64.85 195.75 66.2 196.2 67.35 196.75 68.45 197.55 69.2 198.4 70 199.55 70.45 200.65 70.85 202 70.85 203.35 70.85 204.6 70.35 205.85 69.8 206.85 68.6
L 204.8 67
Q 204.25 67.65 203.55 68.15 202.8 68.6 201.65 68.6 200.45 68.6 199.6 67.85 198.75 67.15 198.6 65.85
L 207.4 65.85 207.4 65.05
Q 207.4 63.55 207 62.4 206.6 61.2 205.85 60.4 205.2 59.6 204.2 59.2 203.2 58.8 202 58.8 200.65 58.8 199.55 59.2
M 199.55 61.65
Q 200.25 60.95 201.6 60.95 202.95 60.95 203.75 61.65 204.45 62.4 204.55 63.65
L 198.6 63.65
Q 198.8 62.45 199.55 61.65
M 306.4 59.2
Q 305.2 58.8 303.95 58.8 302.6 58.8 301.45 59.2 300.35 59.65 299.45 60.45 298.65 61.25 298.15 62.35 297.65 63.45 297.65 64.85 297.65 66.2 298.15 67.35 298.65 68.45 299.45 69.2 300.35 70 301.45 70.45 302.6 70.85 303.95 70.85 305.2 70.85 306.4 70.45 307.55 70 308.35 69.2 309.2 68.45 309.65 67.35 310.2 66.2 310.2 64.85 310.2 63.45 309.65 62.35 309.2 61.25 308.35 60.45 307.55 59.65 306.4 59.2
M 303.95 61.4
Q 304.75 61.4 305.35 61.65 305.95 61.95 306.4 62.45 306.85 62.95 307.05 63.55 307.25 64.15 307.25 64.85 307.25 65.55 307.05 66.15 306.85 66.75 306.4 67.25 305.95 67.75 305.35 68 304.75 68.25 303.95 68.25 303.15 68.25 302.55 68 301.85 67.75 301.45 67.25 301 66.75 300.75 66.15 300.55 65.55 300.55 64.85 300.55 64.15 300.75 63.55 301 62.95 301.45 62.45 301.85 61.95 302.55 61.65 303.15 61.4 303.95 61.4
M 255.45 60.4
Q 254.8 59.6 253.8 59.2 252.8 58.8 251.6 58.8 250.25 58.8 249.15 59.2 248 59.65 247.15 60.45 246.35 61.25 245.8 62.35 245.35 63.45 245.35 64.85 245.35 66.2 245.8 67.35 246.35 68.45 247.15 69.2 248 70 249.15 70.45 250.25 70.85 251.6 70.85 252.95 70.85 254.2 70.35 255.45 69.8 256.45 68.6
L 254.4 67
Q 253.85 67.65 253.15 68.15 252.4 68.6 251.25 68.6 250.05 68.6 249.2 67.85 248.35 67.15 248.2 65.85
L 257 65.85 257 65.05
Q 257 63.55 256.6 62.4 256.2 61.2 255.45 60.4
M 249.15 61.65
Q 249.85 60.95 251.2 60.95 252.55 60.95 253.35 61.65 254.05 62.4 254.15 63.65
L 248.2 63.65
Q 248.4 62.45 249.15 61.65
M 267 58.95
L 266 58.8
Q 264.8 58.8 263.95 59.35 263.05 59.95 262.55 60.95
L 262.55 59.05 259.6 59.05 259.6 70.6 262.55 70.6 262.55 64.45 262.6 63.75
Q 262.75 63.2 263.05 62.75 263.4 62.25 264 61.95 264.6 61.55 265.6 61.55
L 267 61.75 267 58.95
M 281 53.6
L 276.4 53.6 276.4 70.6 279.25 70.6 279.25 56.45 284.45 70.6 286.55 70.6 291.75 56.45 291.8 56.45 291.8 70.6 294.65 70.6 294.65 53.6 290.05 53.6 285.55 65.55 281 53.6
M 627.35 340.15
L 627.35 342 632.15 342 632.15 344.35 634.05 344.35 634.05 342 635.75 342 635.75 340.35 634.05 340.35 634.05 333 631.95 333 627.35 340.15
M 632.15 340.35
L 629.25 340.35 632.15 335.75 632.15 340.35
M 502.65 342.35
L 502.65 344.35 510.25 344.35 510.25 342.6 505 342.6 508.55 339.35
Q 509.25 338.65 509.8 337.85 510.25 337.05 510.25 336 510.25 335.2 510 334.6 509.65 334 509.2 333.6 508.65 333.2 508 333 507.35 332.8 506.6 332.8 505.8 332.8 505.2 333 504.55 333.2 504 333.6 503.55 334 503.2 334.6 502.85 335.2 502.85 336
L 504.85 336.2
Q 504.95 335.45 505.4 335.05 505.85 334.65 506.6 334.65 506.95 334.65 507.2 334.75 507.55 334.85 507.75 335.05 508 335.2 508.15 335.55 508.25 335.8 508.25 336.15 508.25 336.4 508.15 336.65
L 507.85 337.2 502.65 342.35
M 566.65 334.15
Q 566.35 334.6 566.15 335.25
L 568.15 335.8
Q 568.35 335.2 568.8 334.85 569.25 334.55 569.85 334.55 570.55 334.55 571 334.95 571.45 335.4 571.45 336 571.45 336.55 571.25 336.85 571.05 337.15 570.75 337.35 570.45 337.45 570.05 337.55
L 568.75 337.6 568.75 339.25 570.05 339.35
Q 570.55 339.4 570.95 339.6 571.25 339.8 571.45 340.15 571.75 340.45 571.75 341 571.75 341.4 571.6 341.75 571.4 342.05 571.15 342.35 570.85 342.55 570.55 342.65 570.2 342.8 569.8 342.8 569.05 342.8 568.6 342.4 568.15 342 568 341.35
L 565.95 341.85
Q 566.15 342.6 566.45 343.05 566.85 343.6 567.4 343.95 567.85 344.2 568.45 344.4 569.15 344.55 569.8 344.55 570.6 344.55 571.25 344.35 571.95 344.05 572.45 343.65 573 343.25 573.35 342.6 573.65 342 573.65 341.2 573.65 340.15 573.05 339.35 572.55 338.6 571.45 338.4 572.35 338.2 572.85 337.45 573.4 336.75 573.4 335.85 573.4 335.05 573.05 334.55 572.8 333.95 572.25 333.6 571.8 333.2 571.15 333 570.45 332.8 569.75 332.8 569.15 332.8 568.55 332.95 567.95 333.05 567.45 333.4 567 333.65 566.65 334.15
M 447.15 344.35
L 447.15 333 445.4 333 442 335.85 443.05 337.2 445.2 335.2 445.2 344.35 447.15 344.35
M 362.35 335.2
L 362.35 344.35 364.25 344.35 364.25 333 362.55 333 359.15 335.85 360.2 337.2 362.35 335.2
M 324.4 344.35
L 324.4 333 322.65 333 319.25 335.85 320.35 337.2 322.45 335.2 322.45 344.35 324.4 344.35
M 392.25 336.45
Q 391.35 336.45 390.75 336.85 390.2 337.35 389.95 337.85
L 389.85 337.85 389.85 336.65 388.05 336.65 388.05 344.35 390 344.35 390 340.15
Q 390 339.75 390.05 339.4 390.2 339.05 390.4 338.8 390.6 338.55 390.95 338.35 391.25 338.2 391.75 338.2 392.45 338.2 392.75 338.6 393.05 339.05 393.05 339.75
L 393.05 344.35 395 344.35 395.05 339.45
Q 395.15 339.05 395.35 338.8 395.55 338.55 395.85 338.35 396.2 338.2 396.65 338.2 397.05 338.2 397.35 338.35 397.6 338.45 397.8 338.75 397.95 339 398 339.35
L 398.05 340 398.05 344.35 400 344.35 400 339.75
Q 400 339.05 399.8 338.45 399.65 337.85 399.35 337.4 399.05 337 398.55 336.75 398 336.45 397.2 336.45 396.35 336.45 395.75 336.8 395.05 337.15 394.65 337.85 394.05 336.45 392.25 336.45
M 384.2 336.8
Q 383.45 336.45 382.6 336.45 381.75 336.45 381.05 336.8 380.35 337.05 379.95 337.8
L 379.95 336.65 378.05 336.65 378.05 348 380 348 380 343.35 380.05 343.35 380.4 343.75 381 344.15
Q 381.25 344.35 381.75 344.4 382.15 344.55 382.65 344.55 383.45 344.55 384.2 344.2 384.85 343.95 385.35 343.35 385.8 342.8 386.15 342.05 386.4 341.35 386.4 340.45 386.4 339.65 386.15 338.95 385.85 338.2 385.4 337.6 384.85 337.05 384.2 336.8
M 380.55 338.85
Q 380.85 338.6 381.25 338.4 381.65 338.2 382.2 338.2 382.75 338.2 383.15 338.4 383.55 338.6 383.85 338.85 384.15 339.2 384.35 339.6 384.45 340.05 384.45 340.45 384.45 340.95 384.35 341.35 384.15 341.8 383.85 342.05 383.55 342.4 383.15 342.6 382.75 342.8 382.2 342.8 381.65 342.8 381.25 342.6 380.85 342.4 380.55 342.05 380.25 341.8 380.05 341.35 379.95 340.95 379.95 340.45 379.95 340.05 380.05 339.6 380.25 339.2 380.55 338.85
M 373.8 333
Q 373.15 332.8 372.4 332.8 371.6 332.8 371 333 370.35 333.2 369.8 333.6 369.35 334 369 334.6 368.65 335.2 368.65 336
L 370.65 336.2
Q 370.75 335.45 371.2 335.05 371.65 334.65 372.4 334.65 372.75 334.65 373 334.75 373.35 334.85 373.55 335.05 373.8 335.2 373.95 335.55 374.05 335.8 374.05 336.15 374.05 336.4 373.95 336.65
L 373.65 337.2 373.25 337.65 368.45 342.35 368.45 344.35 376.05 344.35 376.05 342.6 370.8 342.6 374.35 339.35
Q 375.05 338.65 375.6 337.85 376.05 337.05 376.05 336 376.05 335.2 375.8 334.6 375.45 334 375 333.6 374.45 333.2 373.8 333
M 381 59.05
L 378.15 59.05 378.15 65.4
Q 378.15 65.95 378 66.45 377.85 67 377.55 67.4 377.2 67.8 376.75 68.05 376.2 68.25 375.45 68.25 374.75 68.25 374.35 67.95 373.85 67.6 373.65 67.05 373.45 66.6 373.4 66
L 373.4 59.05 370.45 59.05 370.45 66.35
Q 370.45 67.25 370.75 68.05 370.95 68.85 371.4 69.55 371.95 70.15 372.75 70.55 373.55 70.85 374.75 70.85 376.15 70.85 377 70.25 377.8 69.6 378.2 68.75
L 378.25 68.75 378.25 70.6 381 70.6 381 59.05
M 397.8 58.8
Q 396.55 58.8 395.6 59.35 394.65 59.8 394 60.95 393.15 58.8 390.4 58.8 389 58.8 388.15 59.4 387.25 60.05 386.95 60.85
L 386.85 60.85 386.85 59.05 384.15 59.05 384.15 70.6 387 70.6 387 64.35
Q 387 63.75 387.15 63.2 387.25 62.65 387.6 62.25 387.95 61.85 388.4 61.6 388.95 61.4 389.6 61.4 390.65 61.4 391.15 62 391.6 62.65 391.6 63.75
L 391.6 70.6 394.45 70.6 394.45 64.35 394.6 63.25
Q 394.75 62.75 395.05 62.35 395.35 61.85 395.8 61.65 396.25 61.4 396.95 61.4 397.6 61.4 398 61.6 398.4 61.8 398.65 62.2 398.95 62.55 399 63.05
L 399.05 70.6 402 70.6 402 63.75
Q 402 62.75 401.75 61.8 401.55 60.95 401.05 60.2 400.55 59.55 399.75 59.2 399 58.8 397.8 58.8
M 329.65 60.2
Q 329.15 59.55 328.35 59.2 327.6 58.8 326.4 58.8 325.15 58.8 324.2 59.35 323.25 59.8 322.6 60.95 321.75 58.8 319 58.8 317.6 58.8 316.75 59.4 315.85 60.05 315.55 60.85
L 315.45 60.85 315.45 59.05 312.75 59.05 312.75 70.6 315.6 70.6 315.6 64.35
Q 315.6 63.75 315.75 63.2 315.85 62.65 316.2 62.25 316.55 61.85 317 61.6 317.55 61.4 318.2 61.4 319.25 61.4 319.75 62 320.2 62.65 320.2 63.75
L 320.2 70.6 323.05 70.6 323.05 64.35 323.2 63.25
Q 323.35 62.75 323.65 62.35 323.95 61.85 324.4 61.65 324.85 61.4 325.55 61.4 326.2 61.4 326.6 61.6 327 61.8 327.25 62.2 327.55 62.55 327.6 63.05
L 327.65 70.6 330.6 70.6 330.6 63.75
Q 330.6 62.75 330.35 61.8 330.15 60.95 329.65 60.2
M 344.8 65.05
Q 344.8 63.55 344.4 62.4 344 61.2 343.25 60.4 342.6 59.6 341.6 59.2 340.6 58.8 339.4 58.8 338.05 58.8 336.95 59.2 335.8 59.65 334.95 60.45 334.15 61.25 333.6 62.35 333.15 63.45 333.15 64.85 333.15 66.2 333.6 67.35 334.15 68.45 334.95 69.2 335.8 70 336.95 70.45 338.05 70.85 339.4 70.85 340.75 70.85 342 70.35 343.25 69.8 344.25 68.6
L 342.2 67
Q 341.65 67.65 340.95 68.15 340.2 68.6 339.05 68.6 337.85 68.6 337 67.85 336.15 67.15 336 65.85
L 344.8 65.85 344.8 65.05
M 339 60.95
Q 340.35 60.95 341.15 61.65 341.85 62.4 341.95 63.65
L 336 63.65
Q 336.2 62.45 336.95 61.65 337.65 60.95 339 60.95
M 362.2 59.05
L 359.8 59.05 359.8 61.55 362.2 61.55 362.2 66.8
Q 362.2 67.8 362.35 68.6 362.55 69.35 362.95 69.85 363.35 70.4 364.05 70.65 364.8 70.85 366 70.85
L 367.15 70.8
Q 367.8 70.75 368.25 70.55
L 368.25 68.05
Q 368 68.25 367.55 68.35
L 366.65 68.45
Q 365.75 68.45 365.4 67.95 365.05 67.45 365.05 66.6
L 365.05 61.55 368.25 61.55 368.25 59.05 365.05 59.05 365.05 55.75 362.2 55.75 362.2 59.05
M 357.75 61.6
Q 357.55 60.8 357 60.2 356.45 59.55 355.75 59.2 354.85 58.8 353.75 58.8 352.35 58.8 351.45 59.4 350.6 60.05 350.2 60.95
L 350.2 59.05 347.4 59.05 347.4 70.6 350.35 70.6 350.35 64.35
Q 350.35 63.75 350.45 63.2 350.6 62.65 350.95 62.25 351.25 61.85 351.75 61.6 352.25 61.4 352.95 61.4 353.65 61.4 354.15 61.75 354.55 62.05 354.75 62.6 354.95 63.15 355 63.65
L 355.05 70.6 357.95 70.6 357.95 63.35
Q 357.95 62.45 357.75 61.6
M 457.05 61.6
Q 456.85 60.8 456.35 60.2 455.8 59.55 455.05 59.2 454.2 58.8 453.05 58.8 451.75 58.8 450.85 59.4 450 60 449.65 60.65
L 449.65 52.45 446.75 52.45 446.75 70.6 449.65 70.6 449.65 64.35
Q 449.65 63.75 449.8 63.2 449.95 62.65 450.25 62.25 450.6 61.85 451.05 61.6 451.6 61.4 452.25 61.4 453 61.4 453.45 61.75 453.85 62.05 454.05 62.6 454.25 63.15 454.35 63.65
L 454.4 70.6 457.25 70.6 457.25 63.35
Q 457.25 62.45 457.05 61.6
M 470.6 60.45
Q 469.8 59.65 468.65 59.2 467.45 58.8 466.2 58.8 464.85 58.8 463.75 59.2 462.6 59.65 461.75 60.45 460.95 61.25 460.4 62.35 459.95 63.45 459.95 64.85 459.95 66.2 460.4 67.35 460.95 68.45 461.75 69.2 462.6 70 463.75 70.45 464.85 70.85 466.2 70.85 467.45 70.85 468.65 70.45 469.8 70 470.6 69.2 471.45 68.45 471.95 67.35 472.45 66.2 472.45 64.85 472.45 63.45 471.95 62.35 471.45 61.25 470.6 60.45
M 466.2 61.4
Q 467 61.4 467.6 61.65 468.2 61.95 468.65 62.45 469.15 62.95 469.35 63.55 469.55 64.15 469.55 64.85 469.55 65.55 469.35 66.15 469.15 66.75 468.65 67.25 468.2 67.75 467.6 68 467 68.25 466.2 68.25 465.4 68.25 464.8 68 464.15 67.75 463.75 67.25 463.25 66.75 463 66.15 462.8 65.55 462.8 64.85 462.8 64.15 463 63.55 463.25 62.95 463.75 62.45 464.15 61.95 464.8 61.65 465.4 61.4 466.2 61.4
M 485.6 59.05
L 482.75 59.05 482.75 65.4
Q 482.75 65.95 482.6 66.45 482.45 67 482.15 67.4 481.8 67.8 481.35 68.05 480.8 68.25 480.05 68.25 479.35 68.25 478.95 67.95 478.45 67.6 478.25 67.05 478.05 66.6 478 66
L 478 59.05 475.05 59.05 475.05 66.35
Q 475.05 67.25 475.35 68.05 475.55 68.85 476 69.55 476.55 70.15 477.35 70.55 478.15 70.85 479.35 70.85 480.75 70.85 481.6 70.25 482.4 69.6 482.8 68.75
L 482.85 68.75 482.85 70.6 485.6 70.6 485.6 59.05
M 434.15 59.05
L 431.25 59.05 431.25 70.6 434.15 70.6 434.15 59.05
M 429.55 59.05
L 426.65 59.05 424.25 67.15 424.2 67.15 421.75 59.05 418.6 59.05 416.25 67.15 416.2 67.15 413.75 59.05 410.6 59.05 414.6 70.6 417.6 70.6 420 62.75 420.05 62.75 422.8 70.6 425.65 70.6 429.55 59.05
M 434 53.95
Q 433.45 53.45 432.65 53.45 431.95 53.45 431.4 53.95 430.85 54.45 430.85 55.15 430.85 55.85 431.4 56.4 431.95 56.95 432.65 56.95 433.45 56.95 434 56.4 434.6 55.95 434.6 55.15 434.6 54.4 434 53.95
M 438.45 55.75
L 438.45 59.05 436.05 59.05 436.05 61.55 438.45 61.55 438.45 66.8
Q 438.45 67.8 438.6 68.6 438.8 69.35 439.2 69.85 439.6 70.4 440.35 70.65 441.05 70.85 442.25 70.85
L 443.4 70.8
Q 444.05 70.75 444.55 70.55
L 444.55 68.05
Q 444.25 68.25 443.8 68.35
L 442.95 68.45
Q 442 68.45 441.65 67.95 441.35 67.45 441.35 66.6
L 441.35 61.55 444.55 61.55 444.55 59.05 441.35 59.05 441.35 55.75 438.45 55.75
M 530.65 59.2
Q 529.55 59.65 528.65 60.45 527.85 61.25 527.35 62.35 526.85 63.45 526.85 64.85 526.85 66.2 527.35 67.35 527.85 68.45 528.65 69.2 529.55 70 530.65 70.45 531.8 70.85 533.15 70.85 534.45 70.85 535.75 70.35 537 69.8 538 68.6
L 535.95 67
Q 535.4 67.65 534.65 68.15 533.95 68.6 532.8 68.6 531.6 68.6 530.75 67.85 529.85 67.15 529.75 65.85
L 538.55 65.85 538.55 65.05
Q 538.55 63.55 538.15 62.4 537.75 61.2 537 60.4 536.35 59.6 535.35 59.2 534.35 58.8 533.15 58.8 531.8 58.8 530.65 59.2
M 530.65 61.65
Q 531.4 60.95 532.75 60.95 534.05 60.95 534.85 61.65 535.6 62.4 535.65 63.65
L 529.75 63.65
Q 529.95 62.45 530.65 61.65
M 550.75 60.4
Q 550.05 59.6 549.05 59.2 548.05 58.8 546.85 58.8 545.55 58.8 544.4 59.2 543.25 59.65 542.4 60.45 541.6 61.25 541.05 62.35 540.6 63.45 540.6 64.85 540.6 66.2 541.05 67.35 541.6 68.45 542.4 69.2 543.25 70 544.4 70.45 545.55 70.85 546.85 70.85 548.2 70.85 549.45 70.35 550.75 69.8 551.75 68.6
L 549.65 67
Q 549.15 67.65 548.4 68.15 547.65 68.6 546.55 68.6 545.35 68.6 544.45 67.85 543.6 67.15 543.45 65.85
L 552.25 65.85 552.25 65.05
Q 552.25 63.55 551.85 62.4 551.45 61.2 550.75 60.4
M 548.6 61.65
Q 549.35 62.4 549.4 63.65
L 543.45 63.65
Q 543.65 62.45 544.4 61.65 545.15 60.95 546.45 60.95 547.8 60.95 548.6 61.65
M 562 61.55
L 562 59.05 558.8 59.05 558.8 55.75 555.95 55.75 555.95 59.05 553.55 59.05 553.55 61.55 555.95 61.55 555.95 66.8
Q 555.95 67.8 556.05 68.6 556.25 69.35 556.65 69.85 557.05 70.4 557.8 70.65 558.55 70.85 559.75 70.85
L 560.85 70.8
Q 561.55 70.75 562 70.55
L 562 68.05
Q 561.75 68.25 561.25 68.35
L 560.4 68.45
Q 559.45 68.45 559.15 67.95 558.8 67.45 558.8 66.6
L 558.8 61.55 562 61.55
M 487.45 61.55
L 489.85 61.55 489.85 66.8
Q 489.85 67.8 490 68.6 490.2 69.35 490.6 69.85 491 70.4 491.75 70.65 492.45 70.85 493.65 70.85
L 494.8 70.8
Q 495.45 70.75 495.95 70.55
L 495.95 68.05
Q 495.65 68.25 495.2 68.35
L 494.35 68.45
Q 493.4 68.45 493.05 67.95 492.75 67.45 492.75 66.6
L 492.75 61.55 495.95 61.55 495.95 59.05 492.75 59.05 492.75 55.75 489.85 55.75 489.85 59.05 487.45 59.05 487.45 61.55
M 520.95 56.45
L 521 56.45 521 70.6 523.85 70.6 523.85 53.6 519.25 53.6 514.75 65.55 510.2 53.6 505.6 53.6 505.6 70.6 508.45 70.6 508.45 56.45 513.65 70.6 515.75 70.6 520.95 56.45
M 567.15 70.6
L 567.15 59.05 564.25 59.05 564.25 70.6 567.15 70.6
M 567 56.4
Q 567.6 55.95 567.6 55.15 567.6 54.4 567 53.95 566.45 53.45 565.65 53.45 564.95 53.45 564.4 53.95 563.85 54.45 563.85 55.15 563.85 55.85 564.4 56.4 564.95 56.95 565.65 56.95 566.45 56.95 567 56.4
M 580 60.2
Q 579.45 59.55 578.75 59.2 577.85 58.8 576.75 58.8 575.35 58.8 574.45 59.4 573.6 60.05 573.2 60.95
L 573.2 59.05 570.4 59.05 570.4 70.6 573.35 70.6 573.35 64.35
Q 573.35 63.75 573.45 63.2 573.6 62.65 573.95 62.25 574.25 61.85 574.75 61.6 575.25 61.4 575.95 61.4 576.65 61.4 577.15 61.75 577.55 62.05 577.75 62.6 577.95 63.15 578 63.65
L 578.05 70.6 580.95 70.6 580.95 63.35
Q 580.95 62.45 580.75 61.6 580.55 60.8 580 60.2
M 596 59.05
L 593.25 59.05 593.25 60.8 593.2 60.8
Q 592.6 59.75 591.55 59.25 590.55 58.8 589.25 58.8 587.95 58.8 586.85 59.25 585.85 59.75 585.05 60.55 584.35 61.35 584 62.45 583.6 63.6 583.6 64.85 583.6 66.05 584 67.15 584.4 68.2 585.15 69 585.95 69.8 587 70.25 588 70.75 589.35 70.75 590.4 70.75 591.45 70.35 592.45 69.95 593.05 69.05
L 593.15 69.05 593.15 69.95
Q 593.15 70.75 592.95 71.45 592.8 72.2 592.35 72.65 591.95 73.2 591.2 73.45 590.55 73.75 589.45 73.75 588.25 73.75 587.35 73.35 586.4 72.95 585.55 72.15
L 583.8 74.45
Q 585 75.55 586.45 75.95 587.95 76.35 589.55 76.35 591.2 76.35 592.4 75.85 593.65 75.4 594.45 74.55 595.25 73.65 595.65 72.4 596 71.15 596 69.6
L 596 59.05
M 588.45 61.65
Q 589.15 61.4 589.85 61.4 591.45 61.4 592.4 62.35 593.25 63.25 593.25 64.75 593.25 65.45 593.05 66.15 592.8 66.75 592.35 67.2 591.95 67.6 591.25 67.85 590.65 68.15 589.85 68.15 589.15 68.15 588.55 67.85 587.85 67.6 587.4 67.15 587 66.75 586.75 66.15 586.45 65.55 586.45 64.8 586.45 64.05 586.75 63.4 587 62.8 587.4 62.35 587.85 61.85 588.45 61.65
M 600 59.65
Q 599.35 60.15 598.95 60.85 598.55 61.55 598.55 62.55 598.55 63.6 599 64.25 599.45 64.85 600.15 65.2 600.85 65.55 601.65 65.75
L 603.15 66.05
Q 603.85 66.2 604.35 66.55 604.8 66.8 604.8 67.4 604.8 67.75 604.6 68
L 604.15 68.4 603.55 68.65 602.85 68.75
Q 601.95 68.75 601.35 68.35 600.65 67.95 600.15 67.35
L 598.2 69.15
Q 599.05 70.15 600.2 70.55 601.35 70.85 602.65 70.85 603.6 70.85 604.45 70.65 605.35 70.55 606.05 70.05 606.75 69.65 607.2 68.95 607.65 68.2 607.65 67.2 607.65 66.05 607.2 65.4 606.75 64.75 606.05 64.4 605.35 64 604.55 63.85
L 603.05 63.45
Q 602.35 63.35 601.95 63.05 601.45 62.85 601.45 62.35 601.45 61.65 602 61.4 602.55 61.05 603.15 61.05 604.55 61.05 605.4 62.25
L 607.25 60.55
Q 606.6 59.6 605.45 59.2 604.35 58.8 603.2 58.8 602.35 58.8 601.45 59 600.65 59.2 600 59.65 Z"/>

<path fill="#FFFFFF" stroke="none" d="
M 604.6 362.85
L 604.6 350.2 600.35 350.2 600.35 362.85 604.6 362.85
M 537.2 350.2
L 537.2 362.85 600.35 362.85 600.35 350.2 537.2 350.2
M 532.65 362.85
L 537.2 362.85 537.2 350.2 532.65 350.2 532.65 362.85
M 663.4 85.55
L 661.8 85.6 663.4 85.6 663.4 85.55 Z"/>
</g>
</g>

<g>
<path stroke="#FF0000" stroke-width="1" stroke-linejoin="round" stroke-linecap="round" fill="none" d="
M 1494 37.95
L 2154.25 37.95
Q 2166.2 37.95 2166.2 52.65
L 2166.2 385.15
Q 2165.85 399 2154.25 399
L 2128 399 2128 455 1938 455 1938 417 1785.95 417 1785.95 455 1766.95 455 1766.95 417 1710 417 1710 455 1520 455 1520 399 1494 399
Q 1482.35 399 1482 385.15
L 1482 52.65
Q 1482 37.95 1494 37.95 Z
M 1562.95 310.55
Q 1574.75 305.4 1583.8 293.85
L 1647.55 186.65
Q 1663 151.55 1667.2 153.85 1670.35 152.2 1677.4 161.75 1681.95 167.8 1688.05 178.55 1701.2 187.4 1709.45 190.35 1724.75 208 1730.35 207.85 1732.8 205.65 1735.4 202.2 1737.55 199.2 1739.8 195.35 1745.15 186.05 1750.95 171.55 1766.4 136.55 1772.65 137.55 1777.6 141.55 1780 176.65 1781.45 198.15 1781.95 231.35 1783.15 298.75 1793.8 319.35
L 1813.8 320.35 1835.45 320.2 1856 315.95
Q 1862.85 313.95 1871 301.15 1879.2 288.25 1896.6 285.75 1902.65 284.55 1919.4 249.25
L 1981.75 143.35
Q 1994.4 124.4 2002.85 123.95 2006.05 123.15 2020.2 140 2027.85 150.05 2035.6 119.6 2044.6 91.8 2062.2 128.4 2063.6 131.45 2065.15 134.95 2076.35 151 2087.2 161.25 2100.65 165.2 2107.35 161.25
L 2107.35 84.55 2105.75 84.6
Q 2105.4 84.55 2105.15 84.6 1920.25 84.6 1735.4 84.65 1638.6 84.65 1541.85 84.65
L 1541.85 319.35 1542.35 319.2 1562.95 310.55 Z
M 1507.05 495.6
L 2167.35 495.6
Q 2179.25 495.6 2179.25 510.35
L 2179.25 842.65
Q 2179 856.65 2167.35 856.65
L 2141.15 856.65 2141.15 912 1951.15 912 1951.15 874 1894.15 874 1894.15 912 1875.15 912 1875.15 874 1723.15 874 1723.15 912 1533.15 912 1533.15 856.65 1507.05 856.65
Q 1495.35 856.65 1495.05 842.65
L 1495.05 510.35
Q 1495.05 495.6 1507.05 495.6 Z
M 1555 779.4
L 1575.75 768.85
Q 1593.45 758.4 1597.6 760.2 1601.75 762 1608.4 771.6 1613.2 778.65 1617.4 780.25
L 1680.45 780.25
Q 1699.6 779.85 1704.95 772.45 1710.2 765.05 1722.85 752.55 1733.35 742.15 1743.95 742.8 1747.75 741.8 1758.65 750.4 1766.95 757.45 1776.75 740.8 1789.75 724.45 1796.05 756.6 1801.35 774.65 1806.6 780.15
L 1869.8 780.15
Q 1902.8 767.15 1911 768.8 1914.8 768.65 1927.85 777 1929.85 778.35 1932.15 779.8
L 1995 779.8
Q 2011 778.6 2015.8 775.15 2022.65 770.05 2026.95 762.65 2031.15 755.2 2036.8 751.6 2042.2 748 2058 743.25 2064.2 738.75 2069.15 727.6 2074.05 716.4 2079.15 716.05 2082.6 717 2095.55 729.15 2105.25 738.35 2120.55 735.35
L 2120.55 543.25 1555 543.25 1555 779.4 Z
M 840.95 310.55
Q 852.75 305.4 861.8 293.85
L 925.55 186.65
Q 941 151.55 945.2 153.85 948.35 152.2 955.4 161.75 959.95 167.8 966.05 178.55 979.2 187.4 987.45 190.35 1002.75 208 1008.35 207.85 1010.8 205.65 1013.4 202.2 1015.55 199.2 1017.8 195.35 1023.15 186.05 1028.95 171.55 1044.4 136.55 1050.65 137.55 1055.6 141.55 1058 176.65 1059.45 198.15 1059.95 231.35 1061.15 298.75 1071.8 319.35
L 1091.8 320.35 1113.45 320.2 1134 315.95
Q 1140.85 313.95 1149 301.15 1157.2 288.25 1174.6 285.75 1180.65 284.55 1197.4 249.25
L 1259.75 143.35
Q 1272.4 124.4 1280.85 123.95 1284.05 123.15 1298.2 140 1305.85 150.05 1313.6 119.6 1322.6 91.8 1340.2 128.4 1341.6 131.45 1343.15 134.95 1354.35 151 1365.2 161.25 1378.65 165.2 1385.35 161.25
L 1385.35 84.55 1383.75 84.6
Q 1383.4 84.55 1383.15 84.6 1198.25 84.6 1013.4 84.65 916.6 84.65 819.85 84.65
L 819.85 319.35 820.35 319.2 840.95 310.55 Z
M 772 37.95
L 1432.25 37.95
Q 1444.2 37.95 1444.2 52.65
L 1444.2 385.15
Q 1443.85 399 1432.25 399
L 1406 399 1406 455 1216 455 1216 417 1063.95 417 1063.95 455 1044.95 455 1044.95 417 988 417 988 455 798 455 798 399 772 399
Q 760.35 399 760 385.15
L 760 52.65
Q 760 37.95 772 37.95 Z
M 766.05 494.8
L 1426.35 494.8
Q 1438.25 494.8 1438.25 509.55
L 1438.25 841.85
Q 1438 855.85 1426.35 855.85
L 1400.15 855.85 1400.15 911.2 1210.15 911.2 1210.15 873.2 1153.15 873.2 1153.15 911.2 1134.15 911.2 1134.15 873.2 982.15 873.2 982.15 911.2 792.15 911.2 792.15 855.85 766.05 855.85
Q 754.35 855.85 754.05 841.85
L 754.05 509.55
Q 754.05 494.8 766.05 494.8 Z
M 814 778.6
L 834.75 768.05
Q 852.45 757.6 856.6 759.4 860.75 761.2 867.4 770.8 872.2 777.85 876.4 779.45
L 939.45 779.45
Q 958.6 779.05 963.95 771.65 969.2 764.25 981.85 751.75 992.35 741.35 1002.95 742 1006.75 741 1017.65 749.6 1025.95 756.65 1035.75 740 1048.75 723.65 1055.05 755.8 1060.35 773.85 1065.6 779.35
L 1128.8 779.35
Q 1161.8 766.35 1170 768 1173.8 767.85 1186.85 776.2 1188.85 777.55 1191.15 779
L 1254 779
Q 1270 777.8 1274.8 774.35 1281.65 769.25 1285.95 761.85 1290.15 754.4 1295.8 750.8 1301.2 747.2 1317 742.45 1323.2 737.95 1328.15 726.8 1333.05 715.6 1338.15 715.25 1341.6 716.2 1354.55 728.35 1364.25 737.55 1379.55 734.55
L 1379.55 542.45 814 542.45 814 778.6 Z
M 661.8 85.6
Q 661.45 85.55 661.2 85.6 476.35 85.6 291.45 85.65 194.65 85.65 97.95 85.65
L 97.95 320.35 98.4 320.2 119 311.55
Q 130.8 306.4 139.85 294.85
L 203.6 187.65
Q 219.05 152.55 223.25 154.85 226.4 153.2 233.45 162.75 238 168.8 244.15 179.55 257.25 188.4 265.55 191.35 280.8 209 286.4 208.85 288.85 206.65 291.45 203.2 293.6 200.2 295.85 196.35 301.2 187.05 307 172.55 322.45 137.55 328.75 138.55 333.65 142.55 336.05 177.65 337.55 199.15 338 232.35 339.2 299.75 349.85 320.35
L 369.85 321.35 391.55 321.2 412.05 316.95
Q 418.95 314.95 427.05 302.15 435.25 289.25 452.65 286.75 458.75 285.55 475.45 250.25
L 537.8 144.35
Q 550.45 125.4 558.95 124.95 562.15 124.15 576.25 141 583.95 151.05 591.65 120.6 600.65 92.8 618.25 129.4 619.65 132.45 621.2 135.95 632.4 152 643.25 162.25 656.75 166.2 663.4 162.25
L 663.4 85.6
M 661.8 85.6
L 663.4 85.55 663.4 85.6
M 50.05 38.95
L 710.35 38.95
Q 722.25 38.95 722.25 53.65
L 722.25 386.15
Q 721.95 400 710.35 400
L 684.05 400 684.05 456 494.05 456 494.05 418 342 418 342 456 323 456 323 418 266.05 418 266.05 456 76.05 456 76.05 400 50.05 400
Q 38.4 400 38.05 386.15
L 38.05 53.65
Q 38.05 38.95 50.05 38.95 Z
M 49.95 495.6
L 710.2 495.6
Q 722.15 495.6 722.15 510.35
L 722.15 842.65
Q 721.85 856.65 710.2 856.65
L 684 856.65 684 912 494 912 494 874 437 874 437 912 418 912 418 874 266 874 266 912 76 912 76 856.65 49.95 856.65
Q 38.2 856.65 37.95 842.65
L 37.95 510.35
Q 37.95 495.6 49.95 495.6 Z
M 97.85 779.4
L 118.6 768.85
Q 136.35 758.4 140.45 760.2 144.6 762 151.25 771.6 156.05 778.65 160.25 780.25
L 223.35 780.25
Q 242.45 779.85 247.8 772.45 253.05 765.05 265.75 752.55 276.2 742.15 286.8 742.8 290.6 741.8 301.55 750.4 309.8 757.45 319.6 740.8 332.6 724.45 338.95 756.6 344.2 774.65 349.45 780.15
L 412.65 780.15
Q 445.65 767.15 453.85 768.8 457.65 768.65 470.75 777 472.75 778.35 475 779.8
L 537.85 779.8
Q 553.85 778.6 558.65 775.15 565.55 770.05 569.8 762.65 574 755.2 579.65 751.6 585.05 748 600.85 743.25 607.05 738.75 612 727.6 616.95 716.4 622 716.05 625.45 717 638.4 729.15 648.15 738.35 663.4 735.35
L 663.4 543.25 97.85 543.25 97.85 779.4 Z"/>
</g>

<g>
<path stroke="#000000" stroke-width="1" stroke-linejoin="round" stroke-linecap="round" fill="none" d="
M 604.6 350.2
L 663.45 350.2 663.45 362.85 604.6 362.85 600.35 362.85 537.2 362.85 532.65 362.85 474.15 362.85 411.05 362.85 404.8 362.85 395.45 362.85 385.95 362.85 376.4 362.85 367.15 362.85 358.15 362.85 348.85 362.85 285.35 362.85 222.2 362.85 160 362.85 95.75 362.85 95.75 350.2 160 350.2 222.2 350.2 285.35 350.2 348.85 350.2 352.35 350.2 361 350.2 370.35 350.2 379.25 350.2 388.55 350.2 398.15 350.2 407.65 350.2 411.05 350.2 474.15 350.2 532.65 350.2 537.2 350.2 600.35 350.2 604.6 350.2 Z
M 348.85 350.2
L 348.85 353.85 352.35 350.2
M 348.85 353.85
L 348.85 362.85 361 350.2
M 385.95 362.85
L 398.15 350.2
M 367.15 362.85
L 379.25 350.2
M 376.4 362.85
L 388.55 350.2
M 358.15 362.85
L 370.35 350.2
M 411.05 350.2
L 411.05 356.4 411.05 362.85
M 474.15 350.2
L 474.15 362.85
M 395.45 362.85
L 407.65 350.2
M 404.8 362.85
L 411.05 356.4
M 537.2 350.2
L 537.2 362.85
M 600.35 350.2
L 600.35 362.85
M 160 350.2
L 160 362.85
M 222.2 350.2
L 222.2 362.85
M 285.35 350.2
L 285.35 362.85
M 600.2 808.2
L 600.2 820.85 663.35 820.85 663.35 808.2 600.2 808.2 537.05 808.2 537.05 820.85 600.2 820.85
M 537.05 808.2
L 474 808.2 474 820.85 537.05 820.85
M 474 808.2
L 410.95 808.2 410.95 814.4 410.95 820.85 474 820.85
M 222.05 808.2
L 285.2 808.2 348.75 808.2 352.2 808.2 360.85 808.2 370.2 808.2 379.15 808.2 388.4 808.2 398 808.2 407.55 808.2 410.95 808.2
M 410.95 820.85
L 404.65 820.85 395.35 820.85 385.8 820.85 376.25 820.85 367 820.85 358 820.85 348.75 820.85 285.2 820.85 222.05 820.85 159.85 820.85 95.6 820.85 95.6 808.2 159.85 808.2 222.05 808.2 222.05 820.85
M 367 820.85
L 379.15 808.2
M 376.25 820.85
L 388.4 808.2
M 385.8 820.85
L 398 808.2
M 348.75 808.2
L 348.75 811.85 352.2 808.2
M 348.75 811.85
L 348.75 820.85 360.85 808.2
M 358 820.85
L 370.2 808.2
M 395.35 820.85
L 407.55 808.2
M 404.65 820.85
L 410.95 814.4
M 285.2 808.2
L 285.2 820.85
M 159.85 808.2
L 159.85 820.85"/>
</g>
</g>
</g>

<g id="Layer_4"/>
</svg>
