
<svg xmlns="http://www.w3.org/2000/svg" version="1.1" xmlns:xlink="http://www.w3.org/1999/xlink" preserveAspectRatio="none" x="0px" y="0px" width="2280px" height="1140px" viewBox="0 0 2280 1140">
<defs/>

<g id="Layer_1">
<g>
<g>
<path stroke="#FF0000" stroke-width="0.75" stroke-linejoin="miter" stroke-linecap="butt" stroke-miterlimit="10" fill="none" d="
M 653 355.8
L 658.75 356.45
Q 659.15 356.45 659.45 356.45 660.95 356.65 662.35 356.8
L 667.4 344.25 676.45 347.35 673.2 360.35 681.45 364.8 690.95 355.2 698.2 361.4 690.15 372.25 696.05 379.55 708.45 374.35 712.8 382.8 701.2 389.65 703.85 398.65 717.45 398.6 718.05 408.2 704.85 410.15 703.8 419.45 716.35 424.45 713.35 433.55 700.35 430.35 697.25 435.95 697.2 436
Q 696.45 437.25 695.8 438.55
L 705.4 448 699.2 455.25 688.35 447.2 681.05 453.2 686.35 465.6 677.8 469.85 670.95 458.25 661.95 461 662 474.55 652.45 475.2 650.45 461.95 641.2 460.95 636.15 473.4 627.05 470.4 630.25 457.4 622.15 452.85 612.6 462.45 605.35 456.25 613.4 445.45 607.45 438.2 595.05 443.4 590.75 434.95 602.35 428 599.65 419.05 586.05 419.05 585.4 409.55 598.65 407.6 599.75 398.25 587.2 393.2 590.2 384.15 603.25 387.4 607.75 379.2 598.15 369.65 604.35 362.45 615.15 370.55 622.45 364.55 617.2 352.15 625.75 347.8 632.6 359.4 641.55 356.75 641.55 343.2 651.05 342.55 653 355.8 Z
M 660.05 408.85
Q 660.05 412.25 657.55 414.65 655.25 417.05 651.8 417.05 648.4 417.05 646.15 414.65 643.6 412.25 643.6 408.85 643.6 405.55 646.15 403.15 648.4 400.75 651.8 400.75 655.25 400.75 657.55 403.15 660.05 405.55 660.05 408.85 Z
M 353.8 358.85
L 359.55 359.55
Q 359.95 359.55 360.25 359.55 361.75 359.75 363.15 359.85
L 368.2 347.35 377.25 350.4 374 363.4 382.25 367.85 391.75 358.25 399 364.45 390.95 375.35 396.85 382.6 409.25 377.4 413.6 385.85 402 392.75 404.65 401.75 418.25 401.65 418.85 411.25 405.65 413.2 404.6 422.55 417.15 427.55 414.15 436.6 401.15 433.4 398.05 439 398 439.05
Q 397.25 440.35 396.6 441.6
L 406.2 451.05 400 458.35 389.15 450.25 381.85 456.25 387.15 468.65 378.6 472.95 371.75 461.35 362.75 464.05 362.8 477.6 353.25 478.25 351.25 465 342 464 336.95 476.45 327.85 473.45 331.05 460.45 322.95 455.95 313.4 465.55 306.15 459.35 314.2 448.55 308.25 441.25 295.85 446.45 291.55 438 303.15 431.05 300.45 422.15 286.85 422.15 286.2 412.6 299.45 410.65 300.55 401.35 288 396.25 291 387.2 304.05 390.45 308.55 382.25 298.95 372.75 305.15 365.55 315.95 373.6 323.25 367.6 318 355.2 326.55 350.85 333.4 362.45 342.35 359.8 342.35 346.25 351.85 345.6 353.8 358.85 Z
M 360.85 411.95
Q 360.85 415.35 358.35 417.75 356.05 420.15 352.6 420.15 349.2 420.15 346.95 417.75 344.4 415.35 344.4 411.95 344.4 408.6 346.95 406.2 349.2 403.8 352.6 403.8 356.05 403.8 358.35 406.2 360.85 408.6 360.85 411.95 Z"/>
</g>
</g>
</g>

<g id="Layer_2">
<g>
<g>
<path stroke="#FF0000" stroke-width="0.75" stroke-linejoin="miter" stroke-linecap="butt" stroke-miterlimit="10" fill="none" d="
M 509.4 358.55
L 515.15 359.2
Q 515.55 359.2 515.85 359.2 517.35 359.4 518.75 359.55
L 523.8 347 532.85 350.05 529.6 363.05 537.85 367.55 547.35 357.95 554.6 364.15 546.55 375 552.45 382.25 564.85 377.05 569.2 385.55 557.6 392.4 560.25 401.4 573.85 401.35 574.45 410.95 561.25 412.85 560.2 422.2 572.75 427.2 569.75 436.25 556.75 433.05 553.6 438.75
Q 552.85 440 552.2 441.25
L 561.8 450.75 555.6 458 544.75 449.95 537.45 455.95 542.75 468.35 534.2 472.6 527.35 461 518.35 463.75 518.4 477.25 508.85 477.95 506.85 464.65 497.6 463.65 492.55 476.15 483.45 473.15 486.65 460.15 478.55 455.6 469 465.2 461.75 459 469.8 448.2 463.85 440.95 451.45 446.15 447.15 437.65 458.75 430.75 456.05 421.8 442.45 421.8 441.8 412.25 455.05 410.35 456.15 401 443.6 395.95 446.6 386.85 459.65 390.15 464.15 381.95 454.55 372.4 460.75 365.2 471.55 373.25 478.85 367.25 473.6 354.85 482.15 350.55 489 362.15 497.95 359.45 497.95 345.95 507.45 345.25 509.4 358.55 Z"/>
</g>
</g>
</g>

<g id="Layer_1">
<g>
<g>
<g>
<path fill="#0000FF" stroke="none" d="
M 142.95 155.05
Q 143.95 155.05 145.45 155.4
L 146.35 155.6 148.15 156.2 149.25 153.05
Q 148.15 152.6 147.55 152.45
L 146.55 152.2
Q 144.85 151.8 143 151.8 141.55 151.8 139.85 152.15 136.8 152.75 134.6 155.15 133.75 156.2 133.2 157.2 131.65 160.25 131.65 164.6
L 131.75 166.15
Q 131.8 167.65 132.35 169.75 133.05 172.05 134.6 173.8 136.55 175.95 139.4 176.65 141.15 177.05 142.8 177.05 144.75 177.05 146.35 176.65 147.85 176.35 148.95 175.8
L 148.95 172.55 146.95 173.2
Q 144.85 173.8 142.65 173.8 141.6 173.8 141.15 173.65 138.8 173.35 137.35 171.4 136.75 170.75 136.25 169.55 135.85 168.45 135.65 167.15 135.55 166.25 135.55 164.55
L 135.6 162.55
Q 136.15 157.25 139.6 155.75 141.15 155.05 142.95 155.05
M 117.75 154.95
Q 119.65 155.25 120.6 156.25 121.55 157.35 121.75 158.95
L 121.85 162 117.75 162.15
Q 112.35 162.35 109.55 163.85 107.8 164.65 106.85 166.35 105.85 168 105.95 169.85 105.95 173.35 108 175.2
L 108.85 175.85
Q 109.8 176.45 111.35 176.8 112.4 177.05 113.65 177.05
L 114.6 177
Q 115.6 177 116.4 176.8 117.35 176.6 118.2 176.2 118.85 175.95 119.25 175.6
L 120.6 174.55 121.8 173.15 122 173.15 122.75 176.6 125.45 176.6 125.45 160
Q 125.45 157.75 124.85 156.15 124.4 154.75 123.35 153.8 121.8 152.4 119.25 152 117.65 151.85 116.85 151.85 114.85 151.85 112.6 152.4
L 111.95 152.6
Q 110.2 153.15 108.65 153.95
L 109.8 156.75
Q 112.35 155.6 113.95 155.25 115 154.95 116.65 154.95
L 117.75 154.95
M 110.75 172.65
Q 110.15 172.05 109.95 171.15 109.8 170.75 109.8 169.95
L 109.85 169
Q 110.05 167.15 111.75 166.15 113.15 165.25 115.95 164.95 117.25 164.8 118.05 164.8
L 121.75 164.6 121.75 166.85
Q 121.75 168.15 121.55 169 121.15 170.8 119.8 172.15
L 119.2 172.6
Q 117.4 174 114.4 174
L 113.8 174
Q 111.95 173.8 111 172.95
L 110.75 172.65
M 79.85 142.05
L 79.85 176.6 82.55 176.6 83.25 173.45 83.55 173.45
Q 84.85 175.25 86.85 176.2
L 88.4 176.75
Q 89.95 177.05 91.2 177.05
L 92.4 177
Q 96.25 176.65 98.6 173.75 99.4 172.75 100 171.55 101.35 168.55 101.35 164.4 101.35 161.2 100.55 158.8 99.85 156.6 98.65 155.15 96.95 153 94.4 152.25 92.8 151.85 91.2 151.85
L 89.65 151.95
Q 85.8 152.35 83.55 155.45
L 83.4 155.45 83.55 142.05 79.85 142.05
M 92.4 155.15
Q 94.55 155.45 95.8 157.25
L 96 157.55
Q 97.05 159.2 97.35 161.85 97.45 162.75 97.45 164.35 97.45 166 97.35 166.85 97 169.75 95.8 171.45 94.75 173.15 92.85 173.65 91.85 173.95 90.75 173.95
L 90 173.95
Q 88.6 173.8 88 173.6 86.25 173.05 85.25 171.75 84 170.15 83.65 166.95
L 83.6 163.2
Q 83.75 160.4 84.35 158.85 84.6 157.95 85.2 157.15 85.8 156.35 86.65 155.85 87.55 155.35 88.65 155.15 89.65 154.95 90.65 154.95 91.55 154.95 92.4 155.15
M 163.6 162.6
L 173.45 152.25 169.15 152.25 158.35 164.15 158.15 164.15 158.35 142.05 154.65 142.05 154.65 176.6 158.35 176.6 158.35 167.45 161.15 165.05 169.75 176.6 174.2 176.6 163.6 162.6
M 148.8 469.6
Q 149.95 469.4 150.85 469.45
L 151.95 469.45 153.4 469.8
Q 154.4 470.15 155.15 470.95 155.55 471.35 155.95 472.15 156.25 472.85 156.35 473.75 156.45 474.25 156.45 475.35
L 156.45 491.05 160.2 491.05 160.05 473.15
Q 159.95 472.15 159.55 470.85 159.05 469.55 157.95 468.4 155.8 466.35 151.35 466.35
L 150.35 466.35
Q 148.2 466.55 146.8 467.25
L 146.55 467.4
Q 144.75 468.25 143.6 470.05
L 143.4 470.05 142.8 466.75 139.8 466.75 139.8 491.05 143.55 491.05 143.55 478.35
Q 143.55 473.6 145.25 471.55 145.8 470.95 146.75 470.35 147.45 469.95 148.8 469.6
M 87.25 456.25
Q 86.25 456.25 85.25 456.45 80.95 457.25 79.8 461.85 79.45 463.25 79.45 465.25
L 79.45 466.6 75.15 467.95 75.15 469.6 79.45 469.6 79.45 491.05 83.15 491.05 83.15 469.6 89.35 469.6 89.35 466.75 83.15 466.75 83.15 465.2
Q 83.15 462.15 84.15 460.75 84.8 459.8 86 459.45
L 87.2 459.35 89.45 459.6 90.85 460 91.8 457.05
Q 89.2 456.25 87.25 456.25
M 107.25 470
L 107.8 466.6 104.85 466.35
Q 102.65 466.25 100.65 467.6 99.45 468.45 98.8 469.25 98 470.2 97.4 471.25
L 97.25 471.25 96.8 466.75 93.8 466.75 93.8 491.05 97.45 491.05 97.55 476.8
Q 97.85 474 99.6 472.05
L 99.95 471.75
Q 101.8 469.65 104.6 469.65
L 105 469.65 107.25 470
M 119.65 466.55
Q 116.35 467.05 114 469.6 113.35 470.25 112.75 471.35 111 474.4 111 478.95 111 480.4 111.2 481.85 111.45 483.8 112.4 485.6
L 112.65 486.15
Q 113.85 488.55 116.25 490 117.25 490.65 118.65 491.05 120.15 491.55 122.05 491.55
L 124.6 491.35
Q 128.05 490.8 130.35 488.2 131.25 487.15 131.6 486.55 133.35 483.55 133.35 478.95
L 133.35 478.35
Q 133.35 476.65 132.85 474.55 132.05 471.55 130.35 469.75 127.35 466.35 122.25 466.35
L 119.65 466.55
M 114.95 476.45
L 115.45 474.15
Q 115.8 472.95 116.65 471.8 118.4 469.45 122.15 469.45 123.35 469.45 123.85 469.6 126.2 470 127.65 471.85 129.55 474.2 129.55 478.95 129.55 483.65 127.65 486 126.4 487.75 124.4 488.2 122.95 488.45 122.2 488.45 118.55 488.45 116.65 486 116 485.2 115.6 484 115.2 482.95 115 481.6
L 114.8 478.95 114.95 476.45
M 169.6 461.15
L 168 466.35 164.55 467.85 164.55 469.6 168 469.6 168 484.05
Q 168 489.85 172.25 491.15 173.6 491.55 175.05 491.55
L 175.2 491.55 178.55 491.05 178.95 490.85 178.95 488.05 178.85 488.05 177.45 488.35 177.4 488.4 174.85 488.45
Q 173.55 488.25 172.75 487.35 172 486.55 171.8 485.25
L 171.65 483.95 171.65 469.6 178.75 469.6 178.75 466.75 171.65 466.75 171.65 461.15 169.6 461.15
M 356.15 211.85
L 352.45 211.85 352.45 236.2 356.15 236.2 356.15 211.85
M 347.85 211.75
Q 347.25 211.55 346.55 211.55
L 345 211.45
Q 342.65 211.4 340.8 212.75 339.75 213.4 338.95 214.4 338.15 215.35 337.55 216.4
L 337.35 216.4 336.95 211.85 333.85 211.85 333.85 236.2 337.6 236.2 337.65 221.95
Q 337.85 219.35 339.65 217.2
L 340 216.8
Q 341.85 214.8 344.75 214.8
L 345.15 214.8 347.4 215.15 347.85 211.75
M 356.45 205.25
L 356.45 204.85
Q 356.4 204 355.85 203.45 355.15 202.75 354.35 202.85
L 354.15 202.85
Q 353.4 202.85 352.75 203.4 352.45 203.85 352.4 204 352.2 204.2 352.2 204.6
L 352.15 205.75
Q 352.25 206.65 352.75 207.15 353.25 207.55 353.55 207.6 353.8 207.75 354.35 207.75 355.2 207.75 355.85 207.15 356.45 206.55 356.45 205.25
M 372 211.45
Q 367.55 211.45 365.2 213.6 363.55 215.15 363.15 217.25 362.8 218.6 362.8 219.8
L 362.85 220.35
Q 363 222.35 364 224
L 364.25 224.4
Q 365.45 226 367.05 226.65
L 365.55 227.8 364.85 228.6
Q 364.15 229.65 364.15 230.95
L 364.15 231.15
Q 364.15 232.05 364.75 233
L 364.85 233.15
Q 365.6 234 366.35 234.35 365.45 234.55 364.55 234.95 363.2 235.45 362.35 236.55 360.95 238.15 360.95 240.35
L 360.95 240.8
Q 361.05 243.65 363.45 245.4 364.55 246 365.55 246.4 367.85 247.15 370.85 247.15 372.65 247.15 374.35 246.95 378 246.55 380.35 245
L 380.45 244.95
Q 383.6 242.8 383.6 238.85
L 383.45 237.45
Q 383.15 235.4 381.45 234 380.4 233.35 379.8 233.15 378.95 232.75 377.65 232.55
L 370.35 232.35
Q 368.8 232.2 368.25 231.85 367.75 231.6 367.55 231
L 367.4 230.4
Q 367.4 229.65 367.85 228.95 368.2 228.4 368.75 227.95
L 369.8 227.25 370.45 227.4 372.65 227.4
Q 374.05 227.4 375.35 227 377.25 226.45 378.55 225.35 380 223.95 380.6 222.2 381 221 381 219.6
L 380.95 218.45 380.35 216.4
Q 380 215.6 379.4 214.75
L 383.85 214.2 383.85 211.85 375.45 211.85 373.85 211.55 372 211.45
M 371.85 214.15
Q 372.85 214.15 373.85 214.35 376.4 215.05 377.05 217.45 377.35 218.35 377.35 219.6 377.35 224.85 371.95 224.85 369.4 224.85 367.95 223.55 366.45 222.25 366.45 219.65
L 366.45 218.85
Q 366.65 216.75 367.85 215.55 368.75 214.6 370.25 214.25
L 371.85 214.15
M 369.8 235.65
L 374.2 235.65
Q 377.6 235.65 378.8 236.45 379.2 236.6 379.55 237.2 380 237.95 380 239.2 380.05 240.6 379 241.95 378.55 242.55 377.8 242.95 376.05 244 373.35 244.2 371.75 244.35 370.95 244.35 369 244.35 367.6 243.95 366.85 243.75 366.15 243.35
L 365.95 243.2
Q 365.05 242.6 364.75 241.65 364.45 241.15 364.45 240.35
L 364.6 239.05
Q 364.8 237.85 365.85 236.85
L 366.65 236.35
Q 367.95 235.65 369.8 235.65
M 408.6 216.05
Q 408.05 214.6 407 213.6 406 212.75 405.2 212.4 403.15 211.45 400.25 211.45
L 398.8 211.6
Q 397.25 211.65 395.75 212.45
L 395.2 212.8
Q 393.6 213.75 392.6 215.25
L 392.4 215.25
Q 392.55 214.4 392.55 212.15
L 392.55 201.65 388.85 201.65 388.85 236.2 392.55 236.2 392.55 223.45
Q 392.55 220.55 393.25 218.55 393.65 217.4 394.35 216.65 395.05 215.85 395.8 215.45 396.8 214.95 397.85 214.75 399 214.55 399.95 214.6
L 401 214.6 402.45 214.95
Q 403.45 215.25 404.2 216.05 404.75 216.6 405 217.25 405.35 218 405.4 218.85 405.55 219.4 405.55 220.45
L 405.55 236.2 409.2 236.2 409.15 218.4 408.6 216.05
M 427.8 214.75
L 427.8 211.85 420.75 211.85 420.75 206.25 418.6 206.25 417.05 211.45 413.6 213 413.6 214.75 417.05 214.75 417.05 229.2
Q 417.05 235 421.25 236.25 422.65 236.65 424.15 236.65
L 424.25 236.65
Q 425.15 236.65 426.2 236.45
L 427.55 236.2 428 236 428 233.2 427.95 233.2 427.05 233.4 426.55 233.45 426.4 233.45
Q 425.85 233.6 424.65 233.6
L 423.95 233.6
Q 422.6 233.4 421.8 232.45 421.05 231.65 420.85 230.4
L 420.75 229.05 420.75 214.75 427.8 214.75
M 622.85 201.2
L 619.2 201.2 619.2 235.75 622.85 235.75 622.85 201.2
M 649.95 221.95
Q 649.95 220.45 649.6 218.65 649.05 216 647.25 214 645.75 212.2 643.2 211.4 641.25 210.95 640 211
L 639.15 211
Q 634.85 211.2 632.25 214.45 630.4 216.65 629.65 219.95 629.35 222.05 629.35 223.8
L 629.35 224.45
Q 629.45 226.75 629.85 228.15 630.6 231 632.45 232.95 634.55 235.05 637.4 235.8 639.15 236.2 641 236.2
L 642.05 236.2 645.2 235.85 646.85 235.4
Q 647.85 235.15 648.85 234.6
L 648.85 231.35 648.4 231.55
Q 644.75 233 641.15 233 639.85 233 638.85 232.75 636.75 232.35 635.35 230.75 634.8 230.2 634.2 229.15 633.25 227.35 633.15 224.25
L 649.95 224.25 649.95 221.95
M 633.85 218.4
Q 634.45 216.85 635.35 216 636.25 214.85 637.85 214.35 638.75 214.05 640 214.05 640.95 214.05 641.4 214.2 643.35 214.55 644.4 215.95 646 217.75 646 221.25
L 633.25 221.25 633.35 220.6
Q 633.4 219.55 633.85 218.4
M 668.75 204.65
L 669.65 201.75
Q 667.05 200.95 665.15 200.95 664.15 200.95 663.15 201.15 658.8 201.95 657.65 206.55 657.25 208.35 657.35 209.95
L 657.35 211.25 652.95 212.6 652.95 214.25 657.35 214.25 657.35 235.75 661 235.75 661 214.25 667.2 214.25 667.2 211.4 661 211.4 661 209.85
Q 661 206.8 662 205.4 662.65 204.45 663.85 204.15
L 665.05 204 667.35 204.25 668.75 204.65
M 675.6 205.8
L 673.45 205.8 671.85 211 668.4 212.55 668.4 214.25 671.85 214.25 671.85 228.75
Q 671.85 234.45 676.15 235.8 677.55 236.2 678.95 236.2
L 679.05 236.2 682.4 235.75 682.8 235.55 682.8 232.75 681.95 232.95 681.4 233 681.25 233.05 678.75 233.15
Q 677.55 232.95 676.6 232 676 231.35 675.65 229.95
L 675.6 214.25 682.65 214.25 682.65 211.4 675.6 211.4 675.6 205.8
M 908.2 541.65
L 905.6 541.85
Q 902.25 542.4 899.95 545 899 546.05 898.65 546.75 896.95 549.8 896.95 554.25 896.95 555.95 897.2 557.2 897.45 559.15 898.35 560.95
L 898.6 561.45
Q 900 564 902.25 565.35 903.35 566 904.6 566.4 906.2 566.85 908.05 566.85
L 910.55 566.65
Q 913.95 566.15 916.35 563.55 917.05 562.65 917.55 561.85 919.35 558.85 919.35 554.25
L 919.35 553.65
Q 919.2 551.35 918.8 549.95 918.2 547.25 916.35 545.05 913.25 541.65 908.2 541.65
M 913.6 547.2
Q 915.45 549.55 915.45 554.25 915.45 559 913.6 561.35 912.35 563 910.4 563.55 909.4 563.8 908.15 563.8 904.45 563.8 902.65 561.35 901.95 560.35 901.55 559.35 901.15 558.25 900.95 556.95 900.75 555.4 900.8 554.25 900.75 553.15 900.95 551.8 901 550.75 901.4 549.45 901.75 548.25 902.6 547.15 904.55 544.8 908.05 544.8 909.25 544.8 909.85 544.95 912.15 545.35 913.6 547.2
M 935.4 541.75
Q 933.95 541.95 932.8 542.55 931.75 543.05 930.95 543.8 930.15 544.45 929.45 545.4
L 929.25 545.4 928.8 542.05 925.8 542.05 925.8 577.35 929.45 577.35 929.4 565.85
Q 929.4 564.55 929.2 563.35
L 929.45 563.35
Q 930.8 565.05 932.75 566
L 934.25 566.55
Q 935.45 566.85 937.15 566.85 937.95 566.85 938.35 566.8 942.15 566.6 944.55 563.55 945.4 562.45 945.85 561.4 947.2 558.65 947.2 554.25
L 947.15 552.15
Q 946.75 547.65 944.6 544.95 942.75 542.75 940.35 542.05 938.75 541.65 937.15 541.65
L 935.4 541.75
M 929.6 556.75
L 929.45 553.4
Q 929.45 548.95 931.2 546.85 932.8 544.8 936.6 544.8
L 937.4 544.8
Q 939.95 545 941.6 547.2 942.35 548.35 942.6 549.15 943.4 551.25 943.4 554.2 943.4 556.65 942.8 558.65 942.35 560.15 941.6 561.25 940.55 562.75 939.05 563.35 938.05 563.8 936.65 563.8
L 935.95 563.8
Q 934.8 563.75 933.85 563.4 932.25 563 931.2 561.6 929.95 560 929.6 556.75
M 886.2 542.05
L 886.2 536.45 884.05 536.45 882.55 541.65 879 543.2 879 544.95 882.55 544.95 882.55 559.45
Q 882.55 565.2 886.75 566.45 887.85 566.85 889.6 566.85
L 889.65 566.85 893 566.4 893.45 566.2 893.45 563.4 893.4 563.4 892.55 563.6 892 563.65 891.85 563.75 890.15 563.85 889.35 563.8
Q 888.05 563.6 887.25 562.65 886.55 561.8 886.35 560.6 886.2 560.15 886.2 559.25
L 886.2 544.95 893.25 544.95 893.25 542.05 886.2 542.05 Z"/>
</g>
</g>

<g>
<path stroke="#FF0000" stroke-width="0.75" stroke-linejoin="miter" stroke-linecap="round" stroke-miterlimit="11" fill="none" d="
M 2162.75 246.95
L 2139.05 246.95 2139.05 235.6 2115.75 235.6 2115.75 246.95 2093.75 246.95 2093.75 235.6 2070.4 235.6 2070.4 246.95 2048.4 246.95 2048.4 235.6 2025 235.6 2025 246.95 2003 246.95 2003 235.6 1979.65 235.6 1979.65 246.95 1957.65 246.95 1957.65 235.6 1934.35 235.6 1934.35 246.95 1912.35 246.95 1912.35 235.6 1888.95 235.6 1888.95 246.95 1862.45 246.95
M 2025 286.35
L 2025 275
M 2048.4 275
L 2048.4 286.35
M 2070.4 286.35
L 2070.4 275
M 2093.75 275
L 2093.75 286.35
M 2115.75 286.35
L 2115.75 275
M 2139.05 275
L 2139.05 286.35
M 1888.95 286.35
L 1888.95 275
M 1912.35 275
L 1912.35 286.35
M 1934.35 286.35
L 1934.35 275
M 1957.65 275
L 1957.65 286.35
M 1979.65 286.35
L 1979.65 275
M 2003 275
L 2003 286.35
M 2140.45 497.15
L 2140.45 508.45
M 1890.35 508.45
L 1890.35 497.15
M 1913.75 497.15
L 1913.75 508.45
M 1935.75 508.45
L 1935.75 497.15
M 1959.05 497.15
L 1959.05 508.45
M 1981.05 508.45
L 1981.05 497.15
M 2004.4 497.15
L 2004.4 508.45
M 2026.4 508.45
L 2026.4 497.15
M 2049.8 497.15
L 2049.8 508.45
M 2071.8 508.45
L 2071.8 497.15
M 2095.15 497.15
L 2095.15 508.45
M 2117.15 508.45
L 2117.15 497.15
M 855.55 596.75
L 877.6 596.75 877.6 608.05 900.95 608.05 900.95 596.75 922.95 596.75 922.95 608.05 946.25 608.05 946.25 596.75 968.25 596.75 968.25 608.05 991.6 608.05 991.6 596.75 1014.35 596.75 1014.35 574.05 1025.65 574.05 1025.65 550.75 1014.35 550.75 1014.35 528.75 1025.65 528.75 1025.65 505.4 1014.35 505.4 1014.35 483.4 1025.65 483.4 1025.65 460 1014.35 460 1014.35 438 1025.65 438 1025.65 414.65 1014.35 414.65 1014.35 392 991.6 392 991.6 380.65 968.25 380.65 968.25 392 946.25 392 946.25 380.65 922.95 380.65 922.95 392 900.95 392 900.95 380.65 877.6 380.65 877.6 392 855.55 392 855.55 380.65 832.2 380.65 832.2 392 809.55 392 809.55 414.65 798.2 414.65 798.2 438 809.55 438 809.55 460 798.2 460 798.2 483.4 809.55 483.4 809.55 505.4 798.2 505.4 798.2 528.75 809.55 528.75 809.55 550.75 798.2 550.75 798.2 574.05 809.55 574.05 809.55 596.75 832.2 596.75 832.2 608.05 855.55 608.05 855.55 596.75 Z
M 703.125 314.75
L 748.45 314.75 748.45 288.35 759.8 288.35 759.8 264.95 748.45 264.95 748.45 242.95 759.8 242.95 759.8 219.6 748.45 219.6 748.45 197.6 759.8 197.6 759.8 174.25 748.45 174.25 748.45 152.25 759.8 152.25 759.8 128.85 748.45 128.85 748.45 106.85 759.8 106.85 759.8 83.55 748.45 83.55 748.45 61.55 759.8 61.55 759.8 38.2 748.45 38.2 748.45 11.75 725.15 11.75 725.15 23.05 703.15 23.05 703.15 11.75 679.75 11.75 679.75 23.05 657.75 23.05 657.75 11.75 634.4 11.75 634.4 23.05 612.4 23.05 612.4 11.75 589.05 11.75 589.05 23.05 567.05 23.05 567.05 11.75 543.65 11.75 543.65 38.2 532.35 38.2 532.35 61.55 543.65 61.55 543.65 83.55 532.35 83.55 532.35 106.85 543.65 106.85 543.65 128.85 532.35 128.85 532.35 152.25 543.65 152.25 543.65 174.25 532.35 174.25 532.35 197.6 543.65 197.6 543.65 219.6 532.35 219.6 532.35 242.95 543.65 242.95 543.65 264.95 532.35 264.95 532.35 288.35 543.65 288.35 543.65 314.75 612.375 314.75 657.725 314.75 703.125 314.75 Z
M 870.35 475.8
L 953.75 475.8
M 437.325 314.8
L 482.65 314.8 482.65 288.35 494 288.35 494 265 482.65 265 482.65 243 494 243 494 219.6 482.65 219.6 482.65 197.6 494 197.6 494 174.25 482.65 174.25 482.65 152.25 494 152.25 494 128.95 482.65 128.95 482.65 106.95 494 106.95 494 83.6 482.65 83.6 482.65 61.55 494 61.55 494 38.2 482.65 38.2 482.65 11.75 459.35 11.75 459.35 23.05 437.35 23.05 437.35 11.75 413.95 11.75 413.95 23.05 391.95 23.05 391.95 11.75 368.6 11.75 368.6 23.05 346.6 23.05 346.6 11.75 323.25 11.75 323.25 23.05 301.25 23.05 301.25 11.75 277.85 11.75 277.85 38.2 266.55 38.2 266.55 61.55 277.85 61.55 277.85 83.6 266.55 83.6 266.55 106.95 277.85 106.95 277.85 128.95 266.55 128.95 266.55 152.25 277.85 152.25 277.85 174.25 266.55 174.25 266.55 197.6 277.85 197.6 277.85 219.6 266.55 219.6 266.55 243 277.85 243 277.85 265 266.55 265 266.55 288.35 277.85 288.35 277.85 314.8 346.575 314.8 391.925 314.8 437.325 314.8 Z
M 184.025 311.05
L 240.75 311.05 240.75 283.95 229.4 283.95 229.4 261.95 240.75 261.95 240.75 238.6 229.4 238.6 229.4 216.6 240.75 216.6 240.75 193.2 229.4 193.2 229.4 171.2 240.75 171.2 240.75 147.85 229.4 147.85 229.4 125.85 240.75 125.85 240.75 102.55 229.4 102.55 229.4 80.55 240.75 80.55 240.75 57.15 229.4 57.15 229.4 35.15 240.75 35.15 240.75 8 206.05 8 206.05 19.35 184.05 19.35 184.05 8 160.75 8 160.75 19.35 138.65 19.35 138.65 8 115.35 8 115.35 19.35 93.35 19.35 93.35 8 70 8 70 19.35 48 19.35 48 8 13.35 8 13.35 35.15 24.65 35.15 24.65 57.15 13.35 57.15 13.35 80.55 24.65 80.55 24.65 102.55 13.35 102.55 13.35 125.85 24.65 125.85 24.65 147.85 13.35 147.85 13.35 171.2 24.65 171.2 24.65 193.2 13.35 193.2 13.35 216.6 24.65 216.6 24.65 238.6 13.35 238.6 13.35 261.95 24.65 261.95 24.65 283.95 13.35 283.95 13.35 311.05 93.325 311.05 138.625 311.05 184.025 311.05 Z
M 184.025 625.4
L 227.975 625.4 240.75 625.4 240.75 598.35 229.4 598.35 229.4 576.25 240.75 576.25 240.75 552.95 229.4 552.95 229.4 530.95 240.75 530.95 240.75 507.6 229.4 507.6 229.4 485.6 240.75 485.6 240.75 462.25 229.4 462.25 229.4 440.25 240.75 440.25 240.75 416.85 229.4 416.85 229.4 394.85 240.75 394.85 240.75 371.55 229.4 371.55 229.4 349.55 240.75 349.55 240.75 322.4 206.05 322.4 206.05 333.75 184.05 333.75 184.05 322.4 160.75 322.4 160.75 333.75 138.65 333.75 138.65 322.4 115.35 322.4 115.35 333.75 93.35 333.75 93.35 322.4 70 322.4 70 333.75 48 333.75 48 322.4 13.35 322.4 13.35 349.55 24.65 349.55 24.65 371.55 13.35 371.55 13.35 394.85 24.65 394.85 24.65 416.85 13.35 416.85 13.35 440.25 24.65 440.25 24.65 462.25 13.35 462.25 13.35 485.6 24.65 485.6 24.65 507.6 13.35 507.6 13.35 530.95 24.65 530.95 24.65 552.95 13.35 552.95 13.35 576.25 24.65 576.25 24.65 598.35 13.35 598.35 13.35 625.4 93.325 625.4 138.625 625.4 184.025 625.4 Z"/>
</g>

<g>
<path stroke="#FF0000" stroke-width="0.75" stroke-linejoin="miter" stroke-linecap="butt" stroke-miterlimit="10" fill="none" d="
M 1862.45 246.95
L 1862.45 43.65 2162.75 43.65 2162.75 246.95
M 2048.4 275
L 2025 275
M 2048.4 286.35
L 2070.4 286.35
M 2093.75 275
L 2070.4 275
M 2093.75 286.35
L 2115.75 286.35
M 2139.05 275
L 2115.75 275
M 2139.05 286.35
L 2162.75 286.35 2162.75 478.25 1862.45 478.25 1862.45 286.35 1888.95 286.35
M 1912.35 275
L 1888.95 275
M 1912.35 286.35
L 1934.35 286.35
M 1957.65 275
L 1934.35 275
M 1957.65 286.35
L 1979.65 286.35
M 2003 275
L 1979.65 275
M 2003 286.35
L 2025 286.35
M 2140.45 508.45
L 2164.15 508.45 2164.15 700.4 1863.85 700.4 1863.85 508.45 1890.35 508.45
M 1913.75 497.15
L 1890.35 497.15
M 1913.75 508.45
L 1935.75 508.45
M 1959.05 497.15
L 1935.75 497.15
M 1959.05 508.45
L 1981.05 508.45
M 2004.4 497.15
L 1981.05 497.15
M 2004.4 508.45
L 2026.4 508.45
M 2049.8 497.15
L 2026.4 497.15
M 2049.8 508.45
L 2071.8 508.45
M 2095.15 497.15
L 2071.8 497.15
M 2095.15 508.45
L 2117.15 508.45
M 2140.45 497.15
L 2117.15 497.15
M 1399.05 253.55
L 1385.35 253.55 1385.35 282.4 1307.95 282.4 1307.95 254.8 1294 254.8
M 1374.45 360.55
Q 1374.45 360.6 1374.45 360.65 1374.4 364 1371.95 366.35 1369.8 368.6 1366.55 368.75 1366.4 368.75 1366.2 368.75 1362.8 368.75 1360.55 366.35 1358.05 364 1358 360.65 1358 360.6 1358 360.55 1358 357.2 1360.55 354.8 1362.8 352.4 1366.2 352.4 1366.4 352.4 1366.55 352.4 1369.8 352.55 1371.95 354.8 1374.45 357.2 1374.45 360.55 Z
M 1355.8 443.2
Q 1355.8 443.25 1355.8 443.35 1355.75 446.65 1353.25 449 1351.15 451.25 1347.85 451.4 1347.75 451.4 1347.55 451.4 1344.15 451.4 1341.85 449 1339.4 446.65 1339.35 443.35 1339.35 443.25 1339.35 443.2 1339.35 439.85 1341.85 437.45 1344.15 435.05 1347.55 435.05 1347.75 435.05 1347.85 435.05 1351.15 435.2 1353.25 437.45 1355.8 439.85 1355.8 443.2 Z
M 1341.4 530.2
Q 1341.4 530.25 1341.4 530.35 1341.35 533.65 1338.85 536 1336.75 538.25 1333.45 538.4 1333.35 538.4 1333.15 538.4 1329.75 538.4 1327.45 536 1325 533.65 1324.95 530.35 1324.95 530.25 1324.95 530.2 1324.95 526.85 1327.45 524.45 1329.75 522.05 1333.15 522.05 1333.35 522.05 1333.45 522.05 1336.75 522.2 1338.85 524.45 1341.4 526.85 1341.4 530.2 Z
M 1325.25 619.85
Q 1325.25 619.95 1325.25 620 1325.2 623.35 1322.75 625.65 1320.6 627.95 1317.35 628.05 1317.2 628.05 1317 628.05 1313.6 628.05 1311.35 625.65 1308.85 623.35 1308.8 620 1308.8 619.95 1308.8 619.85 1308.8 616.55 1311.35 614.15 1313.6 611.75 1317 611.75 1317.2 611.75 1317.35 611.75 1320.6 611.85 1322.75 614.15 1325.25 616.55 1325.25 619.85 Z
M 1167.35 253.55
L 1153.6 253.55 1153.6 282.4 1076.2 282.4 1076.2 254.8 1062.25 254.8
M 935.6 253.55
L 921.85 253.55 921.85 282.4 844.45 282.4 844.45 254.8 830.55 254.8
M 653.95 125.25
Q 653.95 125.35 653.95 125.4 653.85 128.75 651.4 131.05 649.25 133.35 646 133.45 645.85 133.45 645.65 133.45 642.25 133.45 640 131.05 637.55 128.75 637.45 125.4 637.45 125.35 637.45 125.25 637.45 121.95 640 119.55 642.25 117.15 645.65 117.15 645.85 117.15 646 117.15 649.25 117.25 651.4 119.55 653.95 121.95 653.95 125.25 Z
M 953.75 475.8
L 953.75 513.65 870.35 513.65 870.35 475.8
M 388 125.25
Q 388 128.65 385.45 131.05 383.2 133.45 379.75 133.45 376.35 133.45 374.05 131.05 371.55 128.65 371.55 125.25 371.55 121.95 374.05 119.55 376.35 117.15 379.75 117.15 383.2 117.15 385.45 119.55 388 121.95 388 125.25 Z"/>
</g>

<g>
<path stroke="#0000FF" stroke-width="0.75" stroke-linejoin="miter" stroke-linecap="round" stroke-miterlimit="11" fill="none" d="
M 682.8 232.75
L 682.8 235.55 682.4 235.75 679.05 236.2 678.95 236.2
Q 677.55 236.2 676.15 235.8 671.85 234.45 671.85 228.75
L 671.85 214.25 668.4 214.25 668.4 212.55 671.85 211 673.45 205.8 675.6 205.8 675.6 211.4 682.65 211.4 682.65 214.25 675.6 214.25 675.65 229.95
Q 676 231.35 676.6 232 677.55 232.95 678.75 233.15
L 681.25 233.05 681.4 233 681.95 232.95 682.8 232.75 Z
M 667.2 211.4
L 667.2 214.25 661 214.25 661 235.75 657.35 235.75 657.35 214.25 652.95 214.25 652.95 212.6 657.35 211.25 657.35 209.95
Q 657.25 208.35 657.65 206.55 658.8 201.95 663.15 201.15 664.15 200.95 665.15 200.95 667.05 200.95 669.65 201.75
L 668.75 204.65 667.35 204.25 665.05 204 663.85 204.15
Q 662.65 204.45 662 205.4 661 206.8 661 209.85
L 661 211.4 667.2 211.4 Z
M 649.95 221.95
L 649.95 224.25 633.15 224.25
Q 633.25 227.35 634.2 229.15 634.8 230.2 635.35 230.75 636.75 232.35 638.85 232.75 639.85 233 641.15 233 644.75 233 648.4 231.55
L 648.85 231.35 648.85 234.6
Q 647.85 235.15 646.85 235.4
L 645.2 235.85 642.05 236.2 641 236.2
Q 639.15 236.2 637.4 235.8 634.55 235.05 632.45 232.95 630.6 231 629.85 228.15 629.45 226.75 629.35 224.45
L 629.35 223.8
Q 629.35 222.05 629.65 219.95 630.4 216.65 632.25 214.45 634.85 211.2 639.15 211
L 640 211
Q 641.25 210.95 643.2 211.4 645.75 212.2 647.25 214 649.05 216 649.6 218.65 649.95 220.45 649.95 221.95 Z
M 893.45 563.4
L 893.45 566.2 893 566.4 889.65 566.85 889.6 566.85
Q 887.85 566.85 886.75 566.45 882.55 565.2 882.55 559.45
L 882.55 544.95 879 544.95 879 543.2 882.55 541.65 884.05 536.45 886.2 536.45 886.2 542.05 893.25 542.05 893.25 544.95 886.2 544.95 886.2 559.25
Q 886.2 560.15 886.35 560.6 886.55 561.8 887.25 562.65 888.05 563.6 889.35 563.8
L 890.15 563.85 891.85 563.75 892 563.65 892.55 563.6 893.4 563.4 893.45 563.4 Z
M 929.45 563.35
L 929.2 563.35
Q 929.4 564.55 929.4 565.85
L 929.45 577.35 925.8 577.35 925.8 542.05 928.8 542.05 929.25 545.4 929.45 545.4
Q 930.15 544.45 930.95 543.8 931.75 543.05 932.8 542.55 933.95 541.95 935.4 541.75
L 937.15 541.65
Q 938.75 541.65 940.35 542.05 942.75 542.75 944.6 544.95 946.75 547.65 947.15 552.15
L 947.2 554.25
Q 947.2 558.65 945.85 561.4 945.4 562.45 944.55 563.55 942.15 566.6 938.35 566.8 937.95 566.85 937.15 566.85 935.45 566.85 934.25 566.55
L 932.75 566
Q 930.8 565.05 929.45 563.35 Z
M 916.35 563.55
Q 917.05 562.65 917.55 561.85 919.35 558.85 919.35 554.25
L 919.35 553.65
Q 919.2 551.35 918.8 549.95 918.2 547.25 916.35 545.05 913.25 541.65 908.2 541.65
L 905.6 541.85
Q 902.25 542.4 899.95 545 899 546.05 898.65 546.75 896.95 549.8 896.95 554.25 896.95 555.95 897.2 557.2 897.45 559.15 898.35 560.95
L 898.6 561.45
Q 900 564 902.25 565.35 903.35 566 904.6 566.4 906.2 566.85 908.05 566.85
L 910.55 566.65
Q 913.95 566.15 916.35 563.55 Z
M 929.45 553.4
L 929.6 556.75
Q 929.95 560 931.2 561.6 932.25 563 933.85 563.4 934.8 563.75 935.95 563.8
L 936.65 563.8
Q 938.05 563.8 939.05 563.35 940.55 562.75 941.6 561.25 942.35 560.15 942.8 558.65 943.4 556.65 943.4 554.2 943.4 551.25 942.6 549.15 942.35 548.35 941.6 547.2 939.95 545 937.4 544.8
L 936.6 544.8
Q 932.8 544.8 931.2 546.85 929.45 548.95 929.45 553.4 Z
M 900.8 554.25
Q 900.75 555.4 900.95 556.95 901.15 558.25 901.55 559.35 901.95 560.35 902.65 561.35 904.45 563.8 908.15 563.8 909.4 563.8 910.4 563.55 912.35 563 913.6 561.35 915.45 559 915.45 554.25 915.45 549.55 913.6 547.2 912.15 545.35 909.85 544.95 909.25 544.8 908.05 544.8 904.55 544.8 902.6 547.15 901.75 548.25 901.4 549.45 901 550.75 900.95 551.8 900.75 553.15 900.8 554.25 Z
M 428 233.2
L 428 236 427.55 236.2 426.2 236.45
Q 425.15 236.65 424.25 236.65
L 424.15 236.65
Q 422.65 236.65 421.25 236.25 417.05 235 417.05 229.2
L 417.05 214.75 413.6 214.75 413.6 213 417.05 211.45 418.6 206.25 420.75 206.25 420.75 211.85 427.8 211.85 427.8 214.75 420.75 214.75 420.75 229.05 420.85 230.4
Q 421.05 231.65 421.8 232.45 422.6 233.4 423.95 233.6
L 424.65 233.6
Q 425.85 233.6 426.4 233.45
L 426.55 233.45 427.05 233.4 427.95 233.2 428 233.2 Z
M 409.2 236.2
L 405.55 236.2 405.55 220.45
Q 405.55 219.4 405.4 218.85 405.35 218 405 217.25 404.75 216.6 404.2 216.05 403.45 215.25 402.45 214.95
L 401 214.6 399.95 214.6
Q 399 214.55 397.85 214.75 396.8 214.95 395.8 215.45 395.05 215.85 394.35 216.65 393.65 217.4 393.25 218.55 392.55 220.55 392.55 223.45
L 392.55 236.2 388.85 236.2 388.85 201.65 392.55 201.65 392.55 212.15
Q 392.55 214.4 392.4 215.25
L 392.6 215.25
Q 393.6 213.75 395.2 212.8
L 395.75 212.45
Q 397.25 211.65 398.8 211.6
L 400.25 211.45
Q 403.15 211.45 405.2 212.4 406 212.75 407 213.6 408.05 214.6 408.6 216.05
L 409.15 218.4 409.2 236.2 Z
M 375.45 211.85
L 383.85 211.85 383.85 214.2 379.4 214.75
Q 380 215.6 380.35 216.4
L 380.95 218.45 381 219.6
Q 381 221 380.6 222.2 380 223.95 378.55 225.35 377.25 226.45 375.35 227 374.05 227.4 372.65 227.4
L 370.45 227.4 369.8 227.25 368.75 227.95
Q 368.2 228.4 367.85 228.95 367.4 229.65 367.4 230.4
L 367.55 231
Q 367.75 231.6 368.25 231.85 368.8 232.2 370.35 232.35
L 377.65 232.55
Q 378.95 232.75 379.8 233.15 380.4 233.35 381.45 234 383.15 235.4 383.45 237.45
L 383.6 238.85
Q 383.6 242.8 380.45 244.95
L 380.35 245
Q 378 246.55 374.35 246.95 372.65 247.15 370.85 247.15 367.85 247.15 365.55 246.4 364.55 246 363.45 245.4 361.05 243.65 360.95 240.8
L 360.95 240.35
Q 360.95 238.15 362.35 236.55 363.2 235.45 364.55 234.95 365.45 234.55 366.35 234.35 365.6 234 364.85 233.15
L 364.75 233
Q 364.15 232.05 364.15 231.15
L 364.15 230.95
Q 364.15 229.65 364.85 228.6
L 365.55 227.8 367.05 226.65
Q 365.45 226 364.25 224.4
L 364 224
Q 363 222.35 362.85 220.35
L 362.8 219.8
Q 362.8 218.6 363.15 217.25 363.55 215.15 365.2 213.6 367.55 211.45 372 211.45
L 373.85 211.55 375.45 211.85 Z
M 366.45 219.65
Q 366.45 222.25 367.95 223.55 369.4 224.85 371.95 224.85 377.35 224.85 377.35 219.6 377.35 218.35 377.05 217.45 376.4 215.05 373.85 214.35 372.85 214.15 371.85 214.15
L 370.25 214.25
Q 368.75 214.6 367.85 215.55 366.65 216.75 366.45 218.85
L 366.45 219.65 Z
M 374.2 235.65
L 369.8 235.65
Q 367.95 235.65 366.65 236.35
L 365.85 236.85
Q 364.8 237.85 364.6 239.05
L 364.45 240.35
Q 364.45 241.15 364.75 241.65 365.05 242.6 365.95 243.2
L 366.15 243.35
Q 366.85 243.75 367.6 243.95 369 244.35 370.95 244.35 371.75 244.35 373.35 244.2 376.05 244 377.8 242.95 378.55 242.55 379 241.95 380.05 240.6 380 239.2 380 237.95 379.55 237.2 379.2 236.6 378.8 236.45 377.6 235.65 374.2 235.65 Z
M 352.2 204.6
L 352.15 205.75
Q 352.25 206.65 352.75 207.15 353.25 207.55 353.55 207.6 353.8 207.75 354.35 207.75 355.2 207.75 355.85 207.15 356.45 206.55 356.45 205.25
L 356.45 204.85
Q 356.4 204 355.85 203.45 355.15 202.75 354.35 202.85
L 354.15 202.85
Q 353.4 202.85 352.75 203.4 352.45 203.85 352.4 204 352.2 204.2 352.2 204.6 Z
M 347.85 211.75
L 347.4 215.15 345.15 214.8 344.75 214.8
Q 341.85 214.8 340 216.8
L 339.65 217.2
Q 337.85 219.35 337.65 221.95
L 337.6 236.2 333.85 236.2 333.85 211.85 336.95 211.85 337.35 216.4 337.55 216.4
Q 338.15 215.35 338.95 214.4 339.75 213.4 340.8 212.75 342.65 211.4 345 211.45
L 346.55 211.55
Q 347.25 211.55 347.85 211.75 Z
M 356.15 211.85
L 356.15 236.2 352.45 236.2 352.45 211.85 356.15 211.85 Z
M 633.25 221.25
L 646 221.25
Q 646 217.75 644.4 215.95 643.35 214.55 641.4 214.2 640.95 214.05 640 214.05 638.75 214.05 637.85 214.35 636.25 214.85 635.35 216 634.45 216.85 633.85 218.4 633.4 219.55 633.35 220.6
L 633.25 221.25 Z
M 622.85 201.2
L 622.85 235.75 619.2 235.75 619.2 201.2 622.85 201.2 Z
M 158.15 164.15
L 158.35 164.15 169.15 152.25 173.45 152.25 163.6 162.6 174.2 176.6 169.75 176.6 161.15 165.05 158.35 167.45 158.35 176.6 154.65 176.6 154.65 142.05 158.35 142.05 158.15 164.15 Z
M 83.55 173.45
L 83.25 173.45 82.55 176.6 79.85 176.6 79.85 142.05 83.55 142.05 83.4 155.45 83.55 155.45
Q 85.8 152.35 89.65 151.95
L 91.2 151.85
Q 92.8 151.85 94.4 152.25 96.95 153 98.65 155.15 99.85 156.6 100.55 158.8 101.35 161.2 101.35 164.4 101.35 168.55 100 171.55 99.4 172.75 98.6 173.75 96.25 176.65 92.4 177
L 91.2 177.05
Q 89.95 177.05 88.4 176.75
L 86.85 176.2
Q 84.85 175.25 83.55 173.45 Z
M 125.45 176.6
L 122.75 176.6 122 173.15 121.8 173.15 120.6 174.55 119.25 175.6
Q 118.85 175.95 118.2 176.2 117.35 176.6 116.4 176.8 115.6 177 114.6 177
L 113.65 177.05
Q 112.4 177.05 111.35 176.8 109.8 176.45 108.85 175.85
L 108 175.2
Q 105.95 173.35 105.95 169.85 105.85 168 106.85 166.35 107.8 164.65 109.55 163.85 112.35 162.35 117.75 162.15
L 121.85 162 121.75 158.95
Q 121.55 157.35 120.6 156.25 119.65 155.25 117.75 154.95
L 116.65 154.95
Q 115 154.95 113.95 155.25 112.35 155.6 109.8 156.75
L 108.65 153.95
Q 110.2 153.15 111.95 152.6
L 112.6 152.4
Q 114.85 151.85 116.85 151.85 117.65 151.85 119.25 152 121.8 152.4 123.35 153.8 124.4 154.75 124.85 156.15 125.45 157.75 125.45 160
L 125.45 176.6 Z
M 121.75 166.85
L 121.75 164.6 118.05 164.8
Q 117.25 164.8 115.95 164.95 113.15 165.25 111.75 166.15 110.05 167.15 109.85 169
L 109.8 169.95
Q 109.8 170.75 109.95 171.15 110.15 172.05 110.75 172.65
L 111 172.95
Q 111.95 173.8 113.8 174
L 114.4 174
Q 117.4 174 119.2 172.6
L 119.8 172.15
Q 121.15 170.8 121.55 169 121.75 168.15 121.75 166.85 Z
M 90.65 154.95
Q 89.65 154.95 88.65 155.15 87.55 155.35 86.65 155.85 85.8 156.35 85.2 157.15 84.6 157.95 84.35 158.85 83.75 160.4 83.6 163.2
L 83.65 166.95
Q 84 170.15 85.25 171.75 86.25 173.05 88 173.6 88.6 173.8 90 173.95
L 90.75 173.95
Q 91.85 173.95 92.85 173.65 94.75 173.15 95.8 171.45 97 169.75 97.35 166.85 97.45 166 97.45 164.35 97.45 162.75 97.35 161.85 97.05 159.2 96 157.55
L 95.8 157.25
Q 94.55 155.45 92.4 155.15 91.55 154.95 90.65 154.95 Z
M 149.25 153.05
L 148.15 156.2 146.35 155.6 145.45 155.4
Q 143.95 155.05 142.95 155.05 141.15 155.05 139.6 155.75 136.15 157.25 135.6 162.55
L 135.55 164.55
Q 135.55 166.25 135.65 167.15 135.85 168.45 136.25 169.55 136.75 170.75 137.35 171.4 138.8 173.35 141.15 173.65 141.6 173.8 142.65 173.8 144.85 173.8 146.95 173.2
L 148.95 172.55 148.95 175.8
Q 147.85 176.35 146.35 176.65 144.75 177.05 142.8 177.05 141.15 177.05 139.4 176.65 136.55 175.95 134.6 173.8 133.05 172.05 132.35 169.75 131.8 167.65 131.75 166.15
L 131.65 164.6
Q 131.65 160.25 133.2 157.2 133.75 156.2 134.6 155.15 136.8 152.75 139.85 152.15 141.55 151.8 143 151.8 144.85 151.8 146.55 152.2
L 147.55 152.45
Q 148.15 152.6 149.25 153.05 Z
M 178.95 488.05
L 178.95 490.85 178.55 491.05 175.2 491.55 175.05 491.55
Q 173.6 491.55 172.25 491.15 168 489.85 168 484.05
L 168 469.6 164.55 469.6 164.55 467.85 168 466.35 169.6 461.15 171.65 461.15 171.65 466.75 178.75 466.75 178.75 469.6 171.65 469.6 171.65 483.95 171.8 485.25
Q 172 486.55 172.75 487.35 173.55 488.25 174.85 488.45
L 177.4 488.4 177.45 488.35 178.85 488.05 178.95 488.05 Z
M 130.35 488.2
Q 131.25 487.15 131.6 486.55 133.35 483.55 133.35 478.95
L 133.35 478.35
Q 133.35 476.65 132.85 474.55 132.05 471.55 130.35 469.75 127.35 466.35 122.25 466.35
L 119.65 466.55
Q 116.35 467.05 114 469.6 113.35 470.25 112.75 471.35 111 474.4 111 478.95 111 480.4 111.2 481.85 111.45 483.8 112.4 485.6
L 112.65 486.15
Q 113.85 488.55 116.25 490 117.25 490.65 118.65 491.05 120.15 491.55 122.05 491.55
L 124.6 491.35
Q 128.05 490.8 130.35 488.2 Z
M 107.8 466.6
L 107.25 470 105 469.65 104.6 469.65
Q 101.8 469.65 99.95 471.75
L 99.6 472.05
Q 97.85 474 97.55 476.8
L 97.45 491.05 93.8 491.05 93.8 466.75 96.8 466.75 97.25 471.25 97.4 471.25
Q 98 470.2 98.8 469.25 99.45 468.45 100.65 467.6 102.65 466.25 104.85 466.35
L 107.8 466.6 Z
M 89.35 466.75
L 89.35 469.6 83.15 469.6 83.15 491.05 79.45 491.05 79.45 469.6 75.15 469.6 75.15 467.95 79.45 466.6 79.45 465.25
Q 79.45 463.25 79.8 461.85 80.95 457.25 85.25 456.45 86.25 456.25 87.25 456.25 89.2 456.25 91.8 457.05
L 90.85 460 89.45 459.6 87.2 459.35 86 459.45
Q 84.8 459.8 84.15 460.75 83.15 462.15 83.15 465.2
L 83.15 466.75 89.35 466.75 Z
M 114.8 478.95
L 115 481.6
Q 115.2 482.95 115.6 484 116 485.2 116.65 486 118.55 488.45 122.2 488.45 122.95 488.45 124.4 488.2 126.4 487.75 127.65 486 129.55 483.65 129.55 478.95 129.55 474.2 127.65 471.85 126.2 470 123.85 469.6 123.35 469.45 122.15 469.45 118.4 469.45 116.65 471.8 115.8 472.95 115.45 474.15
L 114.95 476.45 114.8 478.95 Z
M 160.2 491.05
L 156.45 491.05 156.45 475.35
Q 156.45 474.25 156.35 473.75 156.25 472.85 155.95 472.15 155.55 471.35 155.15 470.95 154.4 470.15 153.4 469.8
L 151.95 469.45 150.85 469.45
Q 149.95 469.4 148.8 469.6 147.45 469.95 146.75 470.35 145.8 470.95 145.25 471.55 143.55 473.6 143.55 478.35
L 143.55 491.05 139.8 491.05 139.8 466.75 142.8 466.75 143.4 470.05 143.6 470.05
Q 144.75 468.25 146.55 467.4
L 146.8 467.25
Q 148.2 466.55 150.35 466.35
L 151.35 466.35
Q 155.8 466.35 157.95 468.4 159.05 469.55 159.55 470.85 159.95 472.15 160.05 473.15
L 160.2 491.05 Z"/>
</g>

<g>
<path stroke="#FF0000" stroke-width="1" stroke-linejoin="round" stroke-linecap="round" fill="none" d="
M 1665.45 388.95
Q 1669 398 1669.25 406.8 1700.8 405.95 1727.95 400.25 1749 399.45 1770.2 400.35 1773.55 400.55 1776.85 400.65 1795.75 401.95 1814.75 404.35 1816.45 415.15 1802.8 416 1804.8 426.75 1782.25 424
L 1756.4 425.05
Q 1738.95 425.95 1737.8 426.55 1744.15 426.85 1754.05 431.35 1758.15 433.05 1760.45 438.25 1762.75 443.35 1753.25 442.4 1743.8 441.35 1733.75 443.55 1723.75 445.75 1714.75 448.2 1692.05 454.25 1675.75 440.05 1666.95 438.15 1659.35 436.95 1653.4 445.25 1643.85 453.35
L 1473.55 446.65
Q 1419.35 435.6 1337.4 387.15 1304.2 307.45 1385.8 329.85
L 1498.15 382.4 1665.45 388.95 Z
M 1646.8 471.6
Q 1650.35 480.65 1650.6 489.45 1682.15 488.6 1709.25 482.95 1730.35 482.15 1751.55 483 1754.85 483.2 1758.2 483.35 1777.05 484.6 1796.05 487 1797.8 497.8 1784.15 498.65 1786.15 509.4 1763.6 506.65
L 1737.75 507.75
Q 1720.25 508.6 1719.15 509.2 1725.45 509.55 1735.4 514 1739.45 515.75 1741.8 520.95 1744.05 526 1734.6 525.05 1725.15 524 1715.05 526.2 1705.05 528.4 1696.05 530.85 1673.4 536.95 1657.05 522.75 1648.25 520.8 1640.65 519.6 1634.75 527.95 1625.2 536
L 1454.85 529.35
Q 1400.65 518.25 1318.75 469.8 1285.55 390.15 1367.15 412.55
L 1479.45 465.05 1646.8 471.6 Z
M 1616.25 648.25
Q 1619.8 657.35 1620.05 666.15 1651.6 665.25 1678.75 659.6 1699.8 658.8 1721 659.65 1724.35 659.85 1727.65 660 1746.55 661.25 1765.55 663.65 1767.25 674.45 1753.6 675.35 1755.6 686.05 1733.05 683.35
L 1707.2 684.4
Q 1689.75 685.25 1688.6 685.85 1694.95 686.2 1704.85 690.65 1708.95 692.4 1711.25 697.6 1713.55 702.65 1704.05 701.75 1694.6 700.65 1684.55 702.85 1674.55 705.05 1665.55 707.55 1642.85 713.6 1626.55 699.4 1617.75 697.45 1610.15 696.25 1604.2 704.6 1594.65 712.65
L 1424.35 706
Q 1370.15 694.95 1288.2 646.45 1255 566.8 1336.6 589.2
L 1448.95 641.75 1616.25 648.25 Z
M 1632.4 558.6
Q 1635.95 567.65 1636.2 576.45 1667.75 575.6 1694.85 569.95 1715.95 569.15 1737.15 570 1740.45 570.2 1743.8 570.35 1762.65 571.6 1781.65 574 1783.4 584.8 1769.75 585.65 1771.75 596.4 1749.2 593.65
L 1723.35 594.75
Q 1705.85 595.6 1704.75 596.2 1711.05 596.55 1721 601 1725.05 602.75 1727.4 607.95 1729.65 613 1720.2 612.05 1710.75 611 1700.65 613.2 1690.65 615.4 1681.65 617.85 1659 623.95 1642.65 609.75 1633.85 607.8 1626.25 606.6 1620.35 614.95 1610.8 623
L 1440.45 616.35
Q 1386.25 605.25 1304.35 556.8 1271.15 477.15 1352.75 499.55
L 1465.05 552.05 1632.4 558.6 Z"/>
</g>

<g>
<path stroke="#FF0000" stroke-width="0.75" stroke-linejoin="round" stroke-linecap="round" fill="none" d="
M 1294 254.8
Q 1306.6 239.2 1323.45 233 1351.15 208.05 1338.55 194.95 1314.4 198.8 1281.15 145.85 1259.4 107.85 1276.35 68.8 1293.2 29.65 1349.55 19.65 1405.95 9.6 1444 31.35 1482 52.95 1462.65 73.4 1473 85.65 1468.2 109.65 1463.4 133.4 1468.85 142.15 1474.2 150.8 1482 155.75 1476.35 164.75 1467.15 165 1465.2 170.45 1466.15 172.45 1470.4 174.95 1471 179.25 1468.2 182.6 1463.35 181.55 1467.35 185.65 1463.8 189.75
L 1455.25 193.05
Q 1455.4 203.45 1449.15 210.8 1446.75 214.95 1435.85 211.6 1427.4 209.55 1418.95 206.25 1403.8 207.15 1398.75 226.35 1393.65 245.2 1399.05 253.55
M 1062.25 254.8
Q 1074.85 239.2 1091.75 233 1119.4 208.05 1106.8 194.95 1082.65 198.8 1049.4 145.85 1027.65 107.85 1044.6 68.8 1061.45 29.65 1117.8 19.65 1174.2 9.6 1212.25 31.35 1250.25 52.95 1230.95 73.4 1241.25 85.65 1236.45 109.65 1231.65 133.4 1237.15 142.15 1242.45 150.8 1250.25 155.75 1244.6 164.75 1235.4 165 1233.45 170.45 1234.4 172.45 1238.65 174.95 1239.25 179.25 1236.45 182.6 1231.6 181.55 1235.6 185.65 1232.05 189.75
L 1223.55 193.05
Q 1223.65 203.45 1217.4 210.8 1215 214.95 1204.15 211.6 1195.65 209.55 1187.2 206.25 1172.05 207.15 1167 226.35 1161.95 245.2 1167.35 253.55
M 830.55 254.8
Q 843.15 239.2 860 233 887.65 208.05 875.05 194.95 850.95 198.8 817.65 145.85 795.95 107.85 812.85 68.8 829.75 29.65 886.05 19.65 942.45 9.6 980.55 31.35 1018.55 52.95 999.2 73.4 1009.55 85.65 1004.75 109.65 999.95 133.4 1005.4 142.15 1010.75 150.8 1018.55 155.75 1012.85 164.75 1003.65 165 1001.75 170.45 1002.65 172.45 1006.95 174.95 1007.55 179.25 1004.75 182.6 999.85 181.55 1003.85 185.65 1000.35 189.75
L 991.8 193.05
Q 991.95 203.45 985.65 210.8 983.25 214.95 972.4 211.6 963.95 209.55 955.45 206.25 940.35 207.15 935.25 226.35 930.2 245.2 935.6 253.55"/>
</g>
</g>
</g>

<g id="Layer_3">
<g>
<g>
<g>
<path fill="#000000" stroke="none" d="
M 2148.9 77.1
Q 2147.95 62.6 2133.75 61.4
L 1888.1 61.4
Q 1872.85 64.05 1873 77.7
L 1873 195.9
Q 1875.05 206.9 1886.35 208.7
L 2134.95 208.7
Q 2146.5 208.3 2148.9 196.45
L 2148.9 77.1
M 2107.1 145.9
Q 2108.4 146.5 2109.2 147.5 2110 148.55 2110.4 149.85 2110.75 151.2 2110.75 152.6
L 2110.75 164.45 2106.05 164.45 2105.95 153.25
Q 2105.9 152.3 2105.55 151.45 2105.25 150.6 2104.55 150.05 2103.85 149.5 2102.6 149.5 2101.45 149.5 2100.65 149.85 2099.85 150.25 2099.3 150.9 2098.8 151.6 2098.55 152.45 2098.35 153.3 2098.35 154.2
L 2098.35 164.45 2093.65 164.45 2093.65 145.75 2098.1 145.75 2098.1 148.75 2098.2 148.75
Q 2098.85 147.35 2100.2 146.3 2101.55 145.25 2103.9 145.25 2105.8 145.25 2107.1 145.9
M 2032.7 93.1
L 2035.7 93.1 2035.7 101.55 2035.75 101.55 2036.35 100.9 2037.2 100.35
Q 2037.7 100.05 2038.35 99.9 2039 99.7 2039.85 99.7 2041.1 99.7 2042.2 100.2 2043.25 100.65 2044.05 101.55 2044.8 102.4 2045.2 103.55 2045.65 104.7 2045.65 106 2045.65 107.3 2045.25 108.45 2044.85 109.6 2044.05 110.45 2043.3 111.35 2042.2 111.8 2041.1 112.3 2039.75 112.3 2038.45 112.3 2037.35 111.8 2036.25 111.3 2035.6 110.2
L 2035.55 110.2 2035.55 112 2032.7 112 2032.7 93.1
M 1962.05 97.3
L 1962 97.3 1962 112 1959 112 1959 94.3 1963.8 94.3 1968.5 106.7 1973.3 94.3 1978.05 94.3 1978.05 112 1975.05 112 1975.05 97.3 1975 97.3 1969.6 112 1967.4 112 1962.05 97.3
M 2004.55 93.1
L 2007.55 93.1 2007.55 112 2004.7 112 2004.7 110.2 2004.65 110.2
Q 2004 111.3 2002.9 111.8 2001.8 112.3 2000.5 112.3 1999.15 112.3 1998.05 111.8 1996.95 111.35 1996.15 110.45 1995.4 109.6 1995 108.45 1994.6 107.3 1994.6 106 1994.6 104.7 1995.05 103.55 1995.45 102.4 1996.2 101.55 1997 100.65 1998.05 100.2 1999.15 99.7 2000.4 99.7 2001.25 99.7 2001.9 99.9 2002.55 100.05 2003.05 100.35
L 2003.9 100.9 2004.45 101.55 2004.55 101.55 2004.55 93.1
M 2020.95 101.4
Q 2021.7 102.2 2022.1 103.45 2022.5 104.65 2022.5 106.25
L 2022.5 107.05 2013.35 107.05
Q 2013.5 108.4 2014.4 109.15 2015.3 109.9 2016.55 109.9 2017.7 109.9 2018.45 109.45 2019.2 108.95 2019.8 108.3
L 2021.95 109.9
Q 2020.9 111.2 2019.6 111.75 2018.3 112.3 2016.9 112.3 2015.5 112.3 2014.35 111.85 2013.1 111.4 2012.25 110.55 2011.35 109.75 2010.85 108.6 2010.35 107.4 2010.35 106 2010.35 104.6 2010.85 103.4 2011.35 102.25 2012.25 101.45 2013.1 100.6 2014.35 100.15 2015.5 99.7 2016.9 99.7 2018.1 99.7 2019.15 100.15 2020.2 100.55 2020.95 101.4
M 1991.8 102.95
L 1992 104.1 1992 112 1989.3 112 1989.3 110.35 1989.25 110.35
Q 1988.55 111.4 1987.55 111.85 1986.55 112.3 1985.35 112.3 1984.55 112.3 1983.75 112.05 1983 111.85 1982.35 111.4 1981.75 110.95 1981.35 110.3 1981 109.6 1981 108.7 1981 107.75 1981.35 107.05 1981.7 106.35 1982.3 105.9 1982.85 105.4 1983.65 105.15 1984.4 104.85 1985.25 104.75
L 1986.95 104.55 1989.3 104.55 1989.3 104.2
Q 1989.3 103.1 1988.5 102.5 1987.75 101.95 1986.55 101.95 1985.6 101.95 1984.8 102.3 1983.95 102.65 1983.35 103.2
L 1981.75 101.6
Q 1982.75 100.6 1984.1 100.15 1985.45 99.7 1986.85 99.7 1988.15 99.7 1989 100 1989.9 100.25 1990.5 100.7 1991.05 101.15 1991.35 101.75 1991.65 102.35 1991.8 102.95
M 1986.6 145.75
L 1991.5 145.75 1982.6 168.45
Q 1982.1 169.8 1981.5 170.8 1980.9 171.8 1980.1 172.45 1979.25 173.15 1978.15 173.5 1977.05 173.8 1975.5 173.8 1973.65 173.8 1971.9 173.35
L 1972.45 169.15 1974.85 169.6 1976.3 169.45
Q 1976.9 169.3 1977.3 168.95
L 1978 168.1 1979.45 164.6 1971.45 145.75 1976.6 145.75 1981.85 158.7 1981.9 158.7 1986.6 145.75
M 2010.1 137.85
Q 2011.2 137 2012.65 136.55 2014.1 136.15 2015.65 136.15 2017.2 136.15 2018.6 136.55 2020 136.9 2021.1 137.7 2022.15 138.5 2022.8 139.75 2023.45 141 2023.45 142.7 2023.45 144 2023 145.05 2022.5 146.1 2021.75 147 2020.95 147.9 2019.95 148.6
L 2017.95 149.85 2022.4 154.6 2025.5 149.95 2030.95 149.95 2025.45 157.95 2031.4 164.45 2025.35 164.45 2022.45 161.3
Q 2020.75 163.3 2018.85 164.2 2016.95 165.15 2014.3 165.15 2012.45 165.15 2010.75 164.6 2009.05 164.1 2007.75 163.05 2006.5 162.05 2005.7 160.55 2004.9 159 2004.9 157.05 2004.9 155.65 2005.4 154.45 2005.85 153.25 2006.65 152.25 2007.45 151.25 2008.55 150.5 2009.65 149.75 2010.9 149.25
L 2009.65 147.85 2008.65 146.4 2008 144.8
Q 2007.75 143.95 2007.75 142.95 2007.75 141.25 2008.4 139.95 2009 138.65 2010.1 137.85
M 1960.5 145.75
L 1960.5 140.3 1965.2 140.3 1965.2 145.75 1970.35 145.75 1970.35 149.7 1965.2 149.7 1965.2 157.9
Q 1965.2 159.3 1965.75 160.15 1966.25 160.95 1967.8 160.95
L 1969.2 160.8
Q 1969.95 160.65 1970.35 160.35
L 1970.35 164.3
Q 1969.65 164.65 1968.55 164.75
L 1966.65 164.95
Q 1964.8 164.95 1963.6 164.5 1962.4 164.1 1961.7 163.25 1961.05 162.45 1960.8 161.15 1960.5 159.95 1960.5 158.3
L 1960.5 149.7 1956.7 149.7 1956.7 145.75 1960.5 145.75
M 1954 145.25
L 1955.7 145.55 1955.7 150.05 1954.55 149.8 1953.4 149.7
Q 1951.75 149.7 1950.8 150.3 1949.8 150.9 1949.25 151.7 1948.7 152.45 1948.55 153.25
L 1948.4 154.45 1948.4 164.45 1943.7 164.45 1943.7 145.75 1948.4 145.75 1948.4 148.7 1948.45 148.7
Q 1949.25 147.05 1950.7 146.15 1952.15 145.25 1954 145.25
M 2084.1 145.95
Q 2085.75 146.65 2086.85 147.9 2088.05 149.2 2088.7 151.1 2089.3 153 2089.3 155.45
L 2089.3 156.7 2075.05 156.7
Q 2075.3 158.85 2076.7 160 2078.1 161.15 2080.1 161.15 2081.85 161.15 2083.05 160.45 2084.2 159.75 2085.1 158.65
L 2088.45 161.15
Q 2086.8 163.2 2084.8 164.05 2082.75 164.95 2080.55 164.95 2078.45 164.95 2076.55 164.2 2074.7 163.5 2073.35 162.2 2071.95 160.95 2071.15 159.1 2070.35 157.3 2070.35 155.1 2070.35 152.85 2071.15 151.05 2071.95 149.25 2073.35 147.95 2074.7 146.65 2076.55 145.95 2078.45 145.25 2080.55 145.25 2082.5 145.25 2084.1 145.95
M 2056.55 100
L 2059.65 100 2054 114.6
Q 2053.65 115.45 2053.25 116.05 2052.9 116.7 2052.35 117.15 2051.85 117.6 2051.1 117.8 2050.4 118 2049.4 118 2048.25 118 2047.1 117.7
L 2047.45 115 2048.2 115.2 2049 115.3 2049.9 115.2
Q 2050.3 115.1 2050.55 114.9
L 2051 114.35 2051.4 113.55 2051.95 112.1 2046.8 100 2050.1 100 2053.5 108.35 2056.55 100
M 2057.25 136.85
Q 2058.8 136.85 2060.35 137.2 2061.85 137.6 2063.05 138.4 2064.25 139.25 2065 140.6 2065.7 141.9 2065.7 143.8 2065.7 146.1 2064.4 147.65 2063.05 149.15 2060.9 149.85
L 2060.9 149.9
Q 2062.2 150.05 2063.3 150.6 2064.4 151.2 2065.2 152.05 2066 152.95 2066.4 154.1 2066.9 155.25 2066.9 156.55 2066.9 158.85 2066 160.35 2065.1 161.85 2063.6 162.75 2062.15 163.65 2060.25 164.05 2058.35 164.45 2056.45 164.45
L 2046.5 164.45 2046.5 136.85 2057.25 136.85
M 1924.9 136.85
L 1929.15 136.85 1941.05 164.45 1935.45 164.45 1932.9 158.15 1920.9 158.15 1918.4 164.45 1912.9 164.45 1924.9 136.85
M 1922.55 153.9
L 1931.15 153.9 1926.9 142.7 1922.55 153.9
M 2061.95 156.2
Q 2061.95 154 2060.55 153.15 2059.1 152.3 2056.1 152.3
L 2051.4 152.3 2051.4 160.25 2057.95 160.15
Q 2059 160 2059.9 159.6 2060.8 159.15 2061.4 158.35 2061.95 157.55 2061.95 156.2
M 2051.4 141.05
L 2051.4 148.05 2055.85 148.05
Q 2058.35 148.05 2059.55 147.1 2060.8 146.15 2060.8 144.6 2060.8 142.8 2059.55 141.9 2058.25 141.05 2055.45 141.05
L 2051.4 141.05
M 2084.65 153.2
Q 2084.6 151.15 2083.35 149.95 2082.1 148.8 2079.9 148.8 2077.75 148.8 2076.55 150 2075.3 151.2 2075.05 153.2
L 2084.65 153.2
M 2017.25 160.1
L 2019.5 158.2 2013.85 152.05 2011.3 153.9
Q 2010.7 154.45 2010.4 155.2 2010.1 155.85 2010.1 156.8 2010.1 157.65 2010.4 158.45 2010.8 159.25 2011.35 159.75 2012 160.3 2012.75 160.6 2013.55 160.95 2014.45 160.95 2016.05 160.95 2017.25 160.1
M 2012.4 143.1
Q 2012.4 143.65 2012.65 144.2
L 2014.1 146.25 2015.05 147.15 2017.5 145.5
Q 2018.05 144.95 2018.4 144.3 2018.75 143.7 2018.75 142.95 2018.75 141.8 2017.85 141.05 2016.95 140.35 2015.75 140.35 2014.35 140.35 2013.4 141.1 2012.4 141.85 2012.4 143.1
M 1988.4 109.3
Q 1989.1 108.55 1989.1 107.3
L 1989.1 106.65 1987.1 106.7
Q 1986.35 106.75 1985.65 106.9 1984.95 107.1 1984.45 107.45 1984 107.85 1984 108.45 1984 108.9 1984.2 109.2
L 1984.7 109.7 1985.35 109.95 1986.1 110.05
Q 1987.65 110.05 1988.4 109.3
M 2019.5 104.8
Q 2019.5 103.5 2018.65 102.7 2017.9 101.95 2016.45 101.95 2015.1 101.95 2014.3 102.7 2013.5 103.5 2013.35 104.8
L 2019.5 104.8
M 2002.6 102.7
Q 2001.95 102.4 2001.15 102.4 2000.3 102.4 1999.65 102.7 1999 103 1998.55 103.5 1998.1 104 1997.85 104.65 1997.6 105.3 1997.6 106 1997.6 106.7 1997.85 107.35 1998.1 108 1998.55 108.5 1999 109 1999.65 109.3 2000.3 109.6 2001.15 109.6 2001.95 109.6 2002.6 109.3 2003.25 109 2003.7 108.5 2004.15 108 2004.4 107.35 2004.65 106.7 2004.65 106 2004.65 105.3 2004.4 104.65 2004.15 104 2003.7 103.5 2003.25 103 2002.6 102.7
M 2041.7 103.5
Q 2041.25 103 2040.6 102.7 2039.95 102.4 2039.15 102.4 2038.3 102.4 2037.65 102.7 2037 103 2036.55 103.5 2036.1 104 2035.85 104.65 2035.6 105.3 2035.6 106 2035.6 106.7 2035.85 107.35 2036.1 108 2036.55 108.5 2037 109 2037.65 109.3 2038.3 109.6 2039.15 109.6 2039.95 109.6 2040.6 109.3 2041.25 109 2041.7 108.5 2042.15 108 2042.4 107.35 2042.65 106.7 2042.65 106 2042.65 105.3 2042.4 104.65 2042.15 104 2041.7 103.5
M 2148.9 326.9
Q 2147.95 312.4 2133.75 311.2
L 1888.1 311.2
Q 1872.85 313.85 1873 327.5
L 1873 445.7
Q 1875.05 456.7 1886.35 458.5
L 2134.95 458.5
Q 2146.5 458.1 2148.9 446.25
L 2148.9 326.9
M 2013.2 334.95
Q 2013.2 332.85 2015.5 332.85
L 2032.95 332.85
Q 2035.3 332.85 2035.3 334.95
L 2035.3 350.6
Q 2035.3 352.7 2032.95 352.7
L 2015.5 352.7
Q 2013.2 352.7 2013.2 350.6
L 2013.2 334.95
M 1999.5 332.55
Q 2001.85 332.55 2001.85 334.65
L 2001.85 350.3
Q 2001.85 352.4 1999.5 352.4
L 1982.05 352.4
Q 1979.7 352.4 1979.7 350.3
L 1979.7 334.65
Q 1979.7 332.55 1982.05 332.55
L 1999.5 332.55
M 1949.7 333.4
L 1967.15 333.4
Q 1969.45 333.4 1969.45 335.5
L 1969.45 351.15
Q 1969.45 353.25 1967.15 353.25
L 1949.7 353.25
Q 1947.35 353.25 1947.35 351.15
L 1947.35 335.5
Q 1947.35 333.4 1949.7 333.4
M 1975.65 361.65
Q 1977.95 361.65 1977.95 363.75
L 1977.95 379.4
Q 1977.95 381.5 1975.65 381.5
L 1958.2 381.5
Q 1955.85 381.5 1955.85 379.4
L 1955.85 363.75
Q 1955.85 361.65 1958.2 361.65
L 1975.65 361.65
M 1947.15 391.85
Q 1947.15 389.75 1949.45 389.75
L 1966.9 389.75
Q 1969.25 389.75 1969.25 391.85
L 1969.25 407.5
Q 1969.25 409.6 1966.9 409.6
L 1949.45 409.6
Q 1947.15 409.6 1947.15 407.5
L 1947.15 391.85
M 1980.6 392.15
Q 1980.6 390.05 1982.9 390.05
L 2000.4 390.05
Q 2002.7 390.05 2002.7 392.15
L 2002.7 407.8
Q 2002.7 409.9 2000.4 409.9
L 1982.9 409.9
Q 1980.6 409.9 1980.6 407.8
L 1980.6 392.15
M 1944.5 363.45
L 1944.5 379.1
Q 1944.5 381.2 1942.2 381.2
L 1924.7 381.2
Q 1922.4 381.2 1922.4 379.1
L 1922.4 363.45
Q 1922.4 361.35 1924.7 361.35
L 1942.2 361.35
Q 1944.5 361.35 1944.5 363.45
M 2008.8 361.35
Q 2011.15 361.35 2011.15 363.45
L 2011.15 379.1
Q 2011.15 381.2 2008.8 381.2
L 1991.35 381.2
Q 1989.05 381.2 1989.05 379.1
L 1989.05 363.45
Q 1989.05 361.35 1991.35 361.35
L 2008.8 361.35
M 2013.75 391.85
Q 2013.75 389.75 2016.1 389.75
L 2033.55 389.75
Q 2035.9 389.75 2035.9 391.85
L 2035.9 407.5
Q 2035.9 409.6 2033.55 409.6
L 2016.1 409.6
Q 2013.75 409.6 2013.75 407.5
L 2013.75 391.85
M 2022.8 379.1
L 2022.8 363.45
Q 2022.8 361.35 2025.1 361.35
L 2042.55 361.35
Q 2044.9 361.35 2044.9 363.45
L 2044.9 379.1
Q 2044.9 381.2 2042.55 381.2
L 2025.1 381.2
Q 2022.8 381.2 2022.8 379.1
M 2066.15 332.55
Q 2068.45 332.55 2068.45 334.65
L 2068.45 350.3
Q 2068.45 352.4 2066.15 352.4
L 2048.7 352.4
Q 2046.35 352.4 2046.35 350.3
L 2046.35 334.65
Q 2046.35 332.55 2048.7 332.55
L 2066.15 332.55
M 2082.45 332.55
L 2099.9 332.55
Q 2102.25 332.55 2102.25 334.65
L 2102.25 350.3
Q 2102.25 352.4 2099.9 352.4
L 2082.45 352.4
Q 2080.1 352.4 2080.1 350.3
L 2080.1 334.65
Q 2080.1 332.55 2082.45 332.55
M 2054.5 363.45
Q 2054.5 361.35 2056.85 361.35
L 2074.3 361.35
Q 2076.6 361.35 2076.6 363.45
L 2076.6 379.1
Q 2076.6 381.2 2074.3 381.2
L 2056.85 381.2
Q 2054.5 381.2 2054.5 379.1
L 2054.5 363.45
M 2047.5 391.85
Q 2047.5 389.75 2049.85 389.75
L 2067.3 389.75
Q 2069.65 389.75 2069.65 391.85
L 2069.65 407.5
Q 2069.65 409.6 2067.3 409.6
L 2049.85 409.6
Q 2047.5 409.6 2047.5 407.5
L 2047.5 391.85
M 2079.25 391.85
Q 2079.25 389.75 2081.55 389.75
L 2099.05 389.75
Q 2101.35 389.75 2101.35 391.85
L 2101.35 407.5
Q 2101.35 409.6 2099.05 409.6
L 2081.55 409.6
Q 2079.25 409.6 2079.25 407.5
L 2079.25 391.85
M 2084.95 378.7
L 2084.95 363.05
Q 2084.95 360.95 2090 360.95
L 2128 360.95
Q 2133.05 360.95 2133.05 363.05
L 2133.05 378.7
Q 2133.05 380.8 2128 380.8
L 2090 380.8
Q 2084.95 380.8 2084.95 378.7
M 2114.15 332.55
L 2131.6 332.55
Q 2133.95 332.55 2133.95 334.65
L 2133.95 350.3
Q 2133.95 352.4 2131.6 352.4
L 2114.15 352.4
Q 2111.85 352.4 2111.85 350.3
L 2111.85 334.65
Q 2111.85 332.55 2114.15 332.55
M 2111.55 392.45
Q 2111.55 390.35 2113.85 390.35
L 2131.35 390.35
Q 2133.65 390.35 2133.65 392.45
L 2133.65 408.1
Q 2133.65 410.2 2131.35 410.2
L 2113.85 410.2
Q 2111.55 410.2 2111.55 408.1
L 2111.55 392.45
M 2111.05 437.3
L 2111.05 421.65
Q 2111.05 419.55 2113.4 419.55
L 2130.85 419.55
Q 2133.2 419.55 2133.2 421.65
L 2133.2 437.3
Q 2133.2 439.4 2130.85 439.4
L 2113.4 439.4
Q 2111.05 439.4 2111.05 437.3
M 2081.55 439.55
Q 2079.25 439.55 2079.25 437.5
L 2079.25 421.8
Q 2079.25 419.75 2081.55 419.75
L 2099.05 419.75
Q 2101.35 419.75 2101.35 421.8
L 2101.35 437.5
Q 2101.35 439.55 2099.05 439.55
L 2081.55 439.55
M 2069.15 421.55
L 2069.15 437.2
Q 2069.15 439.3 2057.25 439.3
L 1967.75 439.3
Q 1955.8 439.3 1955.8 437.2
L 1955.8 421.55
Q 1955.8 419.45 1967.75 419.45
L 2057.25 419.45
Q 2069.15 419.45 2069.15 421.55
M 1917.95 333.4
L 1935.45 333.4
Q 1937.75 333.4 1937.75 335.5
L 1937.75 351.15
Q 1937.75 353.25 1935.45 353.25
L 1917.95 353.25
Q 1915.65 353.25 1915.65 351.15
L 1915.65 335.5
Q 1915.65 333.4 1917.95 333.4
M 1889.6 333.4
L 1901.65 333.4
Q 1904 333.4 1904 335.5
L 1904 351.15
Q 1904 353.25 1901.65 353.25
L 1889.6 353.25
Q 1888.4 353.25 1888.4 351.15
L 1888.4 335.5
Q 1888.4 333.4 1889.6 333.4
M 1890.05 379.55
L 1890.05 363.9
Q 1890.05 361.8 1892.35 361.8
L 1909.8 361.8
Q 1912.15 361.8 1912.15 363.9
L 1912.15 379.55
Q 1912.15 381.65 1909.8 381.65
L 1892.35 381.65
Q 1890.05 381.65 1890.05 379.55
M 1889.2 392.15
Q 1889.2 390.05 1894.3 390.05
L 1932.3 390.05
Q 1937.35 390.05 1937.35 392.15
L 1937.35 407.8
Q 1937.35 409.9 1932.3 409.9
L 1894.3 409.9
Q 1889.2 409.9 1889.2 407.8
L 1889.2 392.15
M 1924.1 419.75
L 1941.55 419.75
Q 1943.85 419.75 1943.85 421.8
L 1943.85 437.5
Q 1943.85 439.55 1941.55 439.55
L 1924.1 439.55
Q 1921.75 439.55 1921.75 437.5
L 1921.75 421.8
Q 1921.75 419.75 1924.1 419.75
M 1911 437.2
Q 1911 439.3 1908.65 439.3
L 1891.2 439.3
Q 1888.85 439.3 1888.85 437.2
L 1888.85 421.55
Q 1888.85 419.45 1891.2 419.45
L 1908.65 419.45
Q 1911 419.45 1911 421.55
L 1911 437.2 Z"/>
</g>
</g>

<g>
<path stroke="#000000" stroke-width="0.75" stroke-linejoin="miter" stroke-linecap="round" stroke-miterlimit="11" fill="none" d="
M 1873 77.7
L 1873 195.9
Q 1875.05 206.9 1886.35 208.7
L 2134.95 208.7
Q 2146.5 208.3 2148.9 196.45
L 2148.9 77.1
Q 2147.95 62.6 2133.75 61.4
L 1888.1 61.4
Q 1872.85 64.05 1873 77.7 Z
M 2015.5 332.85
L 2032.95 332.85
Q 2035.3 332.85 2035.3 334.95
L 2035.3 350.6
Q 2035.3 352.7 2032.95 352.7
L 2015.5 352.7
Q 2013.2 352.7 2013.2 350.6
L 2013.2 334.95
Q 2013.2 332.85 2015.5 332.85 Z
M 1982.05 332.55
L 1999.5 332.55
Q 2001.85 332.55 2001.85 334.65
L 2001.85 350.3
Q 2001.85 352.4 1999.5 352.4
L 1982.05 352.4
Q 1979.7 352.4 1979.7 350.3
L 1979.7 334.65
Q 1979.7 332.55 1982.05 332.55 Z
M 1949.7 333.4
L 1967.15 333.4
Q 1969.45 333.4 1969.45 335.5
L 1969.45 351.15
Q 1969.45 353.25 1967.15 353.25
L 1949.7 353.25
Q 1947.35 353.25 1947.35 351.15
L 1947.35 335.5
Q 1947.35 333.4 1949.7 333.4 Z
M 1958.2 361.65
L 1975.65 361.65
Q 1977.95 361.65 1977.95 363.75
L 1977.95 379.4
Q 1977.95 381.5 1975.65 381.5
L 1958.2 381.5
Q 1955.85 381.5 1955.85 379.4
L 1955.85 363.75
Q 1955.85 361.65 1958.2 361.65 Z
M 1949.45 389.75
L 1966.9 389.75
Q 1969.25 389.75 1969.25 391.85
L 1969.25 407.5
Q 1969.25 409.6 1966.9 409.6
L 1949.45 409.6
Q 1947.15 409.6 1947.15 407.5
L 1947.15 391.85
Q 1947.15 389.75 1949.45 389.75 Z
M 1982.9 390.05
L 2000.4 390.05
Q 2002.7 390.05 2002.7 392.15
L 2002.7 407.8
Q 2002.7 409.9 2000.4 409.9
L 1982.9 409.9
Q 1980.6 409.9 1980.6 407.8
L 1980.6 392.15
Q 1980.6 390.05 1982.9 390.05 Z
M 1924.7 361.35
L 1942.2 361.35
Q 1944.5 361.35 1944.5 363.45
L 1944.5 379.1
Q 1944.5 381.2 1942.2 381.2
L 1924.7 381.2
Q 1922.4 381.2 1922.4 379.1
L 1922.4 363.45
Q 1922.4 361.35 1924.7 361.35 Z
M 1991.35 361.35
L 2008.8 361.35
Q 2011.15 361.35 2011.15 363.45
L 2011.15 379.1
Q 2011.15 381.2 2008.8 381.2
L 1991.35 381.2
Q 1989.05 381.2 1989.05 379.1
L 1989.05 363.45
Q 1989.05 361.35 1991.35 361.35 Z
M 2016.1 389.75
L 2033.55 389.75
Q 2035.9 389.75 2035.9 391.85
L 2035.9 407.5
Q 2035.9 409.6 2033.55 409.6
L 2016.1 409.6
Q 2013.75 409.6 2013.75 407.5
L 2013.75 391.85
Q 2013.75 389.75 2016.1 389.75 Z
M 2025.1 361.35
L 2042.55 361.35
Q 2044.9 361.35 2044.9 363.45
L 2044.9 379.1
Q 2044.9 381.2 2042.55 381.2
L 2025.1 381.2
Q 2022.8 381.2 2022.8 379.1
L 2022.8 363.45
Q 2022.8 361.35 2025.1 361.35 Z
M 2048.7 332.55
L 2066.15 332.55
Q 2068.45 332.55 2068.45 334.65
L 2068.45 350.3
Q 2068.45 352.4 2066.15 352.4
L 2048.7 352.4
Q 2046.35 352.4 2046.35 350.3
L 2046.35 334.65
Q 2046.35 332.55 2048.7 332.55 Z
M 2082.45 332.55
L 2099.9 332.55
Q 2102.25 332.55 2102.25 334.65
L 2102.25 350.3
Q 2102.25 352.4 2099.9 352.4
L 2082.45 352.4
Q 2080.1 352.4 2080.1 350.3
L 2080.1 334.65
Q 2080.1 332.55 2082.45 332.55 Z
M 2056.85 361.35
L 2074.3 361.35
Q 2076.6 361.35 2076.6 363.45
L 2076.6 379.1
Q 2076.6 381.2 2074.3 381.2
L 2056.85 381.2
Q 2054.5 381.2 2054.5 379.1
L 2054.5 363.45
Q 2054.5 361.35 2056.85 361.35 Z
M 2049.85 389.75
L 2067.3 389.75
Q 2069.65 389.75 2069.65 391.85
L 2069.65 407.5
Q 2069.65 409.6 2067.3 409.6
L 2049.85 409.6
Q 2047.5 409.6 2047.5 407.5
L 2047.5 391.85
Q 2047.5 389.75 2049.85 389.75 Z
M 2081.55 389.75
L 2099.05 389.75
Q 2101.35 389.75 2101.35 391.85
L 2101.35 407.5
Q 2101.35 409.6 2099.05 409.6
L 2081.55 409.6
Q 2079.25 409.6 2079.25 407.5
L 2079.25 391.85
Q 2079.25 389.75 2081.55 389.75 Z
M 2090 360.95
L 2128 360.95
Q 2133.05 360.95 2133.05 363.05
L 2133.05 378.7
Q 2133.05 380.8 2128 380.8
L 2090 380.8
Q 2084.95 380.8 2084.95 378.7
L 2084.95 363.05
Q 2084.95 360.95 2090 360.95 Z
M 2114.15 332.55
L 2131.6 332.55
Q 2133.95 332.55 2133.95 334.65
L 2133.95 350.3
Q 2133.95 352.4 2131.6 352.4
L 2114.15 352.4
Q 2111.85 352.4 2111.85 350.3
L 2111.85 334.65
Q 2111.85 332.55 2114.15 332.55 Z
M 2113.85 390.35
L 2131.35 390.35
Q 2133.65 390.35 2133.65 392.45
L 2133.65 408.1
Q 2133.65 410.2 2131.35 410.2
L 2113.85 410.2
Q 2111.55 410.2 2111.55 408.1
L 2111.55 392.45
Q 2111.55 390.35 2113.85 390.35 Z
M 1873 327.5
L 1873 445.7
Q 1875.05 456.7 1886.35 458.5
L 2134.95 458.5
Q 2146.5 458.1 2148.9 446.25
L 2148.9 326.9
Q 2147.95 312.4 2133.75 311.2
L 1888.1 311.2
Q 1872.85 313.85 1873 327.5 Z
M 2113.4 419.55
L 2130.85 419.55
Q 2133.2 419.55 2133.2 421.65
L 2133.2 437.3
Q 2133.2 439.4 2130.85 439.4
L 2113.4 439.4
Q 2111.05 439.4 2111.05 437.3
L 2111.05 421.65
Q 2111.05 419.55 2113.4 419.55 Z
M 2081.55 419.75
L 2099.05 419.75
Q 2101.35 419.75 2101.35 421.8
L 2101.35 437.5
Q 2101.35 439.55 2099.05 439.55
L 2081.55 439.55
Q 2079.25 439.55 2079.25 437.5
L 2079.25 421.8
Q 2079.25 419.75 2081.55 419.75 Z
M 1967.75 419.45
L 2057.25 419.45
Q 2069.15 419.45 2069.15 421.55
L 2069.15 437.2
Q 2069.15 439.3 2057.25 439.3
L 1967.75 439.3
Q 1955.8 439.3 1955.8 437.2
L 1955.8 421.55
Q 1955.8 419.45 1967.75 419.45 Z
M 1917.95 333.4
L 1935.45 333.4
Q 1937.75 333.4 1937.75 335.5
L 1937.75 351.15
Q 1937.75 353.25 1935.45 353.25
L 1917.95 353.25
Q 1915.65 353.25 1915.65 351.15
L 1915.65 335.5
Q 1915.65 333.4 1917.95 333.4 Z
M 1889.6 333.4
L 1901.65 333.4
Q 1904 333.4 1904 335.5
L 1904 351.15
Q 1904 353.25 1901.65 353.25
L 1889.6 353.25
Q 1888.4 353.25 1888.4 351.15
L 1888.4 335.5
Q 1888.4 333.4 1889.6 333.4 Z
M 1892.35 361.8
L 1909.8 361.8
Q 1912.15 361.8 1912.15 363.9
L 1912.15 379.55
Q 1912.15 381.65 1909.8 381.65
L 1892.35 381.65
Q 1890.05 381.65 1890.05 379.55
L 1890.05 363.9
Q 1890.05 361.8 1892.35 361.8 Z
M 1894.3 390.05
L 1932.3 390.05
Q 1937.35 390.05 1937.35 392.15
L 1937.35 407.8
Q 1937.35 409.9 1932.3 409.9
L 1894.3 409.9
Q 1889.2 409.9 1889.2 407.8
L 1889.2 392.15
Q 1889.2 390.05 1894.3 390.05 Z
M 1924.1 419.75
L 1941.55 419.75
Q 1943.85 419.75 1943.85 421.8
L 1943.85 437.5
Q 1943.85 439.55 1941.55 439.55
L 1924.1 439.55
Q 1921.75 439.55 1921.75 437.5
L 1921.75 421.8
Q 1921.75 419.75 1924.1 419.75 Z
M 1891.2 419.45
L 1908.65 419.45
Q 1911 419.45 1911 421.55
L 1911 437.2
Q 1911 439.3 1908.65 439.3
L 1891.2 439.3
Q 1888.85 439.3 1888.85 437.2
L 1888.85 421.55
Q 1888.85 419.45 1891.2 419.45 Z"/>
</g>
</g>
</g>

<g id="Layer_5"/>
</svg>
